<svg width="41" height="41" viewBox="0 0 41 41" fill="none" xmlns="http://www.w3.org/2000/svg">
<g clip-path="url(#clip0)">
<path d="M36.4152 0H12.4635C11.0928 0 9.9776 1.11519 9.9776 2.48587V8.04882C5.43395 9.34913 2.09863 13.5403 2.09863 18.496C2.09863 23.4516 5.43387 27.6428 9.9776 28.9431V38.5143C9.9776 39.885 11.0928 41.0002 12.4635 41.0002H32.0367C32.2689 41.0002 32.4916 40.9079 32.6558 40.7438L38.6446 34.7549C38.8088 34.5907 38.901 34.368 38.901 34.1357V2.48587C38.901 1.11519 37.7859 0 36.4152 0ZM12.4635 1.75109H36.4152C36.8203 1.75109 37.1499 2.08071 37.1499 2.48587V5.12826H11.7287V2.48587C11.7287 2.08071 12.0583 1.75109 12.4635 1.75109ZM3.84972 18.4959C3.84972 13.4709 7.93784 9.38273 12.9629 9.38273C17.9879 9.38273 22.076 13.4709 22.076 18.4959C22.076 23.5209 17.9879 27.6091 12.9629 27.6091C7.93784 27.6091 3.84972 23.5209 3.84972 18.4959ZM11.7287 38.5142V29.2897C12.1339 29.3357 12.5456 29.3602 12.963 29.3602C16.2262 29.3602 19.1578 27.9137 21.1509 25.6286H26.5156C26.9992 25.6286 27.3911 25.2366 27.3911 24.753C27.3911 24.2695 26.9992 23.8775 26.5156 23.8775H22.398C23.1595 22.5475 23.6474 21.042 23.7858 19.4379H26.5155C26.9991 19.4379 27.3911 19.0459 27.3911 18.5623C27.3911 18.0788 26.9991 17.6868 26.5155 17.6868H23.7969C23.6785 16.0863 23.2116 14.5814 22.4723 13.2473H26.5154C26.999 13.2473 27.391 12.8553 27.391 12.3718C27.391 11.8882 26.999 11.4962 26.5154 11.4962H21.2643C19.2699 9.1345 16.2888 7.63156 12.9627 7.63156C12.5454 7.63156 12.1337 7.65608 11.7284 7.70211V6.87935H37.1497V33.26H33.6468C32.276 33.26 31.161 34.3752 31.161 35.7458V39.2489H12.4635C12.0583 39.2489 11.7287 38.9194 11.7287 38.5142ZM32.9123 38.0106V35.7459C32.9123 35.3407 33.2419 35.0112 33.647 35.0112H35.9118L32.9123 38.0106Z" fill="white"/>
<path d="M29.9556 13.2473H32.8633C33.3468 13.2473 33.7388 12.8553 33.7388 12.3718C33.7388 11.8882 33.3468 11.4962 32.8633 11.4962H29.9556C29.4721 11.4962 29.0801 11.8882 29.0801 12.3718C29.0801 12.8553 29.4721 13.2473 29.9556 13.2473Z" fill="white"/>
<path d="M29.9556 19.4379H32.8633C33.3468 19.4379 33.7388 19.0459 33.7388 18.5623C33.7388 18.0788 33.3468 17.6868 32.8633 17.6868H29.9556C29.4721 17.6868 29.0801 18.0788 29.0801 18.5623C29.0801 19.0459 29.4721 19.4379 29.9556 19.4379Z" fill="white"/>
<path d="M29.9556 25.6285H32.8633C33.3468 25.6285 33.7388 25.2365 33.7388 24.753C33.7388 24.2694 33.3468 23.8774 32.8633 23.8774H29.9556C29.4721 23.8774 29.0801 24.2694 29.0801 24.753C29.0801 25.2365 29.4721 25.6285 29.9556 25.6285Z" fill="white"/>
<path d="M32.8634 31.8192C33.3469 31.8192 33.7389 31.4272 33.7389 30.9437C33.7389 30.4601 33.3469 30.0681 32.8634 30.0681H24.6729C24.1894 30.0681 23.7974 30.4601 23.7974 30.9437C23.7974 31.4272 24.1894 31.8192 24.6729 31.8192H32.8634Z" fill="white"/>
<path d="M19.7604 14.0791L18.6923 13.011C18.4046 12.7234 18.0222 12.5649 17.6153 12.5649C17.2085 12.5649 16.8261 12.7234 16.5384 13.011L10.9358 18.6136L9.38707 17.0649C9.09948 16.7774 8.71699 16.619 8.31024 16.619C7.90349 16.619 7.521 16.7774 7.2334 17.065L6.16499 18.1333C5.57129 18.7271 5.57129 19.6933 6.16508 20.2871L9.85878 23.9807C10.1465 24.2684 10.5289 24.4269 10.9358 24.4269H10.9359C11.3426 24.4269 11.7251 24.2684 12.0126 23.9809L19.7605 16.233C20.3542 15.6392 20.3542 14.6729 19.7604 14.0791ZM10.9357 22.5812L7.56453 19.2101L8.31016 18.4645L10.3166 20.4709C10.6585 20.8129 11.2129 20.8129 11.5548 20.4709L17.6153 14.4104L18.361 15.156L10.9357 22.5812Z" fill="white"/>
</g>
<defs>
<clipPath id="clip0">
<rect width="41" height="41" fill="white"/>
</clipPath>
</defs>
</svg>
