<svg width="41" height="41" viewBox="0 0 41 41" fill="none" xmlns="http://www.w3.org/2000/svg">
<path d="M25.4377 4.18453C25.0192 1.80772 22.952 0 20.4581 0C17.9641 0 15.8886 1.80772 15.4785 4.18453H4.23047V41H36.6857H36.7694V4.18453H25.4377V4.18453ZM20.4581 1.74076C21.9896 1.74076 23.2701 2.77853 23.655 4.18453H17.2611C17.6377 2.77853 18.9265 1.74076 20.4581 1.74076ZM26.5591 5.92529L28.7434 9.67463H12.0806L14.265 5.92529C14.265 5.92529 26.5591 5.92529 26.5591 5.92529ZM5.97123 39.2509V5.92529H12.2899L9.10963 11.4238H31.7898L28.6765 5.92529H35.0202V39.2509H5.97123Z" fill="white"/>
<path d="M23.3286 16.5707H11.1182V18.3114H23.3286V16.5707Z" fill="white"/>
<path d="M29.7891 16.5707H26.7344V18.3114H29.7891V16.5707Z" fill="white"/>
<path d="M23.3286 22.0692H11.1182V23.81H23.3286V22.0692Z" fill="white"/>
<path d="M29.7891 22.0692H26.7344V23.81H29.7891V22.0692Z" fill="white"/>
<path d="M23.3286 27.4756H11.1182V29.2164H23.3286V27.4756Z" fill="white"/>
<path d="M29.7891 27.4756H26.7344V29.2164H29.7891V27.4756Z" fill="white"/>
<path d="M23.3286 32.9741H11.1182V34.7149H23.3286V32.9741Z" fill="white"/>
<path d="M29.7891 32.9741H26.7344V34.7149H29.7891V32.9741Z" fill="white"/>
</svg>
