<svg width="41" height="41" viewBox="0 0 41 41" fill="none" xmlns="http://www.w3.org/2000/svg">
<g clip-path="url(#clip0)">
<path d="M40.1819 11.8883L31.836 3.54239C31.3076 3.01398 30.6052 2.72302 29.8579 2.72302C29.1107 2.72302 28.4082 3.01398 27.88 3.54239L25.9187 5.50356C25.6169 5.80537 25.4017 6.16038 25.2668 6.53804L16.0902 4.89512C16.0895 4.89497 16.0888 4.89497 16.0882 4.89481C11.962 4.07576 7.93343 6.75827 7.10135 10.8849L6.6781 12.9844C6.21064 15.3029 7.71677 17.5693 10.0353 18.0367C12.3539 18.5039 14.6203 16.9981 15.0878 14.6796L15.3465 13.3957L19.4616 13.7555L30.2081 24.502L32.1558 26.4497C32.5502 26.8441 32.55 27.4859 32.1558 27.8803C31.7615 28.2745 31.1198 28.2747 30.7254 27.8803L25.5081 22.6631C25.1447 22.2997 24.5554 22.2997 24.1922 22.6631C23.8288 23.0264 23.8288 23.6156 24.1922 23.979L29.4094 29.1963C29.6005 29.3873 29.7056 29.6414 29.7056 29.9116C29.7056 30.1817 29.6005 30.4356 29.4094 30.6267C29.0148 31.0211 28.3732 31.0209 27.9789 30.6267L22.7617 25.4095C22.3983 25.0461 21.809 25.0461 21.4457 25.4095C21.0824 25.7729 21.0824 26.3621 21.4457 26.7254L26.663 31.9427C27.0574 32.3369 27.0574 32.9787 26.663 33.3731C26.4719 33.5642 26.2178 33.6693 25.9478 33.6693C25.6776 33.6693 25.4236 33.5642 25.2325 33.3731L20.0153 28.1559C19.6519 27.7925 19.0626 27.7925 18.6993 28.1559C18.3359 28.5193 18.3359 29.1085 18.6993 29.4719L23.9165 34.6891C24.311 35.0835 24.3108 35.7253 23.9165 36.1197C23.5223 36.5139 22.8805 36.5141 22.4861 36.1197L4.02629 17.6602L1.58852 15.2224C1.22513 14.859 0.635771 14.859 0.27254 15.2224C-0.0908466 15.5858 -0.0908466 16.175 0.27254 16.5384L2.71032 18.9761L5.36321 21.629L3.90082 23.0914C3.42205 23.5702 3.15823 24.2069 3.15823 24.8842C3.15823 25.5615 3.42189 26.1981 3.90082 26.6769L4.37805 27.1541C4.79665 27.5727 5.33591 27.8268 5.91736 27.8842C5.97475 28.4656 6.22879 29.0049 6.64739 29.4233L7.12462 29.9007C7.55438 30.3305 8.1014 30.5729 8.66362 30.6289C8.72054 31.2109 8.97489 31.751 9.39396 32.1699L9.87119 32.6471C10.2898 33.0657 10.8291 33.3198 11.4105 33.3771C11.4679 33.9586 11.7219 34.4978 12.1405 34.9164L12.6178 35.3937C13.112 35.888 13.7613 36.135 14.4105 36.135C15.0597 36.135 15.7089 35.888 16.2032 35.3937L17.6656 33.9313L21.17 37.4356C21.7127 37.9783 22.434 38.277 23.2013 38.277C23.9685 38.277 24.69 37.9782 25.2325 37.4356C25.7465 36.9217 26.0384 36.2465 26.068 35.5247C26.79 35.4951 27.465 35.2032 27.9791 34.6892C28.5089 34.1594 28.7848 33.4725 28.8135 32.7771C29.5088 32.7484 30.1959 32.4725 30.7255 31.9428C31.2553 31.413 31.5312 30.7261 31.5599 30.0307C32.2554 30.002 32.9424 29.7261 33.4721 29.1963C34.5922 28.0762 34.5922 26.2538 33.4721 25.1337L32.1825 23.8441L36.9009 19.1257L40.1821 15.8445C41.2726 14.7537 41.2726 12.979 40.1819 11.8883V11.8883ZM5.2168 25.3608C4.95391 25.0979 4.95391 24.6703 5.2168 24.4074L6.58814 23.0361L8.01874 24.4666L6.64739 25.838C6.38466 26.1009 5.95675 26.1007 5.69402 25.838L5.2168 25.3608V25.3608ZM7.96337 28.1073C7.70048 27.8445 7.70048 27.4169 7.96337 27.1541L9.33471 25.7828L10.7653 27.2134L9.39412 28.5847C9.13123 28.8474 8.70332 28.8476 8.44075 28.5847L7.96337 28.1073ZM10.7098 30.8539C10.5825 30.7266 10.5123 30.5572 10.5123 30.3773C10.5123 30.1974 10.5825 30.028 10.7098 29.9007L12.0811 28.5293L13.5116 29.9598L12.1402 31.3311C11.8775 31.5939 11.4497 31.5939 11.187 31.3311L10.7098 30.8539ZM14.8869 34.0777C14.6242 34.3406 14.1963 34.3404 13.9336 34.0777L13.4564 33.6005C13.1935 33.3376 13.1935 32.91 13.4564 32.6471L14.8277 31.2758L16.2583 32.7064L14.8869 34.0777ZM30.8662 22.528L20.5381 12.1999C20.3833 12.0451 20.1792 11.9499 19.9612 11.931L14.6797 11.4693C14.6523 11.4668 14.625 11.4657 14.598 11.4657C14.1592 11.4657 13.7748 11.7751 13.6865 12.2125L13.2633 14.312C12.9987 15.6244 11.7163 16.4768 10.403 16.2124C9.76727 16.0843 9.21932 15.7161 8.86044 15.1759C8.50155 14.6357 8.37437 13.988 8.50263 13.3521L8.92588 11.2528C9.5565 8.12465 12.6131 6.09198 15.7424 6.72337C15.749 6.72461 15.7556 6.72601 15.7623 6.7271L24.8052 8.34613L25.9187 9.45955L34.9267 18.4676L30.8662 22.528V22.528ZM38.8658 14.5283L36.2425 17.1516L27.2345 8.14357C27.0577 7.96677 26.9603 7.73164 26.9603 7.48148C26.9603 7.23131 27.0577 6.99634 27.2345 6.81938L29.1958 4.85805C29.3726 4.68125 29.6077 4.58385 29.8578 4.58385C30.1078 4.58385 30.3429 4.68125 30.5199 4.85805L38.8658 13.204C39.0426 13.3808 39.14 13.6159 39.14 13.8661C39.14 14.1163 39.0426 14.3515 38.8658 14.5283Z" fill="white"/>
<path d="M36.6132 15.1663C37.1271 15.1663 37.5438 14.7497 37.5438 14.2357C37.5438 13.7218 37.1271 13.3052 36.6132 13.3052C36.0992 13.3052 35.6826 13.7218 35.6826 14.2357C35.6826 14.7497 36.0992 15.1663 36.6132 15.1663Z" fill="white"/>
</g>
<defs>
<clipPath id="clip0">
<rect width="41" height="41" fill="white"/>
</clipPath>
</defs>
</svg>
