<svg width="41" height="41" viewBox="0 0 41 41" fill="none" xmlns="http://www.w3.org/2000/svg">
<path d="M37.9971 1.48145H3.00293C1.34707 1.48145 0 2.82852 0 4.48438V30.9102C0 32.566 1.34707 33.9131 3.00293 33.9131H15.82L15.0971 36.4431C14.8068 37.4591 13.6689 38.3174 12.6123 38.3174H8.08789C7.75621 38.3174 7.4873 38.5862 7.4873 38.918C7.4873 39.2497 7.75621 39.5186 8.08789 39.5186H32.9121C33.2438 39.5186 33.5127 39.2497 33.5127 38.918C33.5127 38.5862 33.2438 38.3174 32.9121 38.3174H28.3877C27.3311 38.3174 26.1932 37.459 25.9029 36.4431L25.18 33.9131H37.9971C39.6529 33.9131 41 32.566 41 30.9102V4.48438C41 2.82852 39.6529 1.48145 37.9971 1.48145ZM3.00293 2.68262H37.9971C38.9906 2.68262 39.7988 3.49093 39.7988 4.48438V25.5049H1.20117V4.48438C1.20117 3.49093 2.0094 2.68262 3.00293 2.68262ZM24.7479 36.7731C24.9127 37.35 25.2403 37.8801 25.6698 38.3174H15.3302C15.7597 37.8801 16.0873 37.35 16.2521 36.7731L17.0692 33.9131H23.9307L24.7479 36.7731ZM37.9971 32.7119H3.00293C2.0094 32.7119 1.20117 31.9036 1.20117 30.9102V26.7061H39.7988V30.9102C39.7988 31.9036 38.9906 32.7119 37.9971 32.7119Z" fill="white"/>
<path d="M3.00293 24.3037H37.9971C38.3288 24.3037 38.5977 24.0349 38.5977 23.7031V4.48438C38.5977 4.15261 38.3288 3.88379 37.9971 3.88379H3.00293C2.67125 3.88379 2.40234 4.15261 2.40234 4.48438V12.8926C2.40234 13.2243 2.67125 13.4932 3.00293 13.4932C3.33461 13.4932 3.60352 13.2243 3.60352 12.8926V5.08496H37.3965V23.1025H3.60352V15.2949C3.60352 14.9632 3.33461 14.6943 3.00293 14.6943C2.67125 14.6943 2.40234 14.9632 2.40234 15.2949V23.7031C2.40234 24.0349 2.67125 24.3037 3.00293 24.3037Z" fill="white"/>
<path d="M20.5 27.9072C19.5065 27.9072 18.6982 28.7155 18.6982 29.709C18.6982 30.7024 19.5065 31.5107 20.5 31.5107C21.4935 31.5107 22.3018 30.7024 22.3018 29.709C22.3018 28.7155 21.4935 27.9072 20.5 27.9072ZM20.5 30.3096C20.1688 30.3096 19.8994 30.0402 19.8994 29.709C19.8994 29.3778 20.1688 29.1084 20.5 29.1084C20.8312 29.1084 21.1006 29.3778 21.1006 29.709C21.1006 30.0402 20.8312 30.3096 20.5 30.3096Z" fill="white"/>
</svg>
