<svg width="41" height="41" viewBox="0 0 41 41" fill="none" xmlns="http://www.w3.org/2000/svg">
<g clip-path="url(#clip0)">
<path d="M13.7637 8.10072C13.7637 11.8149 16.7856 14.8367 20.5002 14.8367C24.2144 14.8367 27.2363 11.815 27.2363 8.10072C27.2363 4.38538 24.2145 1.36279 20.5002 1.36279C16.7857 1.36279 13.7637 4.38538 13.7637 8.10072ZM25.8199 8.10072C25.8199 11.034 23.4335 13.4203 20.5002 13.4203C17.5667 13.4203 15.1801 11.034 15.1801 8.10072C15.1801 5.16641 17.5667 2.77918 20.5002 2.77918C23.4335 2.77918 25.8199 5.16654 25.8199 8.10072Z" fill="white"/>
<path d="M7.80254 7.78979C4.7528 7.78979 2.27148 10.2714 2.27148 13.3217C2.27148 16.3714 4.75267 18.8524 7.80254 18.8524C10.8516 18.8524 13.3324 16.3714 13.3324 13.3217C13.3324 10.2714 10.8516 7.78979 7.80254 7.78979ZM7.80254 17.4362C5.5337 17.4362 3.68787 15.5905 3.68787 13.3217C3.68787 11.0524 5.5337 9.20618 7.80254 9.20618C10.0707 9.20618 11.9161 11.0525 11.9161 13.3217C11.9161 15.5905 10.0707 17.4362 7.80254 17.4362Z" fill="white"/>
<path d="M33.1969 18.8525C36.2467 18.8525 38.7279 16.3715 38.7279 13.3219C38.7279 10.2715 36.2468 7.78992 33.1969 7.78992C30.1472 7.78992 27.666 10.2715 27.666 13.3219C27.666 16.3715 30.1472 18.8525 33.1969 18.8525ZM33.1969 9.20617C35.4657 9.20617 37.3115 11.0525 37.3115 13.3217C37.3115 15.5905 35.4657 17.4362 33.1969 17.4362C30.9281 17.4362 29.0823 15.5905 29.0823 13.3217C29.0823 11.0525 30.9281 9.20617 33.1969 9.20617Z" fill="white"/>
<path d="M35.6237 19.8489H30.7307C30.2832 19.8489 29.8426 19.9053 29.4142 20.0142C28.331 17.8924 26.1237 16.4362 23.5827 16.4362H23.271H17.778H17.4662C14.9207 16.4362 12.7101 17.8976 11.6291 20.0256C11.1862 19.9092 10.7305 19.8492 10.2687 19.8489H5.37598C2.41156 19.8489 0 22.2608 0 25.2249V38.929C0 39.3201 0.316968 39.6371 0.708192 39.6371C1.09929 39.6371 1.41638 39.3201 1.41638 38.929V25.2249C1.41638 23.0417 3.19272 21.2653 5.37611 21.2653H10.2692C10.5585 21.2661 10.8454 21.2985 11.1261 21.3611C10.9939 21.8788 10.9234 22.421 10.9234 22.9795V38.929C10.9234 39.3201 11.2405 39.6371 11.6316 39.6371C12.0227 39.6371 12.3398 39.3201 12.3398 38.929V22.9796C12.3398 22.3633 12.4493 21.7721 12.6494 21.2241C12.6588 21.2059 12.6678 21.1875 12.6756 21.168C12.6862 21.1424 12.6946 21.1164 12.7019 21.0903C13.4091 19.3129 15.0821 18.0223 17.0697 17.8694V20.4413C17.0697 20.8324 17.3868 21.1496 17.7779 21.1496H18.4773L16.569 35.1462C16.5352 35.3933 16.6341 35.6398 16.8289 35.7953L20.0825 38.393C20.2117 38.4962 20.3681 38.5476 20.5244 38.5476C20.6807 38.5476 20.837 38.4962 20.9662 38.393L24.2201 35.7954C24.4151 35.6398 24.5136 35.3933 24.48 35.1462L22.5714 21.1496H23.271C23.6622 21.1496 23.9792 20.8324 23.9792 20.4413V17.8694C25.9568 18.0216 27.6228 19.2997 28.3362 21.0629C28.3435 21.0906 28.3519 21.118 28.3627 21.1451C28.3731 21.1713 28.3852 21.1962 28.3982 21.2204C28.5993 21.7693 28.7091 22.3618 28.7091 22.9795V38.929C28.7091 39.3201 29.0262 39.6371 29.4173 39.6371C29.8085 39.6371 30.1255 39.3201 30.1255 38.929V22.9796C30.1255 22.4174 30.0542 21.8715 29.9202 21.3504C30.1853 21.2945 30.4561 21.2655 30.7307 21.2655H35.6237C37.8073 21.2655 39.5837 23.0418 39.5837 25.2251V38.9291C39.5837 39.3202 39.9008 39.6373 40.2919 39.6373C40.683 39.6373 41.0001 39.3202 41.0001 38.9291V25.2249C41 22.2608 38.5883 19.8489 35.6237 19.8489ZM22.5627 17.8527V19.7334H21.76H19.2887H18.4862V17.8527H22.5627ZM23.0221 34.9394L20.5243 36.9333L18.0267 34.9394L19.9067 21.1498H21.1418L23.0221 34.9394Z" fill="white"/>
</g>
<defs>
<clipPath id="clip0">
<rect width="41" height="41" fill="white"/>
</clipPath>
</defs>
</svg>
