<svg width="41" height="41" viewBox="0 0 41 41" fill="none" xmlns="http://www.w3.org/2000/svg">
<path d="M39.0781 8.96875H36.8449C37.0351 8.34514 37.1398 7.69863 37.1562 7.04688C37.1562 5.51774 36.5488 4.05123 35.4675 2.96996C34.3863 1.8887 32.9198 1.28125 31.3906 1.28125C29.8615 1.28125 28.395 1.8887 27.3137 2.96996C26.2324 4.05123 25.625 5.51774 25.625 7.04688C25.6414 7.69863 25.7462 8.34514 25.9363 8.96875H10.1988C10.029 7.85386 9.44533 6.84387 8.56417 6.14005C7.68301 5.43623 6.56901 5.09026 5.44417 5.17106C4.31932 5.25187 3.26622 5.75353 2.49471 6.57608C1.7232 7.39863 1.28994 8.48166 1.28125 9.60938V35.2344C1.28261 36.4233 1.7555 37.5631 2.59619 38.4038C3.43688 39.2445 4.57671 39.7174 5.76562 39.7188H39.0781C39.248 39.7188 39.411 39.6513 39.5311 39.5311C39.6513 39.411 39.7188 39.248 39.7188 39.0781V9.60938C39.7188 9.43947 39.6513 9.27653 39.5311 9.15638C39.411 9.03624 39.248 8.96875 39.0781 8.96875ZM31.3906 2.5625C32.5795 2.56386 33.7194 3.03675 34.5601 3.87744C35.4007 4.71813 35.8736 5.85796 35.875 7.04688C35.875 9.93417 32.6546 14.5422 31.3906 16.2418C30.126 14.5422 26.9062 9.93673 26.9062 7.04688C26.9076 5.85796 27.3805 4.71813 28.2212 3.87744C29.0619 3.03675 30.2017 2.56386 31.3906 2.5625ZM2.5625 9.60938C2.5625 8.75985 2.89997 7.94513 3.50067 7.34442C4.10138 6.74372 4.9161 6.40625 5.76562 6.40625C6.61515 6.40625 7.42987 6.74372 8.03058 7.34442C8.63128 7.94513 8.96875 8.75985 8.96875 9.60938V32.0953C8.55168 31.6682 8.05334 31.3288 7.50309 31.0972C6.95285 30.8656 6.36181 30.7465 5.76481 30.7469C5.16782 30.7472 4.57693 30.867 4.02696 31.0993C3.47699 31.3315 2.97906 31.6715 2.5625 32.0992V9.60938ZM38.4375 38.4375H5.76562C5.13211 38.4375 4.51282 38.2496 3.98606 37.8977C3.45931 37.5457 3.04876 37.0455 2.80632 36.4602C2.56389 35.8749 2.50045 35.2308 2.62405 34.6095C2.74764 33.9881 3.05271 33.4174 3.50067 32.9694C3.94864 32.5215 4.51938 32.2164 5.14073 32.0928C5.76207 31.9692 6.40611 32.0326 6.99141 32.2751C7.5767 32.5175 8.07696 32.9281 8.42893 33.4548C8.78089 33.9816 8.96875 34.6009 8.96875 35.2344C8.96875 35.4043 9.03624 35.5672 9.15638 35.6874C9.27653 35.8075 9.43947 35.875 9.60938 35.875C9.77928 35.875 9.94222 35.8075 10.0624 35.6874C10.1825 35.5672 10.25 35.4043 10.25 35.2344V10.25H26.3726C27.5631 12.9106 29.0807 15.4123 30.8903 17.6973C30.9503 17.7723 31.0264 17.8329 31.1131 17.8745C31.1997 17.9162 31.2945 17.9378 31.3906 17.9378C31.4867 17.9378 31.5816 17.9162 31.6682 17.8745C31.7548 17.8329 31.8309 17.7723 31.891 17.6973C33.7006 15.4123 35.2182 12.9106 36.4086 10.25H38.4375V38.4375Z" fill="white"/>
<path d="M34.5937 7.04688C34.5937 6.41336 34.4059 5.79407 34.0539 5.26732C33.702 4.74056 33.2017 4.33001 32.6164 4.08757C32.0311 3.84514 31.3871 3.78171 30.7657 3.9053C30.1444 4.02889 29.5736 4.33396 29.1257 4.78193C28.6777 5.22989 28.3726 5.80063 28.249 6.42198C28.1255 7.04332 28.1889 7.68736 28.4313 8.27266C28.6738 8.85795 29.0843 9.35821 29.6111 9.71018C30.1378 10.0621 30.7571 10.25 31.3906 10.25C32.2398 10.249 33.054 9.91119 33.6544 9.3107C34.2549 8.71022 34.5927 7.89609 34.5937 7.04688ZM29.4687 7.04688C29.4687 6.66677 29.5815 6.29519 29.7926 5.97914C30.0038 5.66309 30.304 5.41676 30.6552 5.2713C31.0063 5.12583 31.3928 5.08777 31.7656 5.16193C32.1384 5.23609 32.4808 5.41913 32.7496 5.68791C33.0184 5.95668 33.2014 6.29913 33.2756 6.67194C33.3497 7.04474 33.3117 7.43117 33.1662 7.78235C33.0207 8.13352 32.7744 8.43368 32.4584 8.64486C32.1423 8.85604 31.7707 8.96875 31.3906 8.96875C30.8809 8.96875 30.3921 8.76627 30.0317 8.40585C29.6712 8.04543 29.4687 7.55659 29.4687 7.04688Z" fill="white"/>
<path d="M19.8594 17.9375V12.8125H18.5781V17.2969H12.8125V18.5781H19.2188C19.3887 18.5781 19.5516 18.5106 19.6717 18.3905C19.7919 18.2704 19.8594 18.1074 19.8594 17.9375Z" fill="white"/>
<path d="M23.0625 18.5781H28.8281V17.2969H23.7031V12.8125H22.4219V17.9375C22.4219 18.1074 22.4894 18.2704 22.6095 18.3905C22.7296 18.5106 22.8926 18.5781 23.0625 18.5781Z" fill="white"/>
<path d="M29.4688 21.1406H23.0625C22.8926 21.1406 22.7296 21.2081 22.6095 21.3283C22.4894 21.4484 22.4219 21.6113 22.4219 21.7812V26.9062C22.4219 27.0762 22.4894 27.2391 22.6095 27.3592C22.7296 27.4794 22.8926 27.5469 23.0625 27.5469H29.4688C29.6387 27.5469 29.8016 27.4794 29.9217 27.3592C30.0419 27.2391 30.1094 27.0762 30.1094 26.9062V21.7812C30.1094 21.6113 30.0419 21.4484 29.9217 21.3283C29.8016 21.2081 29.6387 21.1406 29.4688 21.1406ZM28.8281 26.2656H23.7031V22.4219H28.8281V26.2656Z" fill="white"/>
<path d="M19.8594 26.9062V21.7812C19.8594 21.6113 19.7919 21.4484 19.6717 21.3283C19.5516 21.2081 19.3887 21.1406 19.2188 21.1406H12.8125V22.4219H18.5781V26.2656H12.8125V27.5469H19.2188C19.3887 27.5469 19.5516 27.4794 19.6717 27.3592C19.7919 27.2391 19.8594 27.0762 19.8594 26.9062Z" fill="white"/>
<path d="M29.4688 31.3906H12.8125V32.6719H28.8281V35.875H30.1094V32.0312C30.1094 31.8613 30.0419 31.6984 29.9217 31.5783C29.8016 31.4581 29.6387 31.3906 29.4688 31.3906Z" fill="white"/>
<path d="M32.6719 21.7812V26.9062C32.6719 27.0762 32.7394 27.2391 32.8595 27.3592C32.9796 27.4794 33.1426 27.5469 33.3125 27.5469H35.875V26.2656H33.9531V22.4219H35.875V21.1406H33.3125C33.1426 21.1406 32.9796 21.2081 32.8595 21.3283C32.7394 21.4484 32.6719 21.6113 32.6719 21.7812Z" fill="white"/>
<path d="M32.6719 32.0312V35.875H33.9531V32.6719H35.875V31.3906H33.3125C33.1426 31.3906 32.9796 31.4581 32.8595 31.5783C32.7394 31.6984 32.6719 31.8613 32.6719 32.0312Z" fill="white"/>
</svg>
