<svg width="41" height="33" viewBox="0 0 41 33" fill="none" xmlns="http://www.w3.org/2000/svg">
<path d="M40.9448 9.39345L38.4479 3.40118C38.3615 3.19356 38.1826 3.03844 37.9649 2.98201L34.9638 2.20392C26.1773 -0.0741039 14.8224 -0.0740081 6.03628 2.20392L3.03507 2.98201C2.81739 3.03844 2.63851 3.19356 2.55209 3.40118L0.0553234 9.39345C-0.0134695 9.55844 -0.0182601 9.74316 0.041814 9.9115L1.04046 12.7079C1.16042 13.0437 1.50821 13.2409 1.85812 13.1708L11.3459 11.2733C11.6381 11.2148 11.8638 10.9821 11.9136 10.6883L12.7352 5.82292C17.2574 4.6866 23.7426 4.6866 28.2646 5.82292L29.0863 10.6884C29.136 10.9823 29.3618 11.2149 29.654 11.2734L39.1417 13.1709C39.189 13.1804 39.2362 13.185 39.283 13.185C39.5814 13.185 39.8557 12.9984 39.9594 12.708L40.9582 9.9116C41.0183 9.74316 41.0135 9.55844 40.9448 9.39345ZM2.18522 11.6399L1.67263 10.2045L10.8622 8.28376L10.579 9.96113L2.18522 11.6399ZM11.9127 4.55342C11.6435 4.62767 11.4418 4.8511 11.3953 5.12647L11.1192 6.76178L1.90641 8.68741L3.7414 4.28361L6.39692 3.59511C14.9641 1.374 26.0357 1.3739 34.6033 3.59511L37.2588 4.28361L39.0938 8.68741L29.881 6.76178L29.6049 5.12647C29.5584 4.8512 29.3566 4.62767 29.0875 4.55342C24.1917 3.20237 16.8083 3.20237 11.9127 4.55342ZM38.8148 11.6399L30.4212 9.96113L30.1379 8.28376L39.3275 10.2045L38.8148 11.6399Z" fill="white"/>
<path d="M34.1229 13.6177C34.0618 13.3432 33.8464 13.1294 33.5715 13.0707L28.6775 12.0246L28.0613 8.01146C28.0075 7.66079 27.7059 7.40191 27.3511 7.40191H25.4348V6.46104C25.4348 6.06418 25.1132 5.74245 24.7162 5.74245C24.3193 5.74245 23.9977 6.06418 23.9977 6.46104V7.40191H17.0034V6.46104C17.0034 6.06418 16.6817 5.74245 16.2848 5.74245C15.8879 5.74245 15.5662 6.06418 15.5662 6.46104V7.40191H13.65C13.2953 7.40191 12.9935 7.66079 12.9397 8.01146L12.3235 12.0246L7.42958 13.0707C7.1546 13.1294 6.93922 13.3432 6.87818 13.6177L3.55514 28.5913C3.54383 28.6424 3.53809 28.6947 3.53809 28.747V31.786C3.53809 32.1829 3.85973 32.5046 4.25667 32.5046H36.7444C37.1413 32.5046 37.463 32.1829 37.463 31.786V28.747C37.463 28.6947 37.4572 28.6424 37.4459 28.5913L34.1229 13.6177ZM8.18132 14.3796L13.1087 13.3263C13.4007 13.264 13.6235 13.0277 13.6688 12.7327L14.2667 8.83909H26.7344L27.3322 12.7327C27.3775 13.0277 27.6004 13.264 27.8923 13.3263L32.8198 14.3796L35.8489 28.0284H5.15223L8.18132 14.3796ZM12.092 29.4656L11.1663 31.0674H10.074L10.9996 29.4656H12.092ZM13.7519 29.4656H29.3894L28.4637 31.0674H12.8263L13.7519 29.4656ZM4.97526 29.4656H9.33969L8.41405 31.0674H4.97526V29.4656ZM30.1237 31.0674L31.0493 29.4656H36.0258V31.0674H30.1237Z" fill="white"/>
<path d="M20.5 26.6634C24.7529 26.6634 28.2128 23.2035 28.2128 18.9506C28.2128 14.6977 24.7529 11.2377 20.5 11.2377C16.2471 11.2377 12.7871 14.6977 12.7871 18.9506C12.7871 23.2035 16.2471 26.6634 20.5 26.6634ZM20.5 12.6749C23.9604 12.6749 26.7756 15.4901 26.7756 18.9506C26.7756 22.411 23.9604 25.2263 20.5 25.2263C17.0395 25.2263 14.2243 22.411 14.2243 18.9506C14.2243 15.4901 17.0395 12.6749 20.5 12.6749Z" fill="white"/>
<path d="M20.4996 21.6863C22.008 21.6863 23.2354 20.459 23.2354 18.9505C23.2354 17.4419 22.008 16.2147 20.4996 16.2147C18.991 16.2147 17.7637 17.4419 17.7637 18.9505C17.7637 20.459 18.991 21.6863 20.4996 21.6863ZM20.4996 17.6518C21.2157 17.6518 21.7982 18.2344 21.7982 18.9505C21.7982 19.6666 21.2157 20.2491 20.4996 20.2491C19.7835 20.2491 19.2008 19.6666 19.2008 18.9505C19.2008 18.2345 19.7835 17.6518 20.4996 17.6518Z" fill="white"/>
</svg>
