<svg width="41" height="41" viewBox="0 0 41 41" fill="none" xmlns="http://www.w3.org/2000/svg">
<path d="M20.5 0C9.19626 0 0 9.19626 0 20.5C0 31.8037 9.19626 41 20.5 41C31.8037 41 41 31.8037 41 20.5C41 9.19626 31.8037 0 20.5 0ZM20.5 39.0841C10.2527 39.0841 1.91589 30.7474 1.91589 20.5C1.91589 10.2527 10.2527 1.91589 20.5 1.91589C30.7473 1.91589 39.0841 10.2527 39.0841 20.5C39.0841 30.7474 30.7473 39.0841 20.5 39.0841Z" fill="white"/>
<path d="M34.9996 16.5147C34.887 16.1679 34.5872 15.9152 34.2262 15.8628L25.3355 14.5709L21.3594 6.51429C21.1979 6.18731 20.865 5.98027 20.5003 5.98027C20.1356 5.98027 19.8027 6.18731 19.6412 6.51429L15.6651 14.5709L6.77425 15.8628C6.41342 15.9152 6.11365 16.1679 6.00099 16.5147C5.88834 16.8615 5.98235 17.2421 6.24342 17.4967L12.6768 23.7678L11.1581 32.6227C11.0965 32.9822 11.2441 33.3453 11.5392 33.5597C11.7061 33.6809 11.9037 33.7426 12.1023 33.7426C12.2547 33.7426 12.4078 33.7062 12.548 33.6327L20.5002 29.4519L28.4524 33.6327C28.7754 33.8023 29.1664 33.7741 29.4612 33.5597C29.7562 33.3454 29.904 32.9823 29.8422 32.6229L28.3234 23.768L34.7569 17.4969C35.0183 17.2421 35.1121 16.8615 34.9996 16.5147ZM26.6257 22.7472C26.3998 22.9673 26.2969 23.2844 26.3503 23.5952L27.626 31.0334L20.9461 27.5216C20.667 27.375 20.3337 27.375 20.0545 27.5216L13.3746 31.0334L14.6503 23.5952C14.7036 23.2844 14.6006 22.9674 14.3748 22.7472L8.97062 17.4796L16.439 16.3943C16.751 16.3489 17.0207 16.153 17.1603 15.8702L20.5003 9.10278L23.8402 15.8703C23.9798 16.153 24.2494 16.3491 24.5616 16.3944L32.03 17.4797L26.6257 22.7472Z" fill="white"/>
</svg>
