<svg width="41" height="41" viewBox="0 0 41 41" fill="none" xmlns="http://www.w3.org/2000/svg">
<path d="M34.2653 1.13525C33.8707 1.13525 33.5508 1.4552 33.5508 1.84981V35.2998C33.5508 35.4106 33.5766 35.52 33.6262 35.6193L35.5518 39.4698C35.6728 39.7119 35.9201 39.8648 36.1909 39.8648C36.4615 39.8648 36.7088 39.7119 36.83 39.4698L38.7554 35.6193C38.805 35.52 38.8308 35.4108 38.8308 35.2998V1.84981C38.8308 1.4552 38.5109 1.13525 38.1163 1.13525H34.2653ZM37.4017 35.1308L36.1909 37.5524L34.9799 35.1308V2.56437H37.4017V35.1308Z" fill="white"/>
<path d="M39.5713 6.23754V17.6368C39.5713 18.0314 39.8912 18.3514 40.2858 18.3514C40.6805 18.3514 41.0004 18.0314 41.0004 17.6368V6.23754C41.0004 5.84293 40.6805 5.52298 40.2858 5.52298C39.8912 5.52298 39.5713 5.84293 39.5713 6.23754Z" fill="white"/>
<path d="M24.2204 21.3783H6.1296C5.73499 21.3783 5.41504 21.6984 5.41504 22.093C5.41504 22.4876 5.73499 22.8074 6.1296 22.8074H24.2204C24.615 22.8074 24.9349 22.4876 24.9349 22.093C24.9349 21.6984 24.615 21.3783 24.2204 21.3783Z" fill="white"/>
<path d="M24.2204 31.9516H6.1296C5.73499 31.9516 5.41504 32.2716 5.41504 32.6662C5.41504 33.0608 5.73499 33.3807 6.1296 33.3807H24.2204C24.615 33.3807 24.9349 33.0608 24.9349 32.6662C24.9349 32.2716 24.615 31.9516 24.2204 31.9516Z" fill="white"/>
<path d="M24.2204 16.7888H6.1296C5.73499 16.7888 5.41504 17.1087 5.41504 17.5033C5.41504 17.8979 5.73499 18.2179 6.1296 18.2179H24.2204C24.615 18.2179 24.9349 17.8979 24.9349 17.5033C24.9349 17.1087 24.615 16.7888 24.2204 16.7888Z" fill="white"/>
<path d="M6.1296 13.6288H16.8693C17.2639 13.6288 17.5838 13.3087 17.5838 12.9141C17.5838 12.5195 17.2639 12.1997 16.8693 12.1997H6.1296C5.73499 12.1997 5.41504 12.5195 5.41504 12.9141C5.41504 13.3087 5.73499 13.6288 6.1296 13.6288Z" fill="white"/>
<path d="M6.1296 9.03941H16.8693C17.2639 9.03941 17.5838 8.71959 17.5838 8.32498C17.5838 7.93037 17.2639 7.61029 16.8693 7.61029H6.1296C5.73499 7.61029 5.41504 7.93037 5.41504 8.32498C5.41504 8.71959 5.73499 9.03941 6.1296 9.03941Z" fill="white"/>
<path d="M0.71261 39.8075H29.637C30.0305 39.8075 30.3496 39.4884 30.3496 39.0948V11.4063C30.3496 11.4053 30.3494 11.4043 30.3494 11.4034C30.3493 11.3805 30.3481 11.3576 30.3459 11.3353C30.3442 11.3179 30.3413 11.3009 30.3383 11.2838C30.3372 11.278 30.3367 11.272 30.3357 11.2662C30.3316 11.2462 30.3264 11.2262 30.3207 11.2066C30.32 11.204 30.3194 11.2014 30.3187 11.1987C30.3126 11.1792 30.3054 11.1598 30.2979 11.1408C30.2968 11.1383 30.2961 11.1357 30.2952 11.1332C30.2878 11.1153 30.2793 11.098 30.2704 11.081C30.2685 11.0775 30.2671 11.0736 30.2652 11.0701C30.2568 11.0547 30.2475 11.0397 30.2382 11.0248C30.235 11.02 30.2323 11.0148 30.2292 11.0101C30.2202 10.9967 30.2102 10.9839 30.2002 10.971C30.196 10.9655 30.1919 10.9595 30.1875 10.9539C30.1752 10.939 30.1619 10.9247 30.1482 10.9107C30.1456 10.9079 30.1435 10.9051 30.1408 10.9025L20.6392 1.40106C20.6227 1.38457 20.6054 1.36911 20.5877 1.35444C20.583 1.35068 20.5779 1.3473 20.5732 1.34366C20.5596 1.33302 20.5458 1.32237 20.5317 1.31289C20.5275 1.31016 20.523 1.3077 20.5187 1.30497C20.5034 1.2951 20.4878 1.28549 20.4718 1.27679C20.469 1.27523 20.4657 1.27407 20.4629 1.27251C20.4451 1.26329 20.4272 1.25446 20.4087 1.24693C20.4067 1.24602 20.4046 1.24537 20.4026 1.24459C20.3831 1.23667 20.3633 1.22953 20.3433 1.22329C20.3409 1.22265 20.3387 1.22226 20.3364 1.22161C20.3165 1.21563 20.2963 1.21044 20.2758 1.20628C20.2702 1.20525 20.2642 1.20473 20.2586 1.20369C20.2414 1.2007 20.2241 1.19758 20.2067 1.1959C20.1832 1.19343 20.1594 1.19226 20.1355 1.19226H0.71261C0.319039 1.19239 0 1.51143 0 1.905V39.0948C0 39.4884 0.319039 39.8075 0.71261 39.8075ZM27.9168 10.6939L20.8487 10.6947L20.8483 3.62563L27.9168 10.6939ZM1.42522 2.61774H19.4229L19.4234 11.4075C19.4234 11.5965 19.4985 11.7778 19.6321 11.9114C19.7657 12.0449 19.9471 12.1199 20.136 12.1199L28.9245 12.1189V38.3822H1.42522V2.61774Z" fill="white"/>
</svg>
