<svg width="41" height="41" viewBox="0 0 41 41" fill="none" xmlns="http://www.w3.org/2000/svg">
<path d="M32.5067 5.37176H28.7975V3.71239C28.7975 3.17552 28.2118 2.93151 27.675 2.93151H24.7955C24.1122 0.979277 22.404 0.00316009 20.4517 0.00316009C18.521 -0.0694251 16.7648 1.11445 16.108 2.93151H13.2773C12.7404 2.93151 12.2036 3.17552 12.2036 3.71239V5.37176H8.49424C6.29613 5.39521 4.49785 7.12922 4.39453 9.32499V37.2907C4.39453 39.4381 6.34677 40.9999 8.49424 40.9999H32.5067C34.6542 40.9999 36.6064 39.4381 36.6064 37.2907V9.32508C36.5031 7.12922 34.7048 5.39521 32.5067 5.37176ZM14.1557 4.88375H16.84C17.3086 4.82657 17.685 4.47009 17.7674 4.00525C18.0564 2.74655 19.1607 1.84301 20.4517 1.80901C21.7308 1.84778 22.8185 2.75411 23.0872 4.00525C23.1748 4.48616 23.576 4.84722 24.0634 4.88375H26.8453V8.78821H14.1557V4.88375ZM34.6542 37.2908C34.6542 38.3645 33.5804 39.0478 32.5067 39.0478H8.49424C7.4205 39.0478 6.34677 38.3645 6.34677 37.2908V9.32508C6.44635 8.20744 7.3723 7.34454 8.49424 7.32409H12.2035V9.81319C12.255 10.3601 12.7287 10.7691 13.2772 10.7405H27.6749C28.2335 10.7711 28.722 10.3676 28.7974 9.81319V7.32399H32.5066C33.6284 7.34454 34.5545 8.20735 34.6541 9.32499V37.2908H34.6542Z" fill="white"/>
<path d="M16.7423 21.8194C16.3762 21.4335 15.7684 21.4117 15.3757 21.7706L12.2521 24.7477L10.9343 23.3811C10.5682 22.9952 9.96045 22.9736 9.56772 23.3324C9.18966 23.7285 9.18966 24.3516 9.56772 24.7477L11.5687 26.7976C11.7419 26.9915 11.9921 27.0988 12.252 27.0904C12.5094 27.0868 12.755 26.9815 12.9352 26.7976L16.7421 23.186C17.1195 22.8398 17.1447 22.2531 16.7984 21.8758C16.7807 21.8561 16.7619 21.8373 16.7423 21.8194Z" fill="white"/>
<path d="M30.7493 23.918H19.524C18.9849 23.918 18.5479 24.355 18.5479 24.8941C18.5479 25.4332 18.9849 25.8702 19.524 25.8702H30.7493C31.2884 25.8702 31.7254 25.4332 31.7254 24.8941C31.7254 24.355 31.2884 23.918 30.7493 23.918Z" fill="white"/>
<path d="M16.7423 14.0104C16.3762 13.6245 15.7684 13.6028 15.3757 13.9617L12.2521 16.9388L10.9343 15.5722C10.5682 15.1863 9.96045 15.1645 9.56772 15.5234C9.18966 15.9195 9.18966 16.5427 9.56772 16.9388L11.5687 18.9886C11.7419 19.1826 11.9921 19.2898 12.252 19.2815C12.5094 19.2779 12.755 19.1726 12.9352 18.9886L16.7421 15.377C17.1195 15.0308 17.1447 14.4442 16.7984 14.0669C16.7807 14.0471 16.7619 14.0284 16.7423 14.0104Z" fill="white"/>
<path d="M30.7493 16.109H19.524C18.9849 16.109 18.5479 16.546 18.5479 17.0852C18.5479 17.6243 18.9849 18.0613 19.524 18.0613H30.7493C31.2884 18.0613 31.7254 17.6243 31.7254 17.0852C31.7254 16.546 31.2884 16.109 30.7493 16.109Z" fill="white"/>
<path d="M16.7423 29.6282C16.3762 29.2423 15.7684 29.2206 15.3757 29.5794L12.2521 32.5565L10.9343 31.1899C10.5682 30.804 9.96045 30.7824 9.56772 31.1412C9.18966 31.5373 9.18966 32.1605 9.56772 32.5565L11.5687 34.6064C11.7419 34.8003 11.9921 34.9076 12.252 34.8993C12.5094 34.8956 12.755 34.7903 12.9352 34.6064L16.7421 30.9948C17.1195 30.6486 17.1447 30.0619 16.7984 29.6846C16.7807 29.665 16.7619 29.6462 16.7423 29.6282Z" fill="white"/>
<path d="M30.7493 31.7269H19.524C18.9849 31.7269 18.5479 32.1639 18.5479 32.703C18.5479 33.2422 18.9849 33.6792 19.524 33.6792H30.7493C31.2884 33.6792 31.7254 33.2422 31.7254 32.703C31.7254 32.1639 31.2884 31.7269 30.7493 31.7269Z" fill="white"/>
</svg>
