<svg width="41" height="41" viewBox="0 0 41 41" fill="none" xmlns="http://www.w3.org/2000/svg">
<g clip-path="url(#clip0)">
<path d="M35.9566 28.4661C35.0975 27.029 33.8932 26.0294 32.474 25.5752L28.4649 24.2924C28.3329 24.25 28.1975 24.2534 28.0749 24.2927L27.4414 23.3424C27.2517 23.0577 26.8721 22.9725 26.5788 23.1484L26.2674 23.3352V22.416C26.2674 22.3189 26.2451 22.2272 26.2064 22.1446C28.2029 20.3803 29.4777 17.7098 29.4777 14.7261V12.4949C30.3605 10.0604 30.6704 7.71242 30.3714 5.69812C30.0348 3.43068 28.9442 1.75728 27.2172 0.857348C27.2156 0.856467 27.214 0.855667 27.2125 0.854786C27.2092 0.853104 27.2061 0.851262 27.2028 0.849581C27.1972 0.846698 27.1916 0.844616 27.186 0.841973C27.1743 0.836288 27.1626 0.830682 27.1504 0.825717C27.1418 0.822194 27.1331 0.819151 27.1245 0.816028C27.1136 0.812104 27.1027 0.80826 27.0916 0.804897C27.0818 0.801934 27.0718 0.799531 27.0619 0.797049C27.0518 0.794567 27.0417 0.792004 27.0314 0.790082C27.0205 0.78792 27.0095 0.786318 26.9986 0.784717C26.989 0.783355 26.9796 0.781994 26.97 0.781033C26.9581 0.779912 26.9464 0.779351 26.9345 0.778871C26.9256 0.778551 26.9167 0.77807 26.9078 0.77807C26.895 0.77807 26.8822 0.778791 26.8695 0.779592C26.8614 0.780072 26.8534 0.780392 26.8453 0.781273C26.8314 0.782635 26.8177 0.784797 26.8039 0.787119C26.7984 0.788 26.7929 0.7884 26.7874 0.789441C25.2914 1.077 23.8802 0.756209 22.5155 0.446063C20.348 -0.0465825 18.1083 -0.554363 15.7589 1.42567C15.6311 1.4163 15.5028 1.41013 15.3735 1.41013C12.5976 1.41013 10.3315 3.60229 10.2509 6.32666C10.2485 6.34932 10.2471 6.3723 10.2471 6.39561C10.2471 6.41434 10.2477 6.43324 10.2477 6.45206C10.2477 6.46015 10.2471 6.46808 10.2471 6.47617C10.2471 6.48369 10.248 6.49106 10.2482 6.49851C10.2722 9.49194 11.3342 12.9055 11.5428 13.5475V14.7263C11.5428 17.7028 12.8116 20.3677 14.7999 22.1322C14.7574 22.2178 14.7329 22.314 14.7329 22.4161V23.3353L14.4215 23.1484C14.1282 22.9727 13.7486 23.0579 13.5588 23.3425L12.9253 24.2927C12.8027 24.2534 12.6672 24.2501 12.5353 24.2924L8.52613 25.5752C7.10689 26.0294 5.90258 27.0289 5.04349 28.4661C4.26665 29.7655 3.83887 31.3311 3.83887 32.8745V38.4368C3.83887 39.85 4.98864 40.9999 6.40195 40.9999H18.5756C18.5763 40.9999 18.577 41 18.5777 41C18.5788 41 18.58 40.9999 18.5811 40.9999H22.4189C22.4201 40.9999 22.4212 41 22.4223 41C22.423 41 22.4237 40.9999 22.4244 40.9999H34.5981C36.0114 40.9999 37.1612 39.8501 37.1612 38.4368V32.8745C37.1612 31.3311 36.7334 29.7655 35.9566 28.4661ZM30.056 30.9142C30.0684 31.0256 30.0203 31.1365 29.9307 31.2038L27.8055 32.7976C27.657 32.9091 27.564 33.0795 27.5509 33.2647C27.5377 33.4499 27.6056 33.6318 27.7369 33.7632L29.0713 35.0976C29.1826 35.2089 29.1953 35.3877 29.101 35.5136L25.9471 39.7186H23.3611L28.7865 25.8537C28.7998 25.8199 28.8089 25.7851 28.8161 25.75L29.5067 25.9711L30.056 30.9142ZM19.0149 39.7186L18.564 38.5664C18.5643 38.5651 18.5647 38.5638 18.565 38.5624L19.7459 32.658C19.7835 32.6601 19.8212 32.6616 19.8593 32.6616H21.1409C21.179 32.6616 21.2167 32.6601 21.2543 32.658L22.4352 38.5624C22.4354 38.5638 22.4359 38.5651 22.4362 38.5664L21.9853 39.7186H19.0149ZM15.053 39.7186L11.8992 35.5136C11.8048 35.3877 11.8174 35.2088 11.9288 35.0977L13.2632 33.7632C13.3945 33.6318 13.4623 33.45 13.4492 33.2647C13.436 33.0795 13.3431 32.9091 13.1946 32.7976L11.0694 31.2039C10.9797 31.1365 10.9317 31.0256 10.9441 30.9142L11.4934 25.9711L12.184 25.75C12.1913 25.7851 12.2004 25.8199 12.2136 25.8537L17.6389 39.7186H15.053ZM19.8592 28.8167H21.1409C21.4943 28.8167 21.7819 29.1043 21.7819 29.4577V30.7394C21.7819 31.0928 21.4943 31.3804 21.1409 31.3804H19.8593C19.5058 31.3804 19.2183 31.0928 19.2183 30.7394V29.4577C19.2183 29.1043 19.5057 28.8167 19.8592 28.8167ZM23.3007 36.357L22.457 32.1385C22.4824 32.1146 22.507 32.09 22.5311 32.0647L22.5491 32.0918C22.8094 32.4822 23.2264 32.7326 23.6933 32.7788C23.7453 32.7839 23.7971 32.7865 23.8487 32.7865C24.2097 32.7865 24.5574 32.6617 24.8363 32.4325L23.3007 36.357ZM18.4509 32.0919L18.469 32.0648C18.493 32.09 18.5177 32.1146 18.5431 32.1386L17.6994 36.3571L16.1637 32.4326C16.4426 32.662 16.7903 32.7866 17.1513 32.7866C17.2029 32.7866 17.2548 32.784 17.3067 32.7789C17.7736 32.7327 18.1907 32.4823 18.4509 32.0919ZM26.7141 24.5615L27.4717 25.6978L25.9684 29.5394C25.913 29.5686 25.861 29.6065 25.8144 29.653L24.0439 31.4236C23.9629 31.5047 23.8686 31.509 23.8195 31.5037C23.7705 31.4988 23.6788 31.4765 23.6152 31.3811L23.0631 30.5529V29.4576C23.0631 28.5722 22.4611 27.825 21.6449 27.6029L26.7141 24.5615ZM11.5288 6.46047C11.5375 4.38082 13.2586 2.69156 15.3734 2.69156C15.8879 2.69156 16.3869 2.78973 16.8565 2.9832C17.1835 3.11814 17.5581 2.96206 17.6928 2.63494C17.8189 2.32904 17.6907 1.9819 17.4061 1.8279C18.9548 0.952162 20.4367 1.28777 22.2314 1.69561C23.5918 2.0048 25.1258 2.35186 26.7948 2.08744C28.3666 2.99786 28.9194 4.64348 29.1039 5.88654C29.3173 7.32404 29.1645 9.02916 28.6767 10.7945L27.4665 8.64478C27.3373 8.41536 27.0806 8.28827 26.8198 8.32455C26.7488 8.33456 19.6596 9.28638 14.3366 7.08549C14.0096 6.95015 13.635 7.10583 13.4997 7.43271C13.3646 7.75967 13.52 8.13436 13.847 8.26945C18.7742 10.3066 24.878 9.82971 26.5599 9.64633L28.1961 12.5529V12.8044C28.194 12.8044 28.1919 12.8041 28.1897 12.8041H26.2671H22.4225C22.0451 12.8041 21.6887 12.9693 21.4448 13.2572C21.395 13.316 21.3525 13.3794 21.3146 13.445H19.6852C19.6472 13.3794 19.6048 13.316 19.555 13.2572C19.3111 12.9692 18.9546 12.8041 18.5772 12.8041H14.7326H12.9912C13.4054 11.1875 14.448 10.0523 14.4603 10.0391C14.7029 9.78158 14.6908 9.37614 14.4332 9.1335C14.1756 8.89079 13.7702 8.90296 13.5276 9.16057C13.4788 9.21238 12.7689 9.97874 12.2117 11.1882C11.8843 9.85237 11.5379 8.06621 11.5288 6.46047ZM26.2457 14.0856L25.7014 15.3193C25.6999 15.3227 25.6984 15.3261 25.697 15.3295C25.5076 15.7798 25.1576 16.0082 24.6564 16.0082H23.3928C23.0781 16.0082 22.8122 15.7829 22.7605 15.4726C22.7579 15.4571 22.7547 15.4416 22.7509 15.4263L22.4242 14.0854L26.2457 14.0856ZM18.5759 14.0856L18.2491 15.4262C18.2454 15.4416 18.2423 15.457 18.2396 15.4726C18.1879 15.7829 17.9219 16.0081 17.6073 16.0081H16.3437C15.8426 16.0081 15.4925 15.7797 15.3031 15.3294C15.3017 15.326 15.3002 15.3226 15.2987 15.3192L14.7543 14.0853L18.5759 14.0856ZM12.824 14.7264V14.0856V14.0853H13.4531C13.4531 14.1555 13.4571 14.2259 13.4688 14.2963C13.4776 14.349 13.4929 14.4005 13.5146 14.4495L14.1244 15.8317C14.5163 16.7581 15.3249 17.2895 16.3437 17.2895H17.6073C18.5422 17.2895 19.3337 16.6262 19.499 15.7089L19.7385 14.7262H21.2616L21.5011 15.7089C21.6664 16.6263 22.4579 17.2895 23.3927 17.2895H24.6563C25.6752 17.2895 26.4837 16.7583 26.8756 15.8318L27.4854 14.4495C27.5071 14.4005 27.5224 14.349 27.5313 14.2963C27.5429 14.226 27.5469 14.1555 27.5469 14.0853H28.1898C28.192 14.0853 28.1941 14.085 28.1962 14.085V14.7264C28.1962 19.32 24.7483 23.0572 20.5101 23.0572C16.2719 23.0572 12.824 19.32 12.824 14.7264ZM16.0141 23.0403C17.3367 23.8653 18.8728 24.3385 20.5102 24.3385C22.1391 24.3385 23.668 23.8703 24.986 23.0531V24.1041L20.5001 26.7957L16.0141 24.1041V23.0403ZM14.286 24.5615L19.3551 27.6031C18.539 27.8251 17.9369 28.5723 17.9369 29.4578V30.5531L17.3848 31.3813C17.3212 31.4766 17.2294 31.4991 17.1804 31.5039C17.1315 31.5092 17.0372 31.5048 16.956 31.4236L15.1856 29.6532C15.139 29.6066 15.0869 29.5688 15.0316 29.5395L13.5283 25.698L14.286 24.5615ZM5.12013 38.4368V32.8745C5.12013 29.6811 7.03001 27.3993 8.91659 26.7956L10.1567 26.3988L9.67069 30.7726C9.60847 31.3327 9.84983 31.8906 10.3007 32.2289L11.8349 33.3795L11.0227 34.1917C10.4636 34.7508 10.3997 35.6497 10.8742 36.2823L13.4515 39.7186H6.40203C5.69518 39.7186 5.12013 39.1436 5.12013 38.4368ZM35.88 38.4368C35.88 39.1436 35.3049 39.7186 34.5981 39.7186H27.5487L30.1261 36.2823C30.6004 35.6496 30.5365 34.7508 29.9774 34.1916L29.1653 33.3795L30.6994 32.2289C31.1503 31.8907 31.3917 31.3327 31.3295 30.7726L30.8435 26.3988L32.0835 26.7956C33.9701 27.3992 35.88 29.6811 35.88 32.8745V38.4368Z" fill="white"/>
</g>
<defs>
<clipPath id="clip0">
<rect width="41" height="41" fill="white"/>
</clipPath>
</defs>
</svg>
