<svg width="32" height="32" viewBox="0 0 32 32" fill="none" xmlns="http://www.w3.org/2000/svg">
<path fill-rule="evenodd" clip-rule="evenodd" d="M0 0V32H32V0H0ZM13.4716 9.40376C14.1258 9.37398 14.3349 9.3667 16.0006 9.3667H15.9987C17.6649 9.3667 17.8732 9.37398 18.5274 9.40376C19.1804 9.43366 19.6263 9.53703 20.0173 9.6887C20.4211 9.84523 20.7623 10.0548 21.1034 10.396C21.4446 10.7369 21.6542 11.0791 21.8113 11.4825C21.9621 11.8724 22.0656 12.3181 22.0963 12.9711C22.1257 13.6253 22.1333 13.8344 22.1333 15.5001C22.1333 17.1658 22.1257 17.3744 22.0963 18.0286C22.0656 18.6813 21.9621 19.1271 21.8113 19.5172C21.6542 19.9205 21.4446 20.2627 21.1034 20.6036C20.7627 20.9448 20.421 21.1548 20.0177 21.3115C19.6275 21.4632 19.1813 21.5665 18.5283 21.5964C17.8741 21.6262 17.6657 21.6335 15.9998 21.6335C14.3342 21.6335 14.1253 21.6262 13.4711 21.5964C12.8182 21.5665 12.3724 21.4632 11.9822 21.3115C11.579 21.1548 11.2369 20.9448 10.8961 20.6036C10.555 20.2627 10.3455 19.9205 10.1887 19.5171C10.0371 19.1271 9.93376 18.6814 9.90373 18.0285C9.87409 17.3742 9.86668 17.1658 9.86668 15.5001C9.86668 13.8344 9.87434 13.6252 9.9036 12.971C9.93299 12.3183 10.0365 11.8724 10.1886 11.4823C10.3457 11.0791 10.5553 10.7369 10.8964 10.396C11.2374 10.0549 11.5796 9.84536 11.983 9.6887C12.3729 9.53703 12.8186 9.43366 13.4716 9.40376Z" fill="#AC946B"/>
<path fill-rule="evenodd" clip-rule="evenodd" d="M15.4505 10.472C15.5574 10.4718 15.6723 10.4719 15.7963 10.4719L16.0008 10.472C17.6384 10.472 17.8325 10.4779 18.4792 10.5073C19.0772 10.5346 19.4017 10.6345 19.6179 10.7185C19.9042 10.8296 20.1082 10.9625 20.3228 11.1772C20.5374 11.3919 20.6703 11.5963 20.7817 11.8825C20.8657 12.0985 20.9658 12.4231 20.993 13.0211C21.0224 13.6676 21.0287 13.8618 21.0287 15.4987C21.0287 17.1355 21.0224 17.3298 20.993 17.9763C20.9656 18.5743 20.8657 18.8989 20.7817 19.1148C20.6706 19.4011 20.5374 19.6049 20.3228 19.8194C20.1081 20.0341 19.9043 20.167 19.6179 20.2781C19.402 20.3625 19.0772 20.4621 18.4792 20.4895C17.8326 20.5189 17.6384 20.5253 16.0008 20.5253C14.363 20.5253 14.1689 20.5189 13.5224 20.4895C12.9244 20.4619 12.5998 20.362 12.3835 20.278C12.0972 20.1668 11.8928 20.034 11.6781 19.8193C11.4635 19.6046 11.3306 19.4007 11.2191 19.1143C11.1352 18.8984 11.0351 18.5738 11.0079 17.9758C10.9785 17.3293 10.9727 17.135 10.9727 15.4972C10.9727 13.8593 10.9785 13.6661 11.0079 13.0195C11.0353 12.4215 11.1352 12.097 11.2191 11.8808C11.3303 11.5945 11.4635 11.3901 11.6781 11.1754C11.8928 10.9607 12.0972 10.8279 12.3835 10.7164C12.5997 10.6321 12.9244 10.5324 13.5224 10.505C14.0882 10.4794 14.3074 10.4717 15.4505 10.4705V10.472ZM19.2747 11.4905C18.8684 11.4905 18.5387 11.8198 18.5387 12.2262C18.5387 12.6326 18.8684 12.9622 19.2747 12.9622C19.6811 12.9622 20.0107 12.6326 20.0107 12.2262C20.0107 11.8199 19.6811 11.4902 19.2747 11.4902V11.4905ZM12.851 15.5001C12.851 13.7607 14.2612 12.3504 16.0006 12.3503C17.7401 12.3503 19.15 13.7606 19.15 15.5001C19.15 17.2396 17.7402 18.6492 16.0008 18.6492C14.2613 18.6492 12.851 17.2396 12.851 15.5001Z" fill="#AC946B"/>
<path d="M16.0005 13.4556C17.1296 13.4556 18.045 14.3708 18.045 15.5C18.045 16.6291 17.1296 17.5445 16.0005 17.5445C14.8713 17.5445 13.9561 16.6291 13.9561 15.5C13.9561 14.3708 14.8713 13.4556 16.0005 13.4556V13.4556Z" fill="#AC946B"/>
</svg>
