<svg width="32" height="32" viewBox="0 0 32 32" fill="none" xmlns="http://www.w3.org/2000/svg">
<g clip-path="url(#clip0)">
<path d="M16.5 6.91414e-06C10.1836 6.91414e-06 0 0 0 0L5.06639e-06 32.0001H32V4.17233e-05C32 4.17233e-05 22.8164 6.91414e-06 16.5 6.91414e-06ZM23.69 20.3591L23.1549 20.8941C22.3979 21.6511 20.657 21.5911 19.5384 21.3751C15.8188 20.6567 11.4823 16.4534 10.6459 12.8133C10.2318 11.0101 10.4605 9.4424 11.0585 8.8442L11.5935 8.30917C11.8888 8.01402 12.3686 8.01437 12.6636 8.30917L14.804 10.4498C14.9469 10.5926 15.0251 10.782 15.0251 10.9847C15.0251 11.1873 14.9469 11.3768 14.804 11.5192L14.2692 12.0547C13.6796 12.6457 13.6796 13.6057 14.2692 14.1953L17.8038 17.6835C18.3951 18.2748 19.3522 18.2755 19.9444 17.6835L20.4795 17.1486C20.7557 16.8708 21.2716 16.8699 21.55 17.1486L23.69 19.2885C23.9806 19.5779 23.9916 20.0573 23.69 20.3591Z" fill="#AC946B"/>
</g>
<defs>
<clipPath id="clip0">
<rect width="32" height="32" fill="white"/>
</clipPath>
</defs>
</svg>
