<svg width="32" height="32" viewBox="0 0 32 32" fill="none" xmlns="http://www.w3.org/2000/svg">
<path fill-rule="evenodd" clip-rule="evenodd" d="M0 0L2.82377e-06 32H32V0H0ZM17.3028 21.6388C17.145 21.811 16.837 21.8458 16.837 21.8458H15.8169C15.8169 21.8458 13.5665 21.9833 11.584 19.8855C9.42206 17.5967 7.51303 13.0557 7.51303 13.0557C7.51303 13.0557 7.40284 12.7578 7.52221 12.6144C7.6566 12.4523 8.02305 12.4421 8.02305 12.4421L10.4613 12.426C10.4613 12.426 10.6909 12.4642 10.8553 12.5872C10.9914 12.6891 11.0673 12.8783 11.0673 12.8783C11.0673 12.8783 11.4613 13.8916 11.983 14.8081C13.0022 16.5979 13.4763 16.9891 13.8219 16.7973C14.3261 16.5181 14.175 14.2675 14.175 14.2675C14.175 14.2675 14.1842 13.4511 13.9213 13.0871C13.7176 12.8053 13.3336 12.723 13.1642 12.7001C13.0264 12.6814 13.2518 12.3573 13.544 12.2121C13.983 11.994 14.7577 11.9813 15.6734 11.9906C16.3871 11.9983 16.5924 12.0433 16.8712 12.112C17.5183 12.2707 17.4981 12.7795 17.4545 13.8774C17.4414 14.2058 17.4263 14.5869 17.4263 15.0271C17.4263 15.126 17.4235 15.2314 17.4205 15.3399C17.4054 15.9024 17.3881 16.5465 17.7527 16.7863C17.9397 16.9085 18.3963 16.8041 19.539 14.8319C20.0807 13.8967 20.4864 12.7977 20.4864 12.7977C20.4864 12.7977 20.5757 12.6017 20.7135 12.5176C20.8545 12.4319 21.0449 12.4582 21.0449 12.4582L23.6108 12.4421C23.6108 12.4421 24.3821 12.3479 24.5065 12.7027C24.6375 13.0735 24.2185 13.9408 23.1701 15.3614C22.1737 16.7119 21.6898 17.2075 21.7363 17.647C21.7701 17.9668 22.0846 18.2568 22.6868 18.8247C23.947 20.0142 24.2848 20.6401 24.366 20.7905C24.3727 20.8029 24.3777 20.8121 24.3813 20.8181C24.9464 21.7711 23.7544 21.8458 23.7544 21.8458L21.4747 21.8781C21.4747 21.8781 20.9856 21.9765 20.3412 21.5267C20.0036 21.2913 19.6738 20.9068 19.3596 20.5406C18.8798 19.9814 18.4365 19.4647 18.0582 19.5868C17.423 19.7921 17.4422 21.183 17.4422 21.183C17.4422 21.183 17.4472 21.4809 17.3028 21.6388Z" fill="#AC946B"/>
</svg>
