<svg width="57" height="57" viewBox="0 0 57 57" fill="none" xmlns="http://www.w3.org/2000/svg">
<path d="M40.9688 28.5H33.8438C32.8599 28.5 32.0625 29.2974 32.0625 30.2812V44.5312C32.0625 45.5151 32.8599 46.3125 33.8438 46.3125H40.9688C42.9363 46.3125 44.5312 44.7175 44.5312 42.75V32.0625C44.5312 30.095 42.9363 28.5 40.9688 28.5ZM40.9688 42.75H35.625V32.0625H40.9688V42.75Z" fill="#005FA3"/>
<path d="M57 32.0625V28.5H48.0938C47.1099 28.5 46.3125 29.2974 46.3125 30.2812V46.3125H49.875V39.1875H57V35.625H49.875V32.0625H57Z" fill="#005FA3"/>
<path d="M3.5625 51.6563V5.34378C3.5625 4.35997 4.35994 3.56253 5.34375 3.56253H32.0625V10.6875C32.0625 12.655 33.6575 14.25 35.625 14.25H42.75V19.5938H46.3125V12.4688C46.3153 11.9953 46.1294 11.5402 45.7959 11.2041L35.1084 0.516591C34.7723 0.183163 34.3172 -0.00264345 33.8438 2.8422e-05H5.34375C2.39244 2.8422e-05 0 2.39258 0 5.34378V51.6563C0 54.6076 2.39244 57 5.34375 57H17.8125V53.4375H5.34375C4.36005 53.4375 3.5625 52.6401 3.5625 51.6563Z" fill="#005FA3"/>
<path d="M26.7188 28.5H19.5938C18.6099 28.5 17.8125 29.2974 17.8125 30.2812V46.3125H21.375V40.9688H26.7188C28.6863 40.9688 30.2812 39.3738 30.2812 37.4062V32.0625C30.2812 30.095 28.6863 28.5 26.7188 28.5ZM26.7188 37.4062H21.375V32.0625H26.7188V37.4062Z" fill="#005FA3"/>
</svg>
