<svg width="183" height="28" viewBox="0 0 183 28" fill="none" xmlns="http://www.w3.org/2000/svg">
<path d="M6.57685 23.115H20.5417V27.6257H0V0.374332H6.57685V23.115Z" fill="#2B2B2B"/>
<path d="M49.151 14.6176C49.151 17.3004 48.5956 19.6524 47.4849 21.6738C46.3741 23.6952 44.7811 25.2549 42.7057 26.3529C40.6449 27.451 38.2773 28 35.6027 28C32.9573 28 30.597 27.4572 28.5216 26.3717C26.4463 25.2861 24.8386 23.7389 23.6986 21.7299C22.5586 19.7086 21.9813 17.3877 21.9667 14.7674V13.4198C21.9667 10.7371 22.5294 8.37879 23.6547 6.34492C24.7947 4.29857 26.3951 2.73262 28.4558 1.64706C30.5312 0.54902 32.8989 0 35.5588 0C38.2188 0 40.5792 0.54902 42.6399 1.64706C44.7153 2.73262 46.3157 4.29857 47.441 6.34492C48.581 8.37879 49.151 10.7308 49.151 13.4011V14.6176ZM42.4865 13.3824C42.4865 10.525 41.8872 8.35383 40.6888 6.86898C39.4903 5.38414 37.7804 4.64171 35.5588 4.64171C33.3519 4.64171 31.6493 5.3779 30.4508 6.85027C29.2524 8.31016 28.6458 10.4563 28.6312 13.2888V14.6176C28.6312 17.4002 29.2305 19.5588 30.4289 21.0936C31.6273 22.6283 33.3519 23.3957 35.6027 23.3957C37.8096 23.3957 39.505 22.6595 40.6888 21.1872C41.8726 19.7023 42.4719 17.5437 42.4865 14.7112V13.3824Z" fill="#2B2B2B"/>
<path d="M79.1853 24.1818C78.0015 25.3922 76.328 26.3342 74.165 27.008C72.0019 27.6693 69.605 28 66.9743 28C64.212 28 61.7859 27.4884 59.6959 26.4652C57.6205 25.4296 56.0129 23.9323 54.8729 21.9733C53.7475 20.0143 53.1702 17.7121 53.141 15.0668V13.2139C53.141 10.4938 53.6744 8.14171 54.7413 6.15775C55.8229 4.16132 57.3721 2.63904 59.389 1.59091C61.4205 0.530303 63.7955 0 66.5139 0C70.2992 0 73.2588 0.773618 75.3926 2.32086C77.5265 3.85562 78.7907 6.09537 79.1853 9.04011H72.7838C72.4915 7.48039 71.8411 6.33868 70.8327 5.61497C69.8389 4.89127 68.465 4.52941 66.7112 4.52941C64.4751 4.52941 62.7724 5.24688 61.6032 6.68182C60.434 8.11676 59.842 10.2504 59.8274 13.0829V14.8235C59.8274 17.6809 60.4632 19.8396 61.7347 21.2995C63.0062 22.7594 64.8697 23.4893 67.325 23.4893C69.795 23.4893 71.5561 23.0401 72.6084 22.1417V17.4439H66.6235V13.3075H79.1853V24.1818Z" fill="#2B2B2B"/>
<path d="M110.754 14.6176C110.754 17.3004 110.199 19.6524 109.088 21.6738C107.977 23.6952 106.384 25.2549 104.309 26.3529C102.248 27.451 99.8805 28 97.2059 28C94.5605 28 92.2002 27.4572 90.1248 26.3717C88.0494 25.2861 86.4418 23.7389 85.3018 21.7299C84.1618 19.7086 83.5845 17.3877 83.5699 14.7674V13.4198C83.5699 10.7371 84.1326 8.37879 85.2579 6.34492C86.3979 4.29857 87.9983 2.73262 90.059 1.64706C92.1344 0.54902 94.5021 0 97.162 0C99.822 0 102.182 0.54902 104.243 1.64706C106.318 2.73262 107.919 4.29857 109.044 6.34492C110.184 8.37879 110.754 10.7308 110.754 13.4011V14.6176ZM104.09 13.3824C104.09 10.525 103.49 8.35383 102.292 6.86898C101.094 5.38414 99.3835 4.64171 97.162 4.64171C94.9551 4.64171 93.2525 5.3779 92.054 6.85027C90.8556 8.31016 90.249 10.4563 90.2344 13.2888V14.6176C90.2344 17.4002 90.8336 19.5588 92.0321 21.0936C93.2305 22.6283 94.9551 23.3957 97.2059 23.3957C99.4128 23.3957 101.108 22.6595 102.292 21.1872C103.476 19.7023 104.075 17.5437 104.09 14.7112V13.3824Z" fill="#2B2B2B"/>
<path d="M141 4.54813H131.223V27.2513H124.646V4.54813H115V0H141V4.54813Z" fill="#005FA3"/>
<path d="M151.765 27.2513H145.188V0H151.765V27.2513Z" fill="#005FA3"/>
<path d="M164.458 17.6497V27.2513H157.881V0H170.333C172.73 0 174.835 0.374332 176.647 1.12299C178.474 1.87166 179.877 2.9385 180.856 4.32353C181.835 5.69608 182.325 7.26203 182.325 9.02139C182.325 11.6916 181.251 13.8004 179.102 15.3476C176.969 16.8824 174.009 17.6497 170.224 17.6497H164.458ZM164.458 13.1016H170.333C172.072 13.1016 173.395 12.7522 174.301 12.0535C175.222 11.3547 175.682 10.3565 175.682 9.05882C175.682 7.72371 175.222 6.64439 174.301 5.82086C173.381 4.99733 172.109 4.57308 170.487 4.54813H164.458V13.1016Z" fill="#005FA3"/>
</svg>
