<svg width="21" height="21" viewBox="0 0 21 21" fill="none" xmlns="http://www.w3.org/2000/svg">
<path d="M10.4854 0C6.24158 0 2.78906 3.45252 2.78906 7.69636C2.78906 9.64588 4.01745 12.4003 6.44025 15.8833C8.21114 18.4293 9.95286 20.3995 10.0262 20.4822L10.4854 21L10.9448 20.4822C11.018 20.3995 12.7597 18.4293 14.5307 15.8833C16.9534 12.4003 18.1819 9.64588 18.1819 7.69636C18.1819 3.45252 14.7293 0 10.4854 0V0ZM13.5295 15.1723C12.3326 16.8943 11.1228 18.3763 10.4854 19.1323C9.84968 18.3784 8.64436 16.902 7.44818 15.1822C5.20338 11.9551 4.01681 9.36646 4.01681 7.69636C4.01681 4.1296 6.91866 1.22775 10.4854 1.22775C14.0523 1.22775 16.954 4.1296 16.954 7.69636C16.954 9.3647 15.7699 11.9498 13.5295 15.1723Z" fill="#005FA3"/>
<path d="M10.4857 2.84448C7.981 2.84448 5.94336 4.88213 5.94336 7.3868C5.94336 9.89148 7.981 11.9293 10.4857 11.9293C12.9905 11.9293 15.0282 9.89148 15.0282 7.3868C15.0282 4.88213 12.9905 2.84448 10.4857 2.84448V2.84448ZM10.4857 10.7015C8.65808 10.7015 7.1711 9.21456 7.1711 7.3868C7.1711 5.5592 8.65808 4.07223 10.4857 4.07223C12.3134 4.07223 13.8004 5.5592 13.8004 7.3868C13.8004 9.21456 12.3134 10.7015 10.4857 10.7015Z" fill="#005FA3"/>
</svg>
