<svg width="157" height="25" viewBox="0 0 157 25" fill="none" xmlns="http://www.w3.org/2000/svg">
<path d="M5.66332 19.9043H17.6884V23.7885H0V0.322337H5.66332V19.9043Z" fill="#2B2B2B"/>
<path d="M42.3239 12.5872C42.3239 14.8973 41.8457 16.9227 40.8892 18.6633C39.9327 20.4039 38.5609 21.747 36.7738 22.6925C34.9993 23.638 32.9605 24.1108 30.6575 24.1108C28.3795 24.1108 26.347 23.6434 24.5599 22.7086C22.7729 21.7738 21.3885 20.4415 20.4068 18.7116C19.4252 16.971 18.9281 14.9725 18.9155 12.7162V11.5558C18.9155 9.24569 19.4 7.21497 20.3691 5.46361C21.3507 3.7015 22.7288 2.35306 24.5033 1.41828C26.2904 0.472761 28.3292 0 30.6197 0C32.9102 0 34.9427 0.472761 36.7172 1.41828C38.5043 2.35306 39.8824 3.7015 40.8514 5.46361C41.8331 7.21497 42.3239 9.24032 42.3239 11.5397V12.5872ZM36.5851 11.5235C36.5851 9.06303 36.0691 7.19348 35.0371 5.91488C34.0051 4.63628 32.5326 3.99698 30.6197 3.99698C28.7193 3.99698 27.2532 4.6309 26.2212 5.89876C25.1892 7.15588 24.6669 9.00394 24.6543 11.443V12.5872C24.6543 14.9833 25.1703 16.8421 26.2023 18.1637C27.2343 19.4853 28.7193 20.146 30.6575 20.146C32.5578 20.146 34.0177 19.5121 35.0371 18.2443C36.0565 16.9657 36.5725 15.1068 36.5851 12.6678V11.5235Z" fill="#2B2B2B"/>
<path d="M68.1864 20.823C67.167 21.8652 65.726 22.6764 63.8634 23.2566C62.0008 23.8261 59.9368 24.1108 57.6715 24.1108C55.2929 24.1108 53.2038 23.6703 51.4041 22.7892C49.617 21.8974 48.2326 20.6081 47.251 18.9212C46.2819 17.2343 45.7848 15.2519 45.7597 12.9741V11.3785C45.7597 9.03617 46.219 7.01082 47.1377 5.30244C48.069 3.58331 49.4031 2.27247 51.1398 1.36993C52.8892 0.456644 54.9342 0 57.2751 0C60.5346 0 63.0831 0.666163 64.9206 1.99849C66.758 3.32007 67.8466 5.24872 68.1864 7.78443H62.6741C62.4224 6.44136 61.8624 5.45824 60.994 4.83505C60.1382 4.21187 58.9552 3.90027 57.445 3.90027C55.5195 3.90027 54.0533 4.51809 53.0465 5.75371C52.0397 6.98934 51.53 8.82665 51.5174 11.2657V12.7645C51.5174 15.225 52.0648 17.0838 53.1597 18.341C54.2546 19.5981 55.8593 20.2266 57.9736 20.2266C60.1005 20.2266 61.617 19.8398 62.5231 19.0662V15.0209H57.3695V11.4591H68.1864V20.823Z" fill="#2B2B2B"/>
<path d="M95.3704 12.5872C95.3704 14.8973 94.8921 16.9227 93.9357 18.6633C92.9792 20.4039 91.6074 21.747 89.8203 22.6925C88.0458 23.638 86.007 24.1108 83.7039 24.1108C81.426 24.1108 79.3935 23.6434 77.6064 22.7086C75.8193 21.7738 74.435 20.4415 73.4533 18.7116C72.4717 16.971 71.9746 14.9725 71.962 12.7162V11.5558C71.962 9.24569 72.4465 7.21497 73.4156 5.46361C74.3972 3.7015 75.7753 2.35306 77.5498 1.41828C79.3369 0.472761 81.3757 0 83.6662 0C85.9567 0 87.9892 0.472761 89.7637 1.41828C91.5508 2.35306 92.9289 3.7015 93.8979 5.46361C94.8796 7.21497 95.3704 9.24032 95.3704 11.5397V12.5872ZM89.6315 11.5235C89.6315 9.06303 89.1156 7.19348 88.0836 5.91488C87.0516 4.63628 85.5791 3.99698 83.6662 3.99698C81.7658 3.99698 80.2996 4.6309 79.2677 5.89876C78.2357 7.15588 77.7134 9.00394 77.7008 11.443V12.5872C77.7008 14.9833 78.2168 16.8421 79.2488 18.1637C80.2808 19.4853 81.7658 20.146 83.7039 20.146C85.6043 20.146 87.0642 19.5121 88.0836 18.2443C89.103 16.9657 89.619 15.1068 89.6315 12.6678V11.5235Z" fill="#2B2B2B"/>
<path d="M121.415 3.91639H112.996V23.4661H107.333V3.91639H99.0264V0H121.415V3.91639Z" fill="#005FA3"/>
<path d="M130.684 23.4661H125.021V0H130.684V23.4661Z" fill="#005FA3"/>
<path d="M141.615 15.1982V23.4661H135.951V0H146.674C148.738 0 150.55 0.322337 152.111 0.96701C153.684 1.61168 154.892 2.53034 155.735 3.72299C156.578 4.90489 157 6.25333 157 7.76832C157 10.0677 156.075 11.8835 154.225 13.2158C152.387 14.5374 149.839 15.1982 146.579 15.1982H141.615ZM141.615 11.2818H146.674C148.171 11.2818 149.31 10.9809 150.091 10.3792C150.884 9.77755 151.28 8.91798 151.28 7.80055C151.28 6.65088 150.884 5.72148 150.091 5.01234C149.298 4.3032 148.203 3.93788 146.806 3.91639H141.615V11.2818Z" fill="#005FA3"/>
</svg>
