<svg width="31" height="24" viewBox="0 0 31 24" fill="none" xmlns="http://www.w3.org/2000/svg">
<path d="M27.2156 0H3.79081C1.69977 0 0 1.7292 0 3.85644V20.1436C0 22.2708 1.69977 24 3.79081 24H27.2092C29.3002 24 31 22.2708 31 20.1436V3.86297C31.0064 1.73573 29.3066 0 27.2156 0ZM29.2746 20.1436C29.2746 21.2985 28.3509 22.2382 27.2156 22.2382H3.79081C2.65549 22.2382 1.73184 21.2985 1.73184 20.1436V3.86297C1.73184 2.70799 2.65549 1.76835 3.79081 1.76835H27.2092C28.3445 1.76835 29.2681 2.70799 29.2681 3.86297V20.1436H29.2746Z" fill="white"/>
<path d="M19.5507 11.7977L27.1323 4.88092C27.4851 4.55466 27.5171 4.00001 27.1964 3.63459C26.8757 3.2757 26.3305 3.24307 25.9713 3.56934L15.5161 13.1158L13.4764 11.2627C13.47 11.2561 13.4636 11.2496 13.4636 11.2431C13.4187 11.1974 13.3738 11.1582 13.3224 11.1191L5.02243 3.56281C4.66323 3.23655 4.11802 3.26917 3.79731 3.63459C3.4766 4.00001 3.50867 4.55466 3.86787 4.88092L11.5393 11.8565L3.89994 19.1321C3.55357 19.4649 3.53433 20.0196 3.86145 20.3785C4.03464 20.5612 4.26555 20.6591 4.49646 20.6591C4.70813 20.6591 4.9198 20.5808 5.08657 20.4242L12.8414 13.0441L14.9452 14.956C15.112 15.106 15.3173 15.1778 15.5225 15.1778C15.7278 15.1778 15.9395 15.0995 16.0998 14.9494L18.2614 12.9788L25.9713 20.4307C26.1381 20.5938 26.3562 20.6721 26.5678 20.6721C26.7987 20.6721 27.0232 20.5808 27.1964 20.3981C27.5236 20.0457 27.5107 19.4845 27.1644 19.1517L19.5507 11.7977Z" fill="white"/>
</svg>
