<svg width="12" height="21" viewBox="0 0 12 21" fill="none" xmlns="http://www.w3.org/2000/svg">
<path d="M10.6048 0H1.39524C0.627976 0 0 0.6378 0 1.4184V19.581C0 20.3616 0.627976 21 1.39524 21H10.6048C11.372 21 12 20.3628 12 19.5816V1.4184C12 0.6378 11.372 0 10.6048 0ZM4.52685 1.0224H7.47315C7.5664 1.0224 7.64194 1.0992 7.64194 1.1946C7.64194 1.2894 7.5664 1.3662 7.47315 1.3662H4.52685C4.4336 1.3662 4.35806 1.2894 4.35806 1.1946C4.35806 1.0992 4.4336 1.0224 4.52685 1.0224ZM6 20.2908C5.6146 20.2908 5.30238 19.9734 5.30238 19.581C5.30238 19.1886 5.6146 18.8718 6 18.8718C6.3854 18.8718 6.69762 19.1886 6.69762 19.581C6.69762 19.9734 6.3854 20.2908 6 20.2908ZM11.0291 18.375H0.970883V2.2494H11.0291V18.375Z" fill="#005FA3"/>
</svg>
