<svg width="17" height="17" viewBox="0 0 17 17" fill="none" xmlns="http://www.w3.org/2000/svg">
<path d="M8.5 1.71992C4.76133 1.71992 1.71992 4.76133 1.71992 8.5C1.71992 12.2387 4.76133 15.2801 8.5 15.2801C12.2387 15.2801 15.2801 12.2387 15.2801 8.5C15.2801 4.76133 12.2387 1.71992 8.5 1.71992ZM8.5 16.6348C4.01426 16.6348 0.365234 12.9857 0.365234 8.5C0.365234 4.01426 4.01426 0.365234 8.5 0.365234C12.9857 0.365234 16.6348 4.01426 16.6348 8.5C16.6348 12.9857 12.9857 16.6348 8.5 16.6348Z" fill="#005FA3"/>
<path d="M11.4256 9.17741H8.5004C8.12521 9.17741 7.82306 8.87526 7.82306 8.50006V3.2606C7.82306 2.8854 8.12521 2.58325 8.5004 2.58325C8.8756 2.58325 9.17775 2.8854 9.17775 3.2606V7.82272H11.4256C11.8008 7.82272 12.1029 8.12487 12.1029 8.50006C12.1029 8.87526 11.8008 9.17741 11.4256 9.17741Z" fill="#005FA3"/>
</svg>
