<svg width="17" height="17" viewBox="0 0 17 17" fill="none" xmlns="http://www.w3.org/2000/svg">
<path d="M15.5059 2.02539H3.48633C2.66246 2.02539 1.99219 2.69566 1.99219 3.51953V4.01758H1.49414C0.666719 4.01758 0 4.692 0 5.51172V13.4805C0 14.3043 0.670404 14.9746 1.49414 14.9746H13.5137C14.3379 14.9746 15.0078 14.3025 15.0078 13.4805V12.9824H15.5059C16.3297 12.9824 17 12.3122 17 11.4883V3.51953C17 2.69566 16.3297 2.02539 15.5059 2.02539ZM13.2631 5.01367L7.85729 10.4258C7.76309 10.5206 7.63758 10.5729 7.50391 10.5729C7.37023 10.5729 7.24472 10.5206 7.14956 10.4248L1.74469 5.01367H13.2631ZM0.996094 13.1919V5.67372L4.5812 9.26301L0.996094 13.1919ZM13.5137 13.9785H1.62675L5.2859 9.96851L6.44386 11.1278C6.72646 11.4123 7.10295 11.569 7.50394 11.569C7.90493 11.569 8.28142 11.4123 8.56302 11.1288L9.79798 9.89241L13.5423 13.9771C13.5328 13.9776 13.5233 13.9785 13.5137 13.9785ZM14.0117 13.0151L10.5026 9.18694L14.0117 5.67372V13.0151ZM16.0039 11.4883C16.0039 11.7629 15.7805 11.9863 15.5059 11.9863H15.0078V5.51172C15.0078 4.69104 14.3401 4.01758 13.5137 4.01758H2.98828V3.51953C2.98828 3.24491 3.2117 3.02148 3.48633 3.02148H15.5059C15.7805 3.02148 16.0039 3.24491 16.0039 3.51953V11.4883Z" fill="#005FA3"/>
</svg>
