<svg width="19" height="19" viewBox="0 0 19 19" fill="none" xmlns="http://www.w3.org/2000/svg">
<path d="M18.3496 5.14176L13.5091 0.111996C13.4402 0.0404492 13.3451 0 13.2458 0H6.03136C5.22397 0 4.56709 0.656613 4.56709 1.46367V6.57693H1.64336C1.03929 6.57693 0.547852 7.06822 0.547852 7.67214V13.1548C0.547852 13.7587 1.03929 14.25 1.64336 14.25H4.56709V17.5389C4.56709 18.3445 5.22397 19 6.03136 19H16.9875C17.7948 19 18.4517 18.3449 18.4517 17.5397V5.39515C18.4517 5.30067 18.4151 5.20986 18.3496 5.14176ZM13.3363 0.986404L17.31 5.11538H13.3363V0.986404ZM1.64336 13.5192C1.44222 13.5192 1.27865 13.3558 1.27865 13.1548V7.67214C1.27865 7.47119 1.44226 7.30769 1.64336 7.30769H11.5101C11.7112 7.30769 11.8748 7.47119 11.8748 7.67214V13.1548C11.8748 13.3558 11.7112 13.5192 11.5101 13.5192H1.64336ZM17.7209 17.5397C17.7209 17.942 17.3919 18.2692 16.9874 18.2692H6.03136C5.6269 18.2692 5.29785 17.9416 5.29785 17.5389V14.25H11.5101C12.1141 14.25 12.6056 13.7587 12.6056 13.1548V7.67214C12.6056 7.06822 12.1141 6.57693 11.5101 6.57693H5.29785V1.46367C5.29785 1.05951 5.6269 0.730758 6.03136 0.730758H12.6055V5.48076C12.6055 5.68256 12.7692 5.84614 12.9709 5.84614H17.7209V17.5397Z" fill="#005FA3"/>
<path d="M9.15128 10.3748V10.9036H9.87706V11.3019C9.78143 11.3761 9.66687 11.4392 9.53343 11.4914C9.39998 11.5435 9.26687 11.5695 9.13413 11.5695C8.86579 11.5695 8.64885 11.4764 8.48331 11.2901C8.31772 11.1039 8.23497 10.8245 8.23497 10.4519C8.23497 10.1066 8.31669 9.84602 8.48012 9.67046C8.64355 9.49489 8.86368 9.40709 9.14059 9.40709C9.32328 9.40709 9.47565 9.45177 9.59766 9.54091C9.71968 9.63016 9.8028 9.75184 9.84711 9.90596L10.4765 9.78821C10.4137 9.4999 10.2728 9.27402 10.0537 9.11059C9.83461 8.94716 9.53024 8.86548 9.14059 8.86548C8.84086 8.86548 8.59037 8.91754 8.38912 9.02178C8.12509 9.15735 7.92455 9.35217 7.78754 9.60622C7.65053 9.86027 7.58203 10.1507 7.58203 10.4776C7.58203 10.7787 7.64341 11.0574 7.76613 11.3136C7.88889 11.5698 8.07228 11.7667 8.31635 11.9045C8.56042 12.0422 8.84657 12.1111 9.17488 12.1111C9.43323 12.1111 9.68832 12.0622 9.94026 11.9644C10.1922 11.8667 10.3845 11.7536 10.5173 11.6252V10.3748H9.15128V10.3748Z" fill="#005FA3"/>
<path d="M6.98987 9.27351C6.86856 9.11576 6.71797 9.01337 6.53814 8.96621C6.4211 8.93478 6.1699 8.91919 5.78452 8.91919H4.76758V12.0578H5.40129V10.8738H5.81451C6.1014 10.8738 6.32049 10.8588 6.47175 10.8289C6.58308 10.8046 6.69263 10.755 6.80039 10.6801C6.90816 10.6052 6.997 10.502 7.06695 10.3707C7.1369 10.2394 7.17186 10.0774 7.17186 9.88471C7.17186 9.635 7.11118 9.43119 6.98987 9.27351ZM6.44715 10.1374C6.39935 10.2073 6.33333 10.2587 6.2491 10.2915C6.16489 10.3243 5.9979 10.3407 5.74812 10.3407H5.40129V9.45008H5.70745C5.93582 9.45008 6.08782 9.4572 6.16345 9.47145C6.2662 9.49008 6.35115 9.5364 6.4182 9.61065C6.4853 9.68483 6.51884 9.77909 6.51884 9.89328C6.51888 9.98602 6.49498 10.0674 6.44715 10.1374Z" fill="#005FA3"/>
<path d="M3.46157 8.91919V10.9466C3.46157 11.2006 3.43233 11.368 3.3738 11.4486C3.31528 11.5293 3.21538 11.5696 3.07407 11.5696C2.93421 11.5696 2.83 11.5132 2.7615 11.4005C2.71582 11.3262 2.68943 11.1992 2.68227 11.0194L2.08496 11.0879C2.08637 11.4233 2.17061 11.6777 2.3376 11.8511C2.50459 12.0245 2.74295 12.1112 3.05266 12.1112C3.31669 12.1112 3.52937 12.0558 3.69064 11.9453C3.85192 11.8347 3.96325 11.688 4.02463 11.5053C4.07031 11.3655 4.09313 11.1656 4.09313 10.9059V8.91919H3.46157Z" fill="#005FA3"/>
</svg>
