<svg width="25" height="25" viewBox="0 0 25 25" fill="none" xmlns="http://www.w3.org/2000/svg">
<path d="M18.7493 0.00520167L15.5074 0C11.8653 0 9.51154 2.41487 9.51154 6.15253V8.98926H6.25195C5.97028 8.98926 5.74219 9.21762 5.74219 9.49929V13.6094C5.74219 13.8911 5.97054 14.1191 6.25195 14.1191H9.51154V24.4902C9.51154 24.7719 9.73963 25 10.0213 25H14.2741C14.5558 25 14.7839 24.7716 14.7839 24.4902V14.1191H18.5951C18.8768 14.1191 19.1049 13.8911 19.1049 13.6094L19.1064 9.49929C19.1064 9.36404 19.0526 9.23452 18.9571 9.13881C18.8617 9.0431 18.7317 8.98926 18.5964 8.98926H14.7839V6.58453C14.7839 5.42872 15.0593 4.84197 16.5649 4.84197L18.7488 4.84119C19.0302 4.84119 19.2583 4.61284 19.2583 4.33143V0.514965C19.2583 0.233815 19.0305 0.00572184 18.7493 0.00520167Z" fill="#005FA3"/>
</svg>
