<svg width="25" height="23" viewBox="0 0 25 23" fill="none" xmlns="http://www.w3.org/2000/svg">
<path d="M24.8958 3.25363C24.7917 3.15197 24.6875 3.05026 24.4792 3.05026H4.6875L4.16665 0.406692C4.16665 0.203322 3.85415 8.37547e-09 3.6458 8.37547e-09H0.520801C0.20835 -4.76527e-05 0 0.203322 0 0.508353C0 0.813384 0.20835 1.01675 0.52085 1.01675H3.2292L5.7292 13.4214C6.0417 15.0482 7.6042 16.2683 9.27085 16.2683H21.25C21.5625 16.2683 21.7708 16.0649 21.7708 15.7599C21.7708 15.4549 21.5625 15.2515 21.25 15.2515H9.375C8.54165 15.2515 7.70835 14.8448 7.29165 14.133L22.5 12.0995C22.7083 12.0995 22.9167 11.8962 22.9167 11.6928L25 3.55866C25 3.55866 25 3.35529 24.8958 3.25363ZM21.9792 11.1844L6.7708 13.1163L4.8958 3.96535H23.75L21.9792 11.1844Z" fill="black"/>
<path d="M8.85378 17.2847C7.39548 17.2847 6.24963 18.4031 6.24963 19.8266C6.24963 21.2501 7.39548 22.3685 8.85378 22.3685C10.3121 22.3685 11.4579 21.25 11.4579 19.8266C11.458 18.4031 10.3121 17.2847 8.85378 17.2847ZM8.85378 21.3517C8.02043 21.3517 7.29128 20.64 7.29128 19.8266C7.29128 19.0132 8.02043 18.3014 8.85378 18.3014C9.68713 18.3014 10.4163 19.0132 10.4163 19.8266C10.4163 20.64 9.68713 21.3517 8.85378 21.3517Z" fill="black"/>
<path d="M19.2709 17.2847C17.8125 17.2847 16.6667 18.4031 16.6667 19.8266C16.6667 21.2501 17.8126 22.3685 19.2709 22.3685C20.7292 22.3685 21.875 21.25 21.875 19.8266C21.875 18.4031 20.7292 17.2847 19.2709 17.2847ZM19.2709 21.3517C18.4375 21.3517 17.7084 20.64 17.7084 19.8266C17.7084 19.0132 18.4375 18.3014 19.2709 18.3014C20.1042 18.3014 20.8334 19.0132 20.8334 19.8266C20.8334 20.64 20.1042 21.3517 19.2709 21.3517Z" fill="black"/>
</svg>
