<svg width="29" height="29" viewBox="0 0 29 29" fill="none" xmlns="http://www.w3.org/2000/svg">
<path fill-rule="evenodd" clip-rule="evenodd" d="M14.5 0C6.49187 0 0 6.49187 0 14.5C0 22.5081 6.49187 29 14.5 29C22.5081 29 29 22.5081 29 14.5C29 6.49187 22.5081 0 14.5 0ZM11.312 6.8134C12.1369 6.77586 12.4005 6.76668 14.5007 6.76668H14.4983C16.5992 6.76668 16.8618 6.77586 17.6867 6.8134C18.51 6.8511 19.0723 6.98144 19.5653 7.17268C20.0744 7.37005 20.5046 7.63427 20.9348 8.06444C21.3649 8.49429 21.6292 8.92575 21.8273 9.43439C22.0174 9.9261 22.1479 10.4881 22.1866 11.3113C22.2237 12.1362 22.2333 12.3998 22.2333 14.5001C22.2333 16.6004 22.2237 16.8633 22.1866 17.6882C22.1479 18.5112 22.0174 19.0733 21.8273 19.5652C21.6292 20.0736 21.3649 20.5051 20.9348 20.9349C20.5051 21.3651 20.0743 21.63 19.5658 21.8275C19.0738 22.0187 18.5111 22.1491 17.6879 22.1868C16.863 22.2243 16.6002 22.2335 14.4998 22.2335C12.3997 22.2335 12.1362 22.2243 11.3113 22.1868C10.4882 22.1491 9.92609 22.0187 9.43405 21.8275C8.92574 21.63 8.49428 21.3651 8.06459 20.9349C7.63458 20.5051 7.37036 20.0736 7.17267 19.565C6.98159 19.0733 6.85125 18.5113 6.81339 17.688C6.77601 16.8631 6.76667 16.6004 6.76667 14.5001C6.76667 12.3998 6.77633 12.1361 6.81323 11.3112C6.85029 10.4882 6.98079 9.9261 7.17251 9.43422C7.37068 8.92575 7.6349 8.49429 8.06508 8.06444C8.49492 7.63443 8.92638 7.37021 9.43502 7.17268C9.92673 6.98144 10.4887 6.8511 11.312 6.8134Z" fill="#525252"/>
<path fill-rule="evenodd" clip-rule="evenodd" d="M13.8072 8.16026C13.9419 8.16005 14.0868 8.16011 14.2432 8.16018L14.5009 8.16026C16.5657 8.16026 16.8105 8.16767 17.6259 8.20473C18.3799 8.2392 18.7891 8.36519 19.0617 8.47105C19.4226 8.61121 19.6799 8.77877 19.9504 9.04944C20.2211 9.32011 20.3886 9.57789 20.5291 9.93878C20.635 10.2111 20.7611 10.6203 20.7954 11.3743C20.8325 12.1895 20.8405 12.4344 20.8405 14.4983C20.8405 16.5621 20.8325 16.807 20.7954 17.6223C20.761 18.3763 20.635 18.7855 20.5291 19.0578C20.3889 19.4187 20.2211 19.6756 19.9504 19.9461C19.6797 20.2168 19.4228 20.3844 19.0617 20.5245C18.7894 20.6309 18.3799 20.7565 17.6259 20.791C16.8106 20.8281 16.5657 20.8361 14.5009 20.8361C12.4359 20.8361 12.1912 20.8281 11.376 20.791C10.622 20.7562 10.2127 20.6302 9.93998 20.5244C9.57909 20.3842 9.32131 20.2167 9.05064 19.946C8.77997 19.6753 8.61241 19.4182 8.47192 19.0571C8.36607 18.7848 8.23992 18.3756 8.2056 17.6216C8.16854 16.8064 8.16113 16.5615 8.16113 14.4963C8.16113 12.4312 8.16854 12.1876 8.2056 11.3724C8.24008 10.6184 8.36607 10.2091 8.47192 9.93653C8.61209 9.57563 8.77997 9.31785 9.05064 9.04718C9.32131 8.77652 9.57909 8.60896 9.93998 8.46847C10.2126 8.36213 10.622 8.23646 11.376 8.20183C12.0894 8.1696 12.3659 8.15994 13.8072 8.15833V8.16026ZM18.629 9.44431C18.1166 9.44431 17.7009 9.8595 17.7009 10.372C17.7009 10.8843 18.1166 11.3 18.629 11.3C19.1413 11.3 19.557 10.8843 19.557 10.372C19.557 9.85966 19.1413 9.44399 18.629 9.44399V9.44431ZM10.5295 14.5001C10.5295 12.3069 12.3076 10.5287 14.5008 10.5286C16.694 10.5286 18.4717 12.3068 18.4717 14.5001C18.4717 16.6933 16.6942 18.4707 14.5009 18.4707C12.3077 18.4707 10.5295 16.6933 10.5295 14.5001Z" fill="#525252"/>
<path d="M14.5007 11.9222C15.9243 11.9222 17.0785 13.0763 17.0785 14.5C17.0785 15.9236 15.9243 17.0779 14.5007 17.0779C13.0769 17.0779 11.9229 15.9236 11.9229 14.5C11.9229 13.0763 13.0769 11.9222 14.5007 11.9222Z" fill="#525252"/>
</svg>
