<svg width="26" height="24" viewBox="0 0 26 24" fill="none" xmlns="http://www.w3.org/2000/svg">
<path d="M25.1228 7.21538L25.1248 7.23737L25.1283 7.25919C25.1457 7.36766 25.2675 8.2455 24.9177 9.72606L24.9176 9.72626C24.4143 11.8596 23.2504 13.807 21.5418 15.3563C21.5412 15.3569 21.5405 15.3575 21.5399 15.358L12.8329 23.1256L4.27312 15.3578L4.27275 15.3575C2.5632 13.8085 1.39866 11.86 0.895118 9.72623L0.89509 9.72611C0.545181 8.24461 0.667275 7.36722 0.684646 7.26039L0.688335 7.2377L0.690413 7.2148C1.0426 3.33332 3.75669 0.65 7.02837 0.65C9.19138 0.65 11.1336 1.80508 12.2739 3.75632L12.829 4.70611L13.3931 3.7617C14.5414 1.83957 16.5746 0.650496 18.7844 0.650496C22.0565 0.650496 24.7702 3.33379 25.1228 7.21538Z" stroke="black" stroke-width="1.3"/>
</svg>
