<svg width="24" height="20" viewBox="0 0 24 20" fill="none" xmlns="http://www.w3.org/2000/svg">
<path d="M23.1977 6.01215L23.1994 6.03019L23.2025 6.04806C23.2181 6.13935 23.3267 6.87185 23.0146 8.10714L23.0146 8.1073C22.5654 9.88754 21.5257 11.5175 19.993 12.8172C19.9926 12.8175 19.9921 12.8179 19.9917 12.8183L12.1673 19.3465L4.47514 12.8181L4.47485 12.8178C2.94156 11.5185 1.90128 9.88768 1.45203 8.10727L1.45201 8.10717C1.13985 6.87111 1.24869 6.13898 1.26433 6.04903L1.26756 6.03045L1.26938 6.01167C1.58219 2.78734 4.00439 0.5 6.99582 0.5C8.96896 0.5 10.7237 1.48617 11.7458 3.12192L12.1652 3.79309L12.5912 3.12611C13.621 1.51387 15.4572 0.500414 17.4708 0.500414C20.4626 0.500414 22.8844 2.78773 23.1977 6.01215Z" stroke="black"/>
</svg>
