<svg width="25" height="25" viewBox="0 0 25 25" fill="none" xmlns="http://www.w3.org/2000/svg">
<circle cx="12.5" cy="12.5" r="12.5" fill="#0500FF"/>
<path d="M7.39062 11.4355L7.75195 7.89062H11.3945V8.72559H8.51855L8.30371 10.6641C8.65202 10.459 9.04753 10.3564 9.49023 10.3564C10.138 10.3564 10.6523 10.5713 11.0332 11.001C11.4141 11.4274 11.6045 12.0052 11.6045 12.7344C11.6045 13.4668 11.4059 14.0446 11.0088 14.4678C10.6149 14.8877 10.0632 15.0977 9.35352 15.0977C8.72526 15.0977 8.21257 14.9235 7.81543 14.5752C7.41829 14.2269 7.19206 13.7451 7.13672 13.1299H7.99121C8.04655 13.5368 8.19141 13.8444 8.42578 14.0527C8.66016 14.2578 8.9694 14.3604 9.35352 14.3604C9.77344 14.3604 10.1022 14.2171 10.3398 13.9307C10.5807 13.6442 10.7012 13.2487 10.7012 12.7441C10.7012 12.2689 10.571 11.888 10.3105 11.6016C10.0534 11.3118 9.70996 11.167 9.28027 11.167C8.88639 11.167 8.57715 11.2533 8.35254 11.4258L8.11328 11.6211L7.39062 11.4355ZM16.4043 12.6123H17.3906V13.3496H16.4043V15H15.4961V13.3496H12.2588V12.8174L15.4424 7.89062H16.4043V12.6123ZM13.2842 12.6123H15.4961V9.12598L15.3887 9.32129L13.2842 12.6123Z" fill="white"/>
</svg>
