<svg width="154" height="154" viewBox="0 0 154 154" fill="none" xmlns="http://www.w3.org/2000/svg">
<path d="M99.4611 63.7482C98.5004 62.7255 97.174 62.121 95.6647 62.121H88.0706V62.0277C88.0706 60.8655 87.6134 59.7494 86.8356 59.0055C86.0577 58.2149 85.0056 57.75 83.862 57.75H70.138C68.9487 57.75 67.8966 58.2149 67.1187 59.0055C66.3409 59.7959 65.8837 60.8655 65.8837 62.0277V62.121H58.3356C56.8259 62.121 55.4993 62.7255 54.5386 63.7482C53.5779 64.7245 52.9375 66.1195 52.9375 67.6072V90.7631C52.9375 92.2977 53.5322 93.6458 54.5386 94.6228C55.4993 95.5991 56.8717 96.25 58.3356 96.25H95.6647C97.174 96.25 98.5004 95.6454 99.4611 94.6228C100.422 93.6458 101.062 92.2514 101.062 90.7631V67.6072C101.062 66.0732 100.468 64.7245 99.4611 63.7482ZM98.6839 90.7631H98.6382C98.6382 91.6005 98.3176 92.3441 97.7689 92.9023C97.2197 93.46 96.4876 93.7854 95.6647 93.7854H58.3356C57.5121 93.7854 56.7802 93.46 56.2312 92.9023C55.6823 92.3441 55.362 91.6005 55.362 90.7631V67.6072C55.362 66.7704 55.6823 66.0263 56.2312 65.4686C56.7802 64.9104 57.5121 64.585 58.3356 64.585H67.1645C67.8508 64.585 68.3995 64.0273 68.3995 63.3295V61.9814C68.3995 61.4701 68.5829 61.0051 68.903 60.6796C69.223 60.3542 69.6808 60.1677 70.1837 60.1677H83.862C84.3649 60.1677 84.8227 60.3542 85.1427 60.6796C85.4628 61.0051 85.6463 61.4701 85.6463 61.9814V63.3295C85.6463 64.0273 86.1949 64.585 86.8813 64.585H95.7104C96.5333 64.585 97.2654 64.9104 97.8147 65.4686C98.3633 66.0263 98.6839 66.7704 98.6839 67.6072V90.7631Z" fill="#E7E8E8"/>
<path d="M77 67.9766C73.8406 67.9766 70.9597 69.2777 68.9156 71.3218C66.8246 73.4129 65.5703 76.2468 65.5703 79.4062C65.5703 82.5657 66.8715 85.4465 68.9156 87.4906C71.0066 89.5817 73.8406 90.8359 77 90.8359C80.1594 90.8359 83.0403 89.5348 85.0844 87.4906C87.1754 85.3996 88.4297 82.5657 88.4297 79.4062C88.4297 76.2468 87.1285 73.366 85.0844 71.3218C83.0403 69.2777 80.1594 67.9766 77 67.9766ZM83.3188 85.7714C81.6928 87.3511 79.4622 88.3737 77 88.3737C74.5378 88.3737 72.3072 87.3511 70.6812 85.7714C69.0552 84.1454 68.0794 81.9154 68.0794 79.4526C68.0794 76.9904 69.1015 74.7598 70.6812 73.1338C72.3072 71.5077 74.5378 70.532 77 70.532C79.4622 70.532 81.6928 71.5541 83.3188 73.1338C84.9448 74.7598 85.9206 76.9904 85.9206 79.4526C85.9675 81.9154 84.9448 84.1454 83.3188 85.7714Z" fill="#E7E8E8"/>
<path d="M93.2855 72.2573C94.5235 72.2573 95.5269 71.237 95.5269 69.9786C95.5269 68.7207 94.5235 67.7004 93.2855 67.7004C92.0475 67.7004 91.0441 68.7207 91.0441 69.9786C91.0441 71.237 92.0475 72.2573 93.2855 72.2573Z" fill="#E7E8E8"/>
</svg>
