<svg width="19" height="19" viewBox="0 0 19 19" fill="none" xmlns="http://www.w3.org/2000/svg">
<path d="M19 9.25558C19 14.3669 14.8242 18.5105 9.67193 18.5105C8.03691 18.5105 6.50103 18.0923 5.16402 17.36L0 19L1.68334 14.033C0.834545 12.639 0.345714 11.0021 0.345714 9.25496C0.346333 4.14361 4.52092 0 9.67317 0C14.8248 0.00123912 19 4.14423 19 9.25558ZM9.67131 1.47579C5.34741 1.47579 1.83018 4.96638 1.83018 9.25744C1.83018 10.96 2.3853 12.5361 3.32393 13.8186L2.34503 16.7076L5.35732 15.7504C6.59644 16.5633 8.07904 17.0366 9.67131 17.0366C13.9952 17.0366 17.5137 13.5466 17.5137 9.25558C17.5149 4.96638 13.9958 1.47579 9.67131 1.47579ZM14.3824 11.3875C14.3242 11.2939 14.1718 11.2369 13.9438 11.1229C13.7164 11.0089 12.5907 10.4606 12.3819 10.3863C12.1712 10.3101 12.0188 10.2717 11.8664 10.499C11.7159 10.7264 11.2772 11.2369 11.1428 11.3893C11.0096 11.5411 10.8764 11.5603 10.6477 11.4482C10.4191 11.333 9.68184 11.0951 8.80826 10.3225C8.12861 9.72025 7.66951 8.97864 7.53693 8.75126C7.40248 8.52451 7.5233 8.40183 7.63668 8.28907C7.73891 8.18685 7.8653 8.0239 7.97991 7.8907C8.09453 7.75873 8.13233 7.66518 8.20853 7.51339C8.2835 7.36159 8.2457 7.22963 8.18932 7.11501C8.13233 7.00101 7.67571 5.88581 7.48427 5.43167C7.29406 4.97815 7.10386 5.05312 6.97003 5.05312C6.83683 5.05312 6.68442 5.03453 6.53201 5.03453C6.37959 5.03453 6.13177 5.08967 5.92298 5.31705C5.71419 5.54443 5.12313 6.09274 5.12313 7.20918C5.12313 8.32687 5.94157 9.40428 6.05618 9.55545C6.17142 9.706 7.63854 12.0721 9.9625 12.9804C12.2877 13.888 12.2877 13.5851 12.7065 13.5466C13.1266 13.5082 14.0596 12.9983 14.2492 12.4692C14.4401 11.9377 14.4401 11.4823 14.3824 11.3875Z" fill="white"/>
</svg>
