<svg width="56" height="56" viewBox="0 0 56 56" fill="none" xmlns="http://www.w3.org/2000/svg">
<g clip-path="url(#clip0)">
<path d="M50.1303 10.5355L45.4636 5.8688C45.1512 5.55602 44.6622 5.50538 44.2923 5.74747L39.1067 9.14667L33.5151 6.81333L32.6573 0.8008C32.5914 0.341133 32.1977 -0.000116637 31.7333 2.99054e-08H24.2667C23.8023 -0.000116637 23.4086 0.341133 23.3427 0.8008L22.484 6.81333L16.898 9.14667L11.7115 5.74933C11.3415 5.50725 10.8526 5.55788 10.5401 5.87067L5.87346 10.5373C5.56032 10.8506 5.51039 11.3407 5.75399 11.7105L9.20732 16.9559L8.62866 18.2933L10.3423 19.0344L11.1216 17.2349C11.2468 16.9458 11.2176 16.6131 11.0441 16.3501L7.72892 11.3195L11.3213 7.72707L16.2885 10.9807C16.5486 11.149 16.8748 11.1791 17.1612 11.0609L23.6945 8.32533C23.9962 8.19747 24.2088 7.92085 24.2545 7.5964L25.0759 1.86667H30.9241L31.7427 7.5992C31.7884 7.92365 32.001 8.20027 32.3027 8.32813L38.836 11.0619C39.1221 11.18 39.448 11.15 39.7077 10.9816L44.6768 7.72987L48.2944 11.3475L45.8677 15.4541C45.7233 15.6976 45.6972 15.9936 45.7968 16.2587L46.8319 18.9924L48.5781 18.3316L47.7017 16.0179L50.2731 11.6704C50.4901 11.3038 50.4313 10.8368 50.1303 10.5355Z" fill="#2C2C2C"/>
<path d="M37.9932 35.7401L35.1932 32.9401C35.0182 32.7651 34.7809 32.6667 34.5333 32.6667H21.4667C21.2191 32.6667 20.9818 32.7651 20.8068 32.9401L18.0068 35.7401C17.8318 35.9151 17.7333 36.1524 17.7333 36.4V55.0667C17.7333 55.5821 18.1512 56 18.6667 56H37.3333C37.8488 56 38.2667 55.5821 38.2667 55.0667V36.4C38.2667 36.1524 38.1682 35.9151 37.9932 35.7401ZM31.1864 34.5333H34.1469L30.8 37.8803L29.3197 36.4L31.1864 34.5333ZM29.4803 39.2L28.2735 40.4068C28.0979 40.5814 27.9994 40.819 28 41.0667C27.9983 40.8214 27.9 40.5867 27.7265 40.4133L26.5197 39.2L28 37.7197L29.4803 39.2ZM28.5469 34.5333L28 35.0803L27.4531 34.5333H28.5469ZM24.8136 34.5333L26.6803 36.4L25.2 37.8803L21.8531 34.5333H24.8136ZM24.3833 54.1333H19.6V36.7864L20.5333 35.8531L24.5401 39.8599L26.0801 41.3999L24.3833 54.1333ZM26.2668 54.1333L27.9916 41.1899C27.9972 41.1505 28 41.111 28 41.0713C28.0002 41.1312 28.0064 41.1909 28.0187 41.2496L30.5947 54.1333H26.2668ZM36.4 54.1333H32.4987L29.9469 41.3737L31.4599 39.8599L35.4667 35.8531L36.4 36.7864V54.1333Z" fill="#2C2C2C"/>
<path d="M34.5333 12.1333H26.1333C23.0418 12.1364 20.5364 14.6418 20.5333 17.7333V23.3333C20.538 27.4552 23.8782 30.7953 28 30.8C32.1218 30.7953 35.462 27.4552 35.4667 23.3333V13.0667C35.4667 12.5512 35.0488 12.1333 34.5333 12.1333ZM33.6 23.3333C33.6 26.4262 31.0928 28.9333 28 28.9333C24.9072 28.9333 22.4 26.4262 22.4 23.3333V19.6H29.8667C31.2461 19.5996 32.5765 19.0875 33.6 18.1627V23.3333ZM29.8667 17.7333H22.4C22.4 15.6715 24.0715 14 26.1333 14H33.6C33.6 16.0618 31.9285 17.7333 29.8667 17.7333Z" fill="#2C2C2C"/>
<path d="M55.7265 39.4735L52.9265 36.6735C52.7515 36.4985 52.5142 36.4 52.2667 36.4H44.8C44.5524 36.4 44.3151 36.4985 44.1401 36.6735L41.3401 39.4735C41.1651 39.6485 41.0667 39.8858 41.0667 40.1333V55.0667C41.0667 55.5821 41.4846 56 42 56H55.0667C55.5821 56 56 55.5821 56 55.0667V40.1333C56 39.8858 55.9015 39.6485 55.7265 39.4735ZM54.1333 54.1333H49.4667V40.1333H47.6V54.1333H42.9333V40.5197L44.8 38.6531L46.9401 40.7932L47.6 40.1333L48.2599 39.4735L47.0531 38.2667H50.0873L48.8264 39.4529L49.4667 40.1333L50.1069 40.8137L52.332 38.7184L54.1333 40.5197V54.1333Z" fill="#2C2C2C"/>
<path d="M49.4667 20.5333H47.6308C45.0618 20.5385 42.978 22.6151 42.9641 25.1841L42.9492 29.8573C42.9389 32.9449 45.4335 35.4563 48.5212 35.4667C48.5274 35.4667 48.5337 35.4667 48.5399 35.4667C51.6265 35.463 54.1282 32.9626 54.1333 29.876V25.2C54.1303 22.624 52.0427 20.5364 49.4667 20.5333ZM44.8308 25.1907C44.8358 23.6599 46.0693 22.4168 47.6 22.4C47.6001 23.9344 46.3652 25.1831 44.8308 25.2V25.1907ZM52.2667 29.8732C52.263 31.9289 50.5983 33.5949 48.5427 33.6C46.4859 33.6 44.8187 31.9327 44.8187 29.876C44.8187 29.8728 44.8187 29.8698 44.8187 29.8667L44.828 27.0667C46.287 27.0579 47.658 26.3672 48.5333 25.2C49.4146 26.3751 50.7978 27.0667 52.2667 27.0667V29.8732ZM49.4667 22.4C51.0131 22.4 52.2667 23.6536 52.2667 25.2C50.7202 25.2 49.4667 23.9464 49.4667 22.4Z" fill="#2C2C2C"/>
<path d="M14.6599 39.4735L11.8599 36.6735C11.6849 36.4985 11.4476 36.4 11.2 36.4H3.73333C3.48577 36.4 3.24847 36.4985 3.07347 36.6735L0.273467 39.4735C0.0984667 39.6485 0 39.8858 0 40.1333V55.0667C0 55.5821 0.4179 56 0.933333 56H14C14.5154 56 14.9333 55.5821 14.9333 55.0667V40.1333C14.9333 39.8858 14.8349 39.6485 14.6599 39.4735ZM13.0667 54.1333H8.4V40.1333H6.53333V54.1333H1.86667V40.5197L3.73333 38.6531L5.87347 40.7932L6.53333 40.1333L7.1932 39.4735L5.9864 38.2667H9.02067L7.75973 39.4529L8.4 40.1333L9.04027 40.8137L11.2653 38.7184L13.0667 40.5197V54.1333Z" fill="#2C2C2C"/>
<path d="M8.40001 20.5333H6.56414C3.99514 20.5385 1.91136 22.6151 1.89747 25.1841L1.88254 29.8573C1.87227 32.9449 4.36684 35.4563 7.45454 35.4667C7.46072 35.4667 7.46702 35.4667 7.47321 35.4667C10.5599 35.463 13.0615 32.9626 13.0667 29.876V25.2C13.0636 22.624 10.976 20.5364 8.40001 20.5333ZM8.40001 22.4C9.58231 22.4049 10.6342 23.1519 11.0283 24.2667H9.33334C8.15104 24.2618 7.09917 23.5147 6.70507 22.4H8.40001ZM4.66667 23.1541V23.3249C4.66784 23.5733 4.56856 23.8117 4.39134 23.9857C4.27001 24.1038 4.11752 24.1848 3.95174 24.2191C4.10446 23.8135 4.34922 23.4491 4.66667 23.1541ZM11.2 29.876C11.1949 31.9306 9.53062 33.5949 7.47601 33.6C5.41929 33.6 3.75201 31.9327 3.75201 29.876C3.75201 29.8728 3.75201 29.8698 3.75201 29.8667L3.76414 26.1259C4.49482 26.1218 5.19447 25.8296 5.71107 25.3129C5.85866 25.1635 5.98909 24.9983 6.10027 24.8201C6.96629 25.6614 8.12596 26.1324 9.33334 26.1333H11.2V29.876Z" fill="#2C2C2C"/>
</g>
<defs>
<clipPath id="clip0">
<rect width="56" height="56" fill="white"/>
</clipPath>
</defs>
</svg>
