<svg width="56" height="56" viewBox="0 0 56 56" fill="none" xmlns="http://www.w3.org/2000/svg">
<path d="M28.0072 19.5902C28.9297 19.5902 29.8315 19.3167 30.5985 18.8041C31.3656 18.2916 31.9634 17.5632 32.3165 16.7109C32.6695 15.8586 32.7619 14.9207 32.5819 14.0159C32.4019 13.1112 31.9577 12.2801 31.3054 11.6277C30.653 10.9754 29.8219 10.5312 28.9172 10.3512C28.0124 10.1712 27.0745 10.2636 26.2222 10.6166C25.3699 10.9697 24.6415 11.5675 24.1289 12.3346C23.6164 13.1016 23.3429 14.0034 23.3429 14.9259C23.3443 16.1625 23.8362 17.348 24.7106 18.2224C25.5851 19.0968 26.7706 19.5887 28.0072 19.5902ZM25.3802 15.8588H27.0743V17.5529C26.6842 17.4135 26.3298 17.1892 26.0368 16.8963C25.7439 16.6033 25.5196 16.2489 25.3802 15.8588ZM28.9401 17.5529V15.8588H30.6341C30.4948 16.2489 30.2705 16.6033 29.9775 16.8963C29.6846 17.1892 29.3302 17.4135 28.9401 17.5529ZM30.6341 13.993H28.9401V12.299C29.3302 12.4383 29.6846 12.6626 29.9775 12.9556C30.2705 13.2485 30.4948 13.6029 30.6341 13.993ZM27.0743 12.299V13.993H25.3802C25.5196 13.6029 25.7439 13.2485 26.0368 12.9556C26.3298 12.6626 26.6842 12.4383 27.0743 12.299Z" fill="#2C2C2C"/>
<path d="M55.0602 54.1062H52.2616V22.3319C53.0124 22.4297 53.7741 22.2672 54.4196 21.8715C55.0651 21.4758 55.5555 20.8707 55.809 20.1572C56.0625 19.4437 56.0637 18.6649 55.8125 17.9506C55.5613 17.2364 55.0729 16.6297 54.4287 16.2319L28.4988 0.140055C28.3512 0.0485064 28.1809 0 28.0072 0C27.8335 0 27.6632 0.0485064 27.5156 0.140055L1.5857 16.2319C0.937149 16.6276 0.444487 17.2343 0.19046 17.9503C-0.0635666 18.6663 -0.0634843 19.4479 0.190693 20.1638C0.44487 20.8797 0.937659 21.4863 1.5863 21.8818C2.23493 22.2773 2.99991 22.4376 3.75274 22.3357V54.1062H0.954155C0.706744 54.1062 0.469467 54.2045 0.294521 54.3794C0.119575 54.5544 0.0212916 54.7916 0.0212916 55.039C0.0212916 55.2865 0.119575 55.5237 0.294521 55.6987C0.469467 55.8736 0.706744 55.9719 0.954155 55.9719H55.0602C55.3076 55.9719 55.5449 55.8736 55.7198 55.6987C55.8948 55.5237 55.9931 55.2865 55.9931 55.039C55.9931 54.7916 55.8948 54.5544 55.7198 54.3794C55.5449 54.2045 55.3076 54.1062 55.0602 54.1062ZM2.63331 20.3095C2.41265 20.1877 2.22769 20.0104 2.09681 19.795C1.96594 19.5796 1.8937 19.3338 1.88729 19.0818C1.88087 18.8299 1.9405 18.5807 2.06025 18.3589C2.18 18.1372 2.35569 17.9506 2.56987 17.8178L28.0072 2.03097L53.4445 17.8178C53.7681 18.0209 53.9981 18.3438 54.0842 18.716C54.1703 19.0882 54.1056 19.4794 53.9041 19.8039C53.7026 20.1285 53.3807 20.3601 53.009 20.448C52.6372 20.5359 52.2457 20.473 51.9202 20.2731L28.4988 5.73723C28.3512 5.64568 28.1809 5.59718 28.0072 5.59718C27.8335 5.59718 27.6632 5.64568 27.5156 5.73723L4.09417 20.275C3.87645 20.412 3.62569 20.4876 3.3685 20.4937C3.1113 20.4997 2.85726 20.4361 2.63331 20.3095ZM5.61847 21.5222L28.0072 7.62255L50.3959 21.5222V54.1062H48.5302V24.2546C48.5302 23.5123 48.2353 22.8005 47.7105 22.2757C47.1856 21.7508 46.4738 21.456 45.7316 21.456H10.2828C9.54055 21.456 8.82872 21.7508 8.30388 22.2757C7.77905 22.8005 7.4842 23.5123 7.4842 24.2546V54.1062H5.61847V21.5222ZM27.0743 29.8517H28.94V33.0067L28.4242 32.7483C28.2947 32.6836 28.1519 32.6499 28.0072 32.6499C27.8624 32.6499 27.7197 32.6836 27.5902 32.7483L27.0743 33.0067V29.8517ZM25.6508 35.3099C25.7863 35.3928 25.9406 35.44 26.0993 35.4472C26.258 35.4544 26.416 35.4213 26.5584 35.351L28.0072 34.6261L29.4559 35.351C29.5982 35.4221 29.7562 35.4556 29.9151 35.4484C30.074 35.4412 30.2284 35.3935 30.3636 35.3099C30.4989 35.2262 30.6105 35.1094 30.6879 34.9704C30.7653 34.8315 30.8058 34.6751 30.8058 34.5161V29.8517H34.5372V41.0461H21.4771V29.8517H25.2086V34.5161C25.2085 34.6751 25.2491 34.8315 25.3265 34.9705C25.4039 35.1094 25.5155 35.2263 25.6508 35.3099ZM34.5372 42.9118H36.4029V46.0668L35.8871 45.8084C35.7576 45.7437 35.6148 45.71 35.4701 45.71C35.3253 45.71 35.1826 45.7437 35.0531 45.8084L34.5372 46.0668V42.9118ZM21.4771 42.9118V46.0668L20.9613 45.8084C20.8318 45.7437 20.689 45.71 20.5443 45.71C20.3995 45.71 20.2568 45.7437 20.1273 45.8084L19.6114 46.0668V42.9118H21.4771ZM18.1879 48.37C18.3231 48.4536 18.4775 48.5013 18.6364 48.5085C18.7952 48.5157 18.9533 48.4821 19.0955 48.411L20.5443 47.6862L21.993 48.411C22.1353 48.4821 22.2933 48.5157 22.4522 48.5085C22.6111 48.5013 22.7655 48.4536 22.9007 48.3699C23.036 48.2863 23.1476 48.1694 23.225 48.0305C23.3024 47.8916 23.3429 47.7352 23.3429 47.5761V42.9118H27.0743V54.1062H14.0142V42.9118H17.7457V47.5761C17.7456 47.7352 17.7862 47.8916 17.8636 48.0306C17.941 48.1695 18.0526 48.2863 18.1879 48.37ZM28.94 54.1062V42.9118H32.6715V47.5761C32.6706 47.7356 32.7106 47.8926 32.7877 48.0321C32.8647 48.1717 32.9763 48.2892 33.1116 48.3734C33.247 48.4576 33.4017 48.5057 33.561 48.5131C33.7202 48.5205 33.8787 48.487 34.0213 48.4157L35.4701 47.6862L36.9188 48.411C37.0611 48.4821 37.2191 48.5157 37.378 48.5085C37.5369 48.5013 37.6913 48.4536 37.8265 48.3699C37.9618 48.2863 38.0734 48.1694 38.1508 48.0305C38.2282 47.8916 38.2687 47.7352 38.2687 47.5761V42.9118H42.0001V54.1062H28.94ZM43.8658 54.1062V41.979C43.8658 41.7315 43.7676 41.4943 43.5926 41.3193C43.4177 41.1444 43.1804 41.0461 42.933 41.0461H36.4029V28.9189C36.4029 28.6715 36.3047 28.4342 36.1297 28.2592C35.9548 28.0843 35.7175 27.986 35.4701 27.986H20.5443C20.2969 27.986 20.0596 28.0843 19.8846 28.2592C19.7097 28.4342 19.6114 28.6715 19.6114 28.9189V41.0461H13.0814C12.834 41.0461 12.5967 41.1444 12.4217 41.3193C12.2468 41.4943 12.1485 41.7315 12.1485 41.979V54.1062H9.34992V24.2546C9.34992 24.0072 9.4482 23.7699 9.62315 23.5949C9.7981 23.42 10.0354 23.3217 10.2828 23.3217H45.7316C45.979 23.3217 46.2163 23.42 46.3912 23.5949C46.5662 23.7699 46.6644 24.0072 46.6644 24.2546V54.1062H43.8658Z" fill="#2C2C2C"/>
</svg>
