<svg width="56" height="56" viewBox="0 0 56 56" fill="none" xmlns="http://www.w3.org/2000/svg">
<g clip-path="url(#clip0)">
<path d="M53.3302 32.8009H52.4921V25.2524C52.4921 24.0574 51.8973 22.9993 50.989 22.3564V21.3286C50.989 19.8377 49.7761 18.6248 48.2852 18.6248H47.6595L50.0536 15.1117C50.8561 13.9342 50.5509 12.3232 49.3734 11.5206L33.1278 0.449643C32.5574 0.0608152 31.8699 -0.0826848 31.1913 0.0460495C30.5131 0.174565 29.9254 0.559456 29.5367 1.12996L15.5147 21.7059H11.6128L12.5542 12.1761C12.5648 12.0687 12.6346 11.9756 12.7319 11.9389C13.9448 11.4816 14.9959 10.6276 15.6915 9.53433C15.7463 9.44825 15.8496 9.39903 15.9566 9.40986L22.0767 10.0145C22.5155 10.057 22.9059 9.73744 22.9492 9.29885C22.9925 8.86025 22.6721 8.46968 22.2335 8.42636L16.1135 7.82174C15.4031 7.75217 14.7256 8.07953 14.345 8.6776C13.8335 9.4815 13.0607 10.1093 12.169 10.4455C11.4977 10.6986 11.0368 11.3015 10.9659 12.0191L10.0091 21.7058H8.99161L10.4804 6.63349C10.534 6.09099 11.0182 5.69242 11.5614 5.74678L23.9288 6.9685C24.3674 7.01083 24.758 6.69146 24.8013 6.25286C24.8446 5.81427 24.5243 5.42369 24.0857 5.38038L11.7182 4.15866C10.3003 4.01877 9.0323 5.05838 8.89219 6.47653L7.69213 18.6248H5.64846C4.15767 18.6248 2.94471 19.8377 2.94471 21.3286V22.0297C1.72506 22.5912 0.875877 23.8241 0.875877 25.2524V52.4534C0.875877 54.409 2.46685 56 4.42258 56H48.9455C50.9012 56 52.4921 54.409 52.4921 52.4534V44.905H53.3302C54.3193 44.905 55.124 44.1003 55.124 43.1113V34.5948C55.1241 33.6056 54.3193 32.8009 53.3302 32.8009ZM48.2852 20.2208C48.8962 20.2207 49.3931 20.7177 49.3931 21.3287V21.7352C49.2463 21.7166 49.0972 21.706 48.9455 21.706H45.5598L46.5719 20.2208H48.2852ZM30.8555 2.02858C31.0042 1.81038 31.229 1.66316 31.4884 1.61394C31.5504 1.60224 31.6127 1.59633 31.6745 1.59633C31.871 1.59633 32.0631 1.65517 32.2291 1.76827L48.4747 12.8392C48.9251 13.1462 49.0419 13.7624 48.735 14.2128L43.6287 21.7057H42.4033L44.9068 18.0321C45.3128 17.4363 45.3462 16.6782 44.9938 16.0533C44.5255 15.2231 44.3356 14.2457 44.4592 13.3008C44.5511 12.5978 44.2418 11.9116 43.652 11.5098L35.2303 5.77063C34.6405 5.36867 33.8886 5.33182 33.2681 5.67449C32.4341 6.13496 31.4548 6.31575 30.5109 6.18363C29.8109 6.08541 29.101 6.4015 28.701 6.9883L18.6714 21.7058H17.446L30.8555 2.02858ZM31.2069 15.5792C27.7319 15.5792 24.8794 18.2887 24.647 21.7058H20.6024L30.0195 7.88703C30.0196 7.88703 30.0196 7.88703 30.0196 7.88703C30.0731 7.80839 30.1618 7.76158 30.2529 7.76158C30.265 7.76158 30.2772 7.76246 30.2893 7.7641C31.5732 7.94369 32.9048 7.69803 34.0393 7.07164C34.1285 7.02221 34.2431 7.02932 34.3315 7.08947L42.7533 12.8287C42.8414 12.8889 42.8899 12.993 42.8768 13.0941C42.7086 14.3791 42.967 15.7084 43.6039 16.8374C43.655 16.9281 43.6487 17.0442 43.5881 17.1334L40.4723 21.7057H37.7671C37.5344 18.2887 34.682 15.5792 31.2069 15.5792ZM36.1668 21.7059H26.2471C26.4756 19.1696 28.6122 17.1752 31.2069 17.1752C33.8017 17.175 35.9383 19.1696 36.1668 21.7059ZM4.5406 21.3286C4.5406 20.7176 5.03749 20.2206 5.64846 20.2206H7.53452L7.38785 21.7058H4.5406V21.3286ZM2.47177 25.2524C2.47177 24.1768 3.34688 23.3017 4.42258 23.3017H48.9455C50.0212 23.3017 50.8962 24.1768 50.8962 25.2524V27.4666H2.47177V25.2524ZM50.8962 52.4534C50.8962 53.529 50.0212 54.4041 48.9455 54.4041H4.42258C3.34688 54.4041 2.47177 53.529 2.47177 52.4534V50.2392H6.7748C7.21558 50.2392 7.57269 49.882 7.57269 49.4413C7.57269 49.0007 7.21547 48.6434 6.7748 48.6434H2.47177V29.0625H50.8962V32.8009H43.3093H43.3092C40.9187 32.8009 38.848 34.1943 37.8653 36.2113C37.862 36.2181 37.8583 36.2247 37.8549 36.2315C37.8466 36.2486 37.8394 36.2665 37.8313 36.2837C37.7143 36.5323 37.6125 36.7897 37.5297 37.0553C37.5295 37.056 37.5293 37.0567 37.5291 37.0575C37.3524 37.625 37.2572 38.228 37.2572 38.853C37.2572 42.1901 39.9721 44.905 43.3091 44.905H43.3092H50.8961V48.6434H11.8841C11.4434 48.6434 11.0863 49.0007 11.0863 49.4413C11.0863 49.882 11.4435 50.2392 11.8841 50.2392H50.8962V52.4534ZM53.5282 43.1111C53.5282 43.2203 53.4394 43.3091 53.3302 43.3091H43.3094C41.6201 43.3091 40.1473 42.3642 39.3918 40.9753C39.3575 40.9122 39.3247 40.8481 39.2933 40.7832C39.2306 40.6534 39.1741 40.5201 39.1241 40.3836C38.9489 39.906 38.8533 39.3904 38.8533 38.853C38.8533 38.3155 38.949 37.7999 39.1241 37.3224C39.1742 37.186 39.2307 37.0526 39.2933 36.9227C39.3247 36.8578 39.3575 36.7938 39.3918 36.7306C40.1473 35.3417 41.6201 34.3968 43.3094 34.3968H53.3302C53.4393 34.3968 53.5282 34.4856 53.5282 34.5948V43.1111Z" fill="#2C2C2C"/>
<path d="M43.4964 35.6154C41.7111 35.6154 40.2589 37.0678 40.2589 38.8529C40.2589 40.6381 41.7111 42.0903 43.4964 42.0903C45.2816 42.0903 46.7339 40.6381 46.7339 38.8529C46.7339 37.0678 45.2816 35.6154 43.4964 35.6154ZM43.4964 40.4944C42.5912 40.4944 41.8547 39.758 41.8547 38.8529C41.8547 37.9479 42.5912 37.2113 43.4964 37.2113C44.4015 37.2113 45.138 37.9478 45.138 38.8529C45.138 39.7581 44.4015 40.4944 43.4964 40.4944Z" fill="#2C2C2C"/>
</g>
<defs>
<clipPath id="clip0">
<rect width="56" height="56" fill="white"/>
</clipPath>
</defs>
</svg>
