<svg width="15" height="15" viewBox="0 0 15 15" fill="none" xmlns="http://www.w3.org/2000/svg">
<path d="M7.5 0.5C9.81271 0.5 11.6875 2.37479 11.6875 4.6875C11.6875 7.00021 9.81271 8.875 7.5 8.875C5.18729 8.875 3.3125 7.00021 3.3125 4.6875C3.3125 2.37479 5.18729 0.5 7.5 0.5ZM4.1221 9.79738C5.92775 10.9869 8.60651 11.3088 10.8786 9.79755L12.7484 10.265C13.7778 10.5223 14.5 11.4473 14.5 12.5084V13.5938C14.5 14.0943 14.0943 14.5 13.5938 14.5H1.40625C0.905732 14.5 0.5 14.0943 0.5 13.5938V12.5084C0.5 11.4473 1.2222 10.5223 2.25165 10.265L4.1221 9.79738Z" stroke="white"/>
</svg>
