<svg width="20" height="19" viewBox="0 0 20 19" fill="none" xmlns="http://www.w3.org/2000/svg">
<path d="M1 17V7.00004C1 6.44775 1.44772 6.00004 2 6.00004H8V2.5C8 2.5 8 2 8.5 1.5C8.77612 1.22388 9.31657 1.00004 9.70707 1.00002L10 1H10.2929C10.6834 1 11.2239 1.22386 11.5 1.5C12 2 12 2.50005 12 2.50005V6.00004H18C18.5523 6.00004 19 6.44775 19 7.00004V17C19 17.5523 18.5523 18 18 18H2C1.44772 18 1 17.5523 1 17Z" fill="#C4C4C4"/>
<path d="M7.25 9.5C7.25 9.91421 7.58579 10.25 8 10.25C8.41421 10.25 8.75 9.91421 8.75 9.5H7.25ZM11.25 9.5C11.25 9.91421 11.5858 10.25 12 10.25C12.4142 10.25 12.75 9.91421 12.75 9.5H11.25ZM9.70707 1.00002L9.70711 1.75002L9.70707 1.00002ZM10 1L10 0.25L9.99996 0.25L10 1ZM11.5 1.5L12.0303 0.969669L12.0303 0.969669L11.5 1.5ZM8.5 1.5L7.96967 0.969667L7.96967 0.969667L8.5 1.5ZM0.25 7.00004V17H1.75V7.00004H0.25ZM2 18.75H18V17.25H2V18.75ZM19.75 17V7.00004H18.25V17H19.75ZM18 5.25004H12V6.75004H18V5.25004ZM12 5.25004H8V6.75004H12V5.25004ZM8 5.25004H2V6.75004H8V5.25004ZM8.75 9.5V6.00004H7.25V9.5H8.75ZM8.75 6.00004V2.5H7.25V6.00004H8.75ZM11.25 2.50005V6.00004H12.75V2.50005H11.25ZM11.25 6.00004V9.5H12.75V6.00004H11.25ZM9.70711 1.75002L10 1.75L9.99996 0.25L9.70703 0.250016L9.70711 1.75002ZM10 1.75H10.2929V0.25H10V1.75ZM10.9697 2.03033C11.128 2.1887 11.1959 2.33444 11.226 2.42468C11.2415 2.4711 11.2475 2.50487 11.2497 2.52016C11.2508 2.52774 11.2509 2.53045 11.2507 2.52747C11.2506 2.52597 11.2504 2.52301 11.2503 2.51849C11.2502 2.51623 11.2501 2.51357 11.2501 2.5105C11.2501 2.50897 11.25 2.50733 11.25 2.50559C11.25 2.50472 11.25 2.50382 11.25 2.5029C11.25 2.50244 11.25 2.50197 11.25 2.50149C11.25 2.50126 11.25 2.5009 11.25 2.50078C11.25 2.50041 11.25 2.50005 12 2.50005C12.75 2.50005 12.75 2.49968 12.75 2.49931C12.75 2.49918 12.75 2.49881 12.75 2.49856C12.75 2.49805 12.75 2.49754 12.75 2.49702C12.75 2.49597 12.75 2.49489 12.75 2.49378C12.75 2.49155 12.7499 2.48919 12.7499 2.4867C12.7498 2.48171 12.7497 2.47618 12.7495 2.47013C12.7491 2.45804 12.7484 2.44385 12.7474 2.4277C12.7452 2.39543 12.7414 2.35516 12.7347 2.30805C12.7212 2.21395 12.696 2.09146 12.649 1.95037C12.5541 1.66558 12.372 1.3113 12.0303 0.969669L10.9697 2.03033ZM8 2.5C8.75 2.5 8.75 2.50036 8.75 2.50073C8.75 2.50085 8.75 2.50121 8.75 2.50144C8.75 2.50192 8.75 2.50239 8.74999 2.50285C8.74999 2.50377 8.74999 2.50467 8.74998 2.50554C8.74996 2.50728 8.74995 2.50892 8.74992 2.51045C8.74987 2.51352 8.74981 2.51618 8.74973 2.51844C8.74959 2.52297 8.74942 2.52593 8.74932 2.52743C8.74912 2.53041 8.74919 2.5277 8.75027 2.52013C8.75246 2.50485 8.75854 2.47108 8.77401 2.42467C8.80409 2.33445 8.87195 2.18871 9.03033 2.03033L7.96967 0.969667C7.62805 1.31129 7.44591 1.66555 7.35099 1.95033C7.30396 2.09142 7.27879 2.2139 7.26535 2.308C7.25862 2.35511 7.25479 2.39538 7.25264 2.42765C7.25156 2.4438 7.2509 2.45799 7.25051 2.47008C7.25032 2.47613 7.25019 2.48166 7.25011 2.48665C7.25007 2.48914 7.25004 2.4915 7.25003 2.49373C7.25002 2.49484 7.25001 2.49592 7.25001 2.49697C7.25 2.49749 7.25 2.498 7.25 2.49851C7.25 2.49876 7.25 2.49913 7.25 2.49926C7.25 2.49963 7.25 2.5 8 2.5ZM10.2929 1.75C10.3614 1.75 10.4946 1.77401 10.6523 1.83936C10.8101 1.9047 10.9212 1.98186 10.9697 2.03033L12.0303 0.969669C11.8027 0.742001 11.5055 0.569154 11.2264 0.453537C10.9472 0.33792 10.6149 0.25 10.2929 0.25V1.75ZM9.70703 0.250016C9.38509 0.250033 9.05275 0.337948 8.77364 0.453556C8.49453 0.569163 8.19734 0.741999 7.96967 0.969667L9.03033 2.03033C9.07878 1.98188 9.18988 1.90473 9.34765 1.83938C9.50541 1.77404 9.63855 1.75002 9.70711 1.75002L9.70703 0.250016ZM19.75 7.00004C19.75 6.03354 18.9665 5.25004 18 5.25004V6.75004C18.1381 6.75004 18.25 6.86197 18.25 7.00004H19.75ZM18 18.75C18.9665 18.75 19.75 17.9665 19.75 17H18.25C18.25 17.1381 18.1381 17.25 18 17.25V18.75ZM0.25 17C0.25 17.9665 1.0335 18.75 2 18.75V17.25C1.86193 17.25 1.75 17.1381 1.75 17H0.25ZM1.75 7.00004C1.75 6.86197 1.86193 6.75004 2 6.75004V5.25004C1.0335 5.25004 0.25 6.03354 0.25 7.00004H1.75Z" fill="#002A70"/>
</svg>
