<svg width="20" height="19" viewBox="0 0 20 19" fill="none" xmlns="http://www.w3.org/2000/svg">
<path d="M17.5376 4.20394H13.0157V2.74034C13.0157 1.23004 11.6566 0 9.98796 0C8.31929 0 6.96026 1.23004 6.96026 2.74034V4.20394H2.70282C0.395132 4.1716 0.216756 5.16928 0.165147 5.48068L0.0103217 17.3451C-0.024084 17.532 0.0275245 17.7188 0.165147 17.8589C0.30277 17.9991 0.492001 18.0769 0.698435 18.0769H19.2775C19.2775 18.0769 19.2775 18.0769 19.2947 18.0769C19.6904 18.0769 20 17.7967 20 17.4385C20 17.3607 19.9828 17.2984 19.9656 17.2361V5.48068C19.7029 4.54999 18.7337 4.20394 17.5376 4.20394ZM8.37089 2.74034C8.37089 1.9307 9.09341 1.27675 9.98796 1.27675C10.8825 1.27675 11.605 1.9307 11.605 2.74034V4.20394H8.37089V2.74034ZM1.52417 16.8157V5.48068H6.96026V9.04624C6.96026 9.40436 7.26991 9.68462 7.66558 9.68462C8.06124 9.68462 8.37089 9.40436 8.37089 9.04624V5.48068H11.605V9.04624C11.605 9.40436 11.9147 9.68462 12.3103 9.68462C12.706 9.68462 13.0157 9.40436 13.0157 9.04624V5.48068H18.4517V16.8157H1.52417Z" fill="#002A70"/>
</svg>
