<svg width="20" height="20" viewBox="0 0 20 20" fill="none" xmlns="http://www.w3.org/2000/svg">
<g clip-path="url(#clip0)">
<path d="M19.9676 7.69897C19.8907 7.46247 19.6881 7.289 19.4427 7.24954L13.3861 6.27709L10.5896 0.817557C10.4762 0.596211 10.2486 0.457153 10 0.457153C9.75149 0.457153 9.52388 0.596143 9.41048 0.817557L6.61392 6.27709L0.557363 7.24954C0.311909 7.289 0.10935 7.46247 0.0324479 7.69897C-0.044387 7.93533 0.0176332 8.1948 0.193054 8.37096L4.52113 12.7178L3.5746 18.7784C3.53628 19.0241 3.63857 19.2704 3.83972 19.4165C4.04079 19.5627 4.30685 19.5839 4.52854 19.4715L10 16.6984L15.4716 19.4715C15.5662 19.5195 15.6688 19.5431 15.7709 19.5431C15.9083 19.5431 16.045 19.5003 16.1603 19.4165C16.3614 19.2704 16.4637 19.0242 16.4254 18.7784L15.4789 12.7179L19.807 8.37096C19.9824 8.1948 20.0443 7.93533 19.9676 7.69897ZM14.3033 12.0209C14.1544 12.1704 14.0856 12.3819 14.1182 12.5905L14.917 17.7052L10.2994 15.365C10.1112 15.2696 9.8888 15.2696 9.70058 15.365L5.08301 17.7052L5.8818 12.5904C5.91439 12.3818 5.84564 12.1703 5.69675 12.0207L2.04423 8.35244L7.15547 7.5317C7.36389 7.49823 7.54382 7.36752 7.63998 7.17964L9.99998 2.5723L12.36 7.17978C12.4562 7.36766 12.6361 7.49836 12.8445 7.53183L17.9557 8.35257L14.3033 12.0209Z" fill="#002A70"/>
</g>
<defs>
<clipPath id="clip0">
<rect width="20" height="20" fill="white"/>
</clipPath>
</defs>
</svg>
