<svg width="413" height="312" viewBox="0 0 413 312" fill="none" xmlns="http://www.w3.org/2000/svg">
<g opacity="0.35">
<path d="M325.611 171.7L330.605 181.595L323.114 186.543" stroke="#002A70" stroke-linecap="round" stroke-linejoin="round"/>
<path d="M215.743 287.974L208.252 285.5" stroke="#002A70" stroke-linecap="round" stroke-linejoin="round"/>
<path d="M108.371 104.904L103.377 108.615" stroke="#002A70" stroke-linecap="round" stroke-linejoin="round"/>
<path d="M143.33 62.8477V85.1128" stroke="#002A70" stroke-linecap="round" stroke-linejoin="round"/>
<path d="M160.809 90.0607L182.033 80.165L169.548 62.8477L148.323 72.7433" stroke="#002A70" stroke-linecap="round" stroke-linejoin="round"/>
<path d="M333.102 20.7914L358.072 55.4261" stroke="#002A70" stroke-linecap="round" stroke-linejoin="round"/>
<path fill-rule="evenodd" clip-rule="evenodd" d="M51.7991 227.305C51.4584 224.604 49.9068 220.619 48.3208 218.386L27.4606 189.017C27.4606 189.017 24.9636 185.306 21.2181 185.306C17.4725 185.306 8.73301 182.832 8.73301 170.463C3.73899 169.226 -0.00652596 167.989 1.24198 163.041C2.49048 158.093 4.98749 158.093 4.98749 158.093C4.98749 158.093 2.49048 153.145 2.49048 153.145C2.49048 153.145 41.1941 114.8 41.1941 114.8L49.9337 109.852C49.9337 109.852 51.1822 104.904 57.4247 103.667C57.4247 99.9564 57.4247 97.4825 57.4247 97.4825L68.6612 87.5868L264.676 1L340.835 17.0804L365.805 49.2412L358.314 55.426L384.533 90.0607L392.024 86.3499L412 111.089L410.752 116.037L407.006 185.306L399.515 190.254L375.793 186.543V203.861L372.048 206.334H365.805L358.314 210.045V213.756L353.32 217.055C349.873 219.332 343.732 221.509 339.635 221.915L337.059 222.171C335.697 222.305 334.593 221.32 334.593 219.944V217.465C334.593 216.1 333.617 215.573 332.444 216.27L330.499 217.427C329.312 218.132 328.35 219.812 328.35 221.175V229.837L323.229 228.145C321.92 227.713 319.879 227.945 318.713 228.639L308.374 234.784V241.092L299.635 245.917L293.283 244.119C291.964 243.746 289.929 243.975 288.699 244.652L268.422 255.813V259.524C268.422 259.524 265.925 261.997 260.931 260.761C257.185 263.234 254.688 264.471 254.688 264.471V269.419L248.446 273.13L244.7 271.893L242.203 274.367L238.458 273.13L227.221 279.315V283.026L219.73 287.974L218.336 287.513C217.037 287.084 215.018 287.3 213.833 287.991L194.76 299.106V309.002L189.766 311.476L173.449 307.165C172.118 306.813 170.745 305.46 170.386 304.158L167.293 292.921L157.305 291.684L88.5489 271.368C87.2186 270.975 85.5102 269.72 84.7458 268.584L85.0378 269.018C84.2676 267.873 82.5659 266.708 81.2051 266.408L72.4067 264.471L60.8797 270.701C59.6611 271.359 57.6424 271.485 56.3487 270.972L54.7552 270.34C53.4714 269.832 52.2725 268.323 52.0762 266.961L51.1822 260.761L48.1341 257.137C46.3698 255.039 46.0838 251.45 47.5 249.111L48.6852 247.154L45.7224 240.549C44.6006 238.049 45.7623 235.142 48.2657 234.079L52.4307 232.311L51.7991 227.305Z" stroke="#002A70" stroke-linecap="round" stroke-linejoin="round"/>
<path d="M3.49707 159.33C3.49707 159.33 7.24258 160.567 8.49109 164.278C9.73959 167.989 7.24258 170.463 7.24258 170.463" stroke="#002A70" stroke-linecap="round" stroke-linejoin="round"/>
<path fill-rule="evenodd" clip-rule="evenodd" d="M11.4088 157.39C9.79737 155.183 10.0721 151.828 12.027 149.891L31.1737 130.921C33.1266 128.986 35.9284 129.284 37.423 131.572L44.3784 142.222C46.6234 145.66 51.7137 149.256 55.702 150.244L53.5835 149.719C56.2609 150.383 60.0114 152.486 61.9539 154.41L61.6505 154.11C62.6307 155.081 63.4253 156.979 63.4253 158.362V190.503C63.4253 191.881 62.3199 192.994 60.9309 192.99C58.1713 192.983 56.2493 195.162 56.6388 197.863L57.1827 201.635L53.9635 204.825C52.9833 205.796 51.9116 207.681 51.5791 208.999L52.1472 206.748C51.4806 209.389 49.6233 209.727 48.0225 207.535L11.4088 157.39Z" stroke="#002A70" stroke-linecap="round" stroke-linejoin="round"/>
<path fill-rule="evenodd" clip-rule="evenodd" d="M55.7113 140.997C53.7659 142.924 50.8556 142.726 49.1775 140.509L43.9634 133.621C42.3003 131.424 42.6911 128.265 44.8702 126.538L43.2767 127.801C45.4405 126.086 48.6178 126.419 50.3546 128.522L55.2713 134.476C57.0165 136.589 56.856 139.863 54.9086 141.792L55.7113 140.997Z" stroke="#002A70" stroke-linecap="round" stroke-linejoin="round"/>
<path d="M67.7905 122.934C70.7457 121.174 71.1262 116.425 68.6402 112.326C66.1543 108.227 61.7434 106.33 58.7881 108.09C55.8329 109.849 55.4525 114.598 57.9384 118.697C60.4244 122.796 64.8353 124.693 67.7905 122.934Z" stroke="#002A70" stroke-linecap="round" stroke-linejoin="round"/>
<path d="M160.18 147.672C163.135 145.913 163.515 141.164 161.029 137.065C158.543 132.966 154.133 131.069 151.177 132.829C148.222 134.588 147.842 139.337 150.328 143.436C152.814 147.535 157.224 149.432 160.18 147.672Z" stroke="#002A70" stroke-linecap="round" stroke-linejoin="round"/>
<path d="M127.537 188.708C134.308 184.678 135.455 174.253 130.1 165.423C124.745 156.593 114.915 152.702 108.145 156.732C101.375 160.762 100.228 171.188 105.583 180.018C110.938 188.847 120.767 192.738 127.537 188.708Z" stroke="#002A70" stroke-linecap="round" stroke-linejoin="round"/>
<path d="M130.508 265.38C138.123 260.847 139.074 248.56 132.632 237.938C126.19 227.315 114.794 222.379 107.178 226.913C99.5629 231.446 98.6119 243.733 105.054 254.355C111.496 264.978 122.892 269.914 130.508 265.38Z" stroke="#002A70" stroke-linecap="round" stroke-linejoin="round"/>
<path d="M178.495 202.596C181.912 200.562 182.667 195.59 180.181 191.491C177.695 187.392 172.91 185.718 169.493 187.752C166.076 189.787 165.321 194.759 167.807 198.858C170.293 202.957 175.078 204.631 178.495 202.596Z" stroke="#002A70" stroke-linecap="round" stroke-linejoin="round"/>
<path fill-rule="evenodd" clip-rule="evenodd" d="M178.869 201.532C181.488 199.214 181.888 194.797 179.641 191.093C178.057 188.48 175.537 186.853 173.034 186.543C170.415 188.861 170.015 193.278 172.261 196.982C173.846 199.595 176.365 201.222 178.869 201.532Z" stroke="#002A70" stroke-linecap="round" stroke-linejoin="round"/>
<path fill-rule="evenodd" clip-rule="evenodd" d="M166.002 173.557C166.76 174.685 168.159 174.823 169.138 173.853L175.601 167.45C176.574 166.486 176.699 164.826 175.866 163.725L171.37 157.787C170.543 156.694 169.021 156.546 167.994 157.437L161.763 162.838C160.726 163.738 160.498 165.378 161.258 166.509L166.002 173.557Z" stroke="#002A70" stroke-linecap="round" stroke-linejoin="round"/>
<path fill-rule="evenodd" clip-rule="evenodd" d="M90.0943 148.849C91.6231 151.121 94.7265 151.732 97.0187 150.218L97.0652 150.187C105.087 144.889 117.926 145.159 125.726 150.779L137.037 158.929C138.153 159.733 138.711 161.412 138.263 162.746L136.106 169.156C135.667 170.46 136.291 172.002 137.559 172.631L140.555 174.115C141.796 174.73 143.15 174.196 143.593 172.88L144.51 170.155C144.946 168.858 144.878 166.792 144.348 165.516L138.456 151.341C137.409 148.821 134.589 145.756 132.142 144.485L125.82 141.205C117.272 136.768 102.951 135.734 93.8251 138.899L92.46 139.372C88.5451 140.73 87.2231 144.582 89.5331 148.015L90.0943 148.849Z" stroke="#002A70" stroke-linecap="round" stroke-linejoin="round"/>
<path d="M88.3954 125.932C90.464 126.616 92.9724 125.11 93.9949 122.577L93.7082 123.288C94.2217 122.016 95.7299 121.271 97.0419 121.615L134.683 131.487C136.011 131.835 137.354 131.058 137.692 129.722L138.372 127.024C139.042 124.372 137.466 121.592 134.793 120.797L131.89 119.935C129.244 119.148 125.806 116.717 124.197 114.486L123.759 113.877C122.156 111.654 118.96 108.725 116.56 107.298L114.797 106.25C111.248 104.14 105.009 102.43 100.874 102.43H97.1431C94.3805 102.43 91.1372 104.419 89.8973 106.876L89.5192 107.625C88.8986 108.855 87.3238 109.549 86.0073 109.176L82.044 108.054C80.7251 107.681 78.8658 108.161 77.8946 109.123L78.9202 108.107C77.9475 109.071 77.5061 110.884 77.949 112.2L78.8658 114.925C79.3022 116.222 79.6559 118.387 79.6559 119.769V128.385C79.6559 129.763 79.2405 131.909 78.7277 133.179L68.0991 159.505C67.5864 160.775 67.2017 162.905 67.2398 164.262L68.281 201.399C68.3574 204.125 66.3015 206.964 63.628 207.759L58.3416 209.33C57.0121 209.725 55.9343 211.151 55.9343 212.517V229.873C55.9343 231.238 56.7287 233.125 57.7193 234.097L57.8948 234.269C58.8807 235.237 60.7882 235.747 62.1183 235.417L62.2354 235.388C63.5821 235.055 65.3435 235.669 66.1757 236.768L66.9175 237.748C67.747 238.844 68.4194 240.83 68.4194 242.206C68.4194 243.572 67.3561 245.031 66.0685 245.456L67.0247 245.141C65.7264 245.569 63.5578 245.917 62.1708 245.917H60.9344C59.552 245.917 58.4313 247.021 58.4313 248.391V269.452" stroke="#002A70" stroke-linecap="round" stroke-linejoin="round"/>
<path d="M70.9163 264.471C70.9163 264.471 70.9163 263.363 70.9163 262.001V255.809C70.9163 254.445 71.9852 253.736 73.2328 254.199L78.5877 256.189C79.8671 256.664 80.9043 255.947 80.9043 254.592V238.443C80.9043 237.085 81.9676 236.346 83.2551 236.784L82.299 236.459C83.5973 236.9 84.6498 236.126 84.6498 234.8V231.058C84.6498 229.7 85.7759 228.786 87.1238 229.008L94.7262 230.263C97.4355 230.711 99.8325 228.887 100.083 226.161L100.654 219.931C100.779 218.57 101.748 216.779 102.821 215.929L103.205 215.625C105.369 213.91 108.712 214.093 110.649 216.013L112.839 218.182C113.819 219.153 115.683 220.206 117.032 220.54L122.184 221.816C123.519 222.147 125.577 221.835 126.75 221.138L128.696 219.981C129.883 219.276 131.651 219.503 132.613 220.456L136.054 223.866C138.004 225.797 139.269 229.548 138.879 232.249L138.69 233.563C138.494 234.921 138.78 237.049 139.32 238.296L141.097 242.405C141.64 243.661 143.224 244.68 144.562 244.68H148.34C149.71 244.68 150.962 243.559 151.132 242.213L152.7 229.781C153.041 227.079 153.245 222.661 153.157 219.954L152.149 189C152.105 187.643 151.722 185.511 151.279 184.195L149.572 179.121L147.075 182.832L147.619 186.605C148.008 189.303 146.23 190.713 143.651 189.755L138.335 187.78C138.335 187.78 137.087 193.965 130.844 197.676C129.596 201.387 129.647 201.555 129.647 201.555C128.929 204.195 126.276 205.455 123.773 204.392L121.904 203.599C120.636 203.06 119.103 201.622 118.491 200.41L118.228 199.889C117.611 198.667 116.037 197.938 114.698 198.265L114.46 198.323C113.127 198.649 111.028 198.504 109.748 197.992L110.489 198.288C107.941 197.267 106.189 194.254 106.579 191.553L107.123 187.78L99.562 173.868C98.9111 172.671 97.4648 171.093 96.2967 170.321L92.979 168.13C91.8266 167.369 90.387 165.751 89.7753 164.538L89.5124 164.017C88.8954 162.795 88.3953 160.672 88.3953 159.346V155.603C88.3953 154.246 87.951 152.118 87.4112 150.87L85.6339 146.762C85.0904 145.505 84.9622 143.403 85.3337 142.115L89.6438 127.169" stroke="#002A70" stroke-linecap="round" stroke-linejoin="round"/>
<path fill-rule="evenodd" clip-rule="evenodd" d="M134.153 263.012C138.32 257.241 137.978 247.486 132.731 238.834C127.937 230.93 120.4 226.174 113.719 226.126C109.551 231.897 109.894 241.652 115.141 250.304C119.935 258.208 127.472 262.964 134.153 263.012Z" stroke="#002A70" stroke-linecap="round" stroke-linejoin="round"/>
<path d="M141.933 243.443L140.953 249.752C140.115 255.149 143.743 260.687 149.049 262.121L150.777 262.588C152.098 262.945 153.959 264.017 154.93 264.979L155.666 265.708V269.413C155.666 270.783 156.585 272.5 157.753 273.271L161.07 275.463C162.223 276.224 163.742 277.807 164.446 278.969L165.614 280.897C166.326 282.073 166.903 284.122 166.903 285.523V292.921" stroke="#002A70" stroke-linecap="round" stroke-linejoin="round"/>
<path fill-rule="evenodd" clip-rule="evenodd" d="M157.752 179.449C156.39 179.719 155.552 180.997 155.889 182.333L157.177 187.438C157.511 188.761 157.825 190.941 157.878 192.304L158.935 219.524C158.987 220.888 160.139 222.269 161.469 222.598L161.586 222.627C162.933 222.961 164.655 224.168 165.419 225.304L165.127 224.87C165.897 226.014 167.625 226.942 168.999 226.942H170.267C170.267 226.942 171.515 223.231 175.261 223.231C179.006 223.231 184 228.179 182.752 233.127C181.503 238.075 175.261 239.312 171.515 231.89C167.77 230.653 167.712 230.922 167.712 230.922C166.365 230.774 165.273 231.751 165.273 233.127C165.273 234.493 165.885 236.511 166.664 237.668L168.876 240.955C169.644 242.097 170.614 244.055 171.057 245.371L171.974 248.096C172.41 249.393 173.872 250.719 175.202 251.048L175.319 251.077C176.666 251.411 178.606 250.94 179.637 250.039L218.328 216.215C219.366 215.308 219.541 213.692 218.706 212.59L202.98 191.816C202.152 190.721 200.666 190.563 199.636 191.486L184.505 205.05C179.4 209.626 171.767 209.009 167.463 203.678L166.524 202.516C163.075 198.244 162.962 191.237 166.272 186.865L167.77 184.886L163.3 180.457C162.321 179.487 160.44 178.916 159.06 179.19L157.752 179.449Z" stroke="#002A70" stroke-linecap="round" stroke-linejoin="round"/>
<path d="M189.524 309.002V300.343L190.371 299.084C192.662 295.68 191.913 290.837 188.724 288.225C188.724 288.225 188.276 287.974 187.027 286.737C185.779 285.5 183.282 283.026 183.282 274.367V255.828C183.282 253.087 184.898 249.353 186.917 247.463L203.954 231.522C204.948 230.591 206.848 230.146 208.149 230.514L216.024 232.743C220.006 233.871 224.149 231.609 225.296 227.634L225.049 228.492C225.425 227.185 225.013 225.296 224.105 224.247L221.504 221.24C219.701 219.156 220.222 216.41 222.618 215.132L248.521 201.313C249.725 200.671 251.659 200.743 252.819 201.461L256.453 203.712C258.793 205.16 262.041 204.548 263.677 202.388L262.933 203.371C263.762 202.275 263.881 200.427 263.2 199.246L260.675 194.868C259.993 193.686 260.412 192.21 261.621 191.565L289.721 176.574C290.925 175.931 292.788 176.069 293.899 176.895L299.892 181.348C300.995 182.168 302.684 182.045 303.653 181.086L303.872 180.868C304.846 179.904 305.191 178.094 304.651 176.847L302.874 172.738C302.33 171.481 302.861 169.945 304.07 169.3L332.171 154.309C333.375 153.666 335.152 153.94 336.126 154.904L340.067 158.808C341.047 159.78 342.852 160.067 344.076 159.46L344.602 159.2C345.836 158.589 346.435 157.034 345.967 155.798L343.959 150.493C343.479 149.225 344.087 147.663 345.294 147.015L370.851 133.3C372.068 132.647 373.914 132.827 374.984 133.71L378.616 136.709C379.682 137.589 381.34 137.515 382.309 136.555L382.528 136.338C383.502 135.373 383.985 133.529 383.609 132.225L382.476 128.298C382.099 126.992 382.791 125.397 383.997 124.75L411.758 109.852" stroke="#002A70" stroke-linecap="round" stroke-linejoin="round"/>
<path d="M411.758 117.274L406.826 120.066C404.723 121.256 403.019 124.171 403.019 126.542V151.934" stroke="#002A70" stroke-linecap="round" stroke-linejoin="round"/>
<path d="M400.521 190.254L402.507 173.532C402.79 171.154 404.858 168.497 407.078 167.617L409.261 166.752" stroke="#002A70" stroke-linecap="round" stroke-linejoin="round"/>
<path d="M381.794 137.065L368.108 148.688C366.013 150.466 362.148 151.372 359.467 150.708L356.745 150.033C355.409 149.703 353.657 148.55 352.825 147.451L350.581 144.487" stroke="#002A70" stroke-linecap="round" stroke-linejoin="round"/>
<path d="M345.587 159.33L333.094 169.94C330.34 172.278 325.818 172.359 322.994 170.12L315.623 164.278" stroke="#002A70" stroke-linecap="round" stroke-linejoin="round"/>
<path d="M304.387 181.595L292.801 190.614C289.546 193.148 283.66 194.398 281.913 193.965L278.168 197.676" stroke="#002A70" stroke-linecap="round" stroke-linejoin="round"/>
<path d="M275.671 184.069V198.913L278.168 200.15V201.387L269.428 207.571C269.428 207.571 261.937 205.097 250.701 212.519" stroke="#002A70" stroke-linecap="round" stroke-linejoin="round"/>
<path d="M341.842 176.648V205.098C341.842 205.098 341.842 210.045 336.848 210.045C331.854 210.045 330.605 207.571 330.605 207.571" stroke="#002A70" stroke-linecap="round" stroke-linejoin="round"/>
<path d="M351.83 166.752V202.645C351.83 202.645 349.333 206.334 345.587 202.624" stroke="#002A70" stroke-linecap="round" stroke-linejoin="round"/>
<path d="M358.072 169.226L364.315 181.595H368.06" stroke="#002A70" stroke-linecap="round" stroke-linejoin="round"/>
<path d="M355.575 187.78C355.575 187.78 361.818 187.78 369.309 181.595" stroke="#002A70" stroke-linecap="round" stroke-linejoin="round"/>
<path d="M358.072 195.202C358.072 195.202 366.812 193.965 374.303 186.543" stroke="#002A70" stroke-linecap="round" stroke-linejoin="round"/>
<path d="M350.581 164.278L359.321 158.093L353.078 149.435" stroke="#002A70" stroke-linecap="round" stroke-linejoin="round"/>
<path d="M395.527 151.908C395.527 151.908 395.527 153.577 395.527 155.626V161.797C395.527 163.85 397.043 166.266 398.878 167.175L403.018 169.226" stroke="#002A70" stroke-linecap="round" stroke-linejoin="round"/>
<path d="M395.527 151.908L395.661 151.644C396.277 150.424 397.807 149.843 399.1 150.356L403.018 151.908L409.261 149.435" stroke="#002A70" stroke-linecap="round" stroke-linejoin="round"/>
<path d="M295.847 203.861L302.089 208.808C302.089 208.808 304.586 213.756 302.089 218.704C299.592 223.652 297.095 223.652 297.095 223.652C297.095 223.652 294.598 222.415 290.853 224.889C287.107 227.363 288.356 239.732 288.356 239.732" stroke="#002A70" stroke-linecap="round" stroke-linejoin="round"/>
<path d="M251.949 213.756C253.198 214.993 255.695 217.467 253.198 222.415C250.701 227.363 241.961 222.415 241.961 222.415L231.973 228.6L228.228 229.837" stroke="#002A70" stroke-linecap="round" stroke-linejoin="round"/>
<path d="M295.647 205.098L326.86 189.017C326.86 189.017 328.108 201.387 326.86 206.334C325.611 211.282 321.866 213.756 321.866 217.467V227.363" stroke="#002A70" stroke-linecap="round" stroke-linejoin="round"/>
<path d="M255.695 226.912C255.695 226.912 279.416 217.016 284.41 212.068C289.404 207.12 288.156 226.912 280.665 233.096" stroke="#002A70" stroke-linecap="round" stroke-linejoin="round"/>
<path d="M195.767 244.68L219.488 233.548" stroke="#002A70" stroke-linecap="round" stroke-linejoin="round"/>
<path d="M293.15 197.676C293.15 197.676 311.878 189.017 315.623 186.543" stroke="#002A70" stroke-linecap="round" stroke-linejoin="round"/>
<path d="M363.066 161.804L376.8 186.543" stroke="#002A70" stroke-linecap="round" stroke-linejoin="round"/>
<path d="M318.12 169.226V177.885L320.617 180.358L313.126 185.306" stroke="#002A70" stroke-linecap="round" stroke-linejoin="round"/>
<path d="M325.611 171.7L331.854 181.595L323.114 186.543" stroke="#002A70" stroke-linecap="round" stroke-linejoin="round"/>
<path d="M248.204 270.656V261.997L255.695 258.286V263.234" stroke="#002A70" stroke-linecap="round" stroke-linejoin="round"/>
<path d="M220.737 286.737V276.841L228.228 273.13V278.078" stroke="#002A70" stroke-linecap="round" stroke-linejoin="round"/>
<path d="M300.641 244.68V233.547L309.381 228.6V234.784" stroke="#002A70" stroke-linecap="round" stroke-linejoin="round"/>
<path d="M205.755 248.391C210.749 252.102 211.997 253.339 215.743 253.339C219.488 253.339 223.234 254.576 225.731 249.628C228.228 244.68 223.234 240.969 223.234 240.969L220.737 238.495" stroke="#002A70" stroke-linecap="round" stroke-linejoin="round"/>
<path d="M246.955 263.234L240.713 260.76" stroke="#002A70" stroke-linecap="round" stroke-linejoin="round"/>
<path d="M219.488 275.604L213.246 273.13" stroke="#002A70" stroke-linecap="round" stroke-linejoin="round"/>
<path d="M299.393 233.548L293.15 231.074" stroke="#002A70" stroke-linecap="round" stroke-linejoin="round"/>
<path d="M254.446 258.286L248.204 255.812" stroke="#002A70" stroke-linecap="round" stroke-linejoin="round"/>
<path d="M228.228 273.13L223.234 270.656" stroke="#002A70" stroke-linecap="round" stroke-linejoin="round"/>
<path d="M220.737 287.974L213.246 285.5" stroke="#002A70" stroke-linecap="round" stroke-linejoin="round"/>
<path d="M308.132 228.6L300.641 226.126" stroke="#002A70" stroke-linecap="round" stroke-linejoin="round"/>
<path d="M356.824 195.202C356.824 195.202 355.575 197.676 355.575 201.387C355.575 205.098 363.066 206.335 365.563 203.861C368.06 201.387 370.557 200.15 368.06 191.491" stroke="#002A70" stroke-linecap="round" stroke-linejoin="round"/>
<path d="M406.764 151.908L405.793 160.57C405.64 161.935 404.407 163.315 403.077 163.645L402.96 163.674C401.613 164.007 400.521 163.18 400.521 161.804V151.908" stroke="#002A70" stroke-linecap="round" stroke-linejoin="round"/>
<path d="M231.973 239.819C231.973 239.819 244.458 232.397 245.707 231.16C246.955 229.923 249.452 242.292 246.955 248.477C244.458 254.662 240.713 253.425 240.713 253.425C240.713 253.425 233.222 254.662 230.725 262.084" stroke="#002A70" stroke-linecap="round" stroke-linejoin="round"/>
<path fill-rule="evenodd" clip-rule="evenodd" d="M64.7043 212.22C62.6188 214.027 63.0886 216.105 65.7071 216.846L67.2797 217.291C68.5986 217.664 70.662 217.474 71.8844 216.869L77.4391 214.117C78.6634 213.511 80.2411 212.053 80.9448 210.891L82.1123 208.963C82.8242 207.787 82.5085 206.171 81.3988 205.346L80.4098 204.611C79.3038 203.79 77.428 203.609 76.1598 204.237L70.9163 206.834L64.7043 212.22Z" stroke="#002A70" stroke-linecap="round" stroke-linejoin="round"/>
<path d="M108.059 189.017C96.8227 189.017 86.8347 200.15 86.8347 200.15L81.8407 197.676C81.8407 197.676 78.0952 164.278 85.5862 144.487" stroke="#002A70" stroke-linecap="round" stroke-linejoin="round"/>
<path fill-rule="evenodd" clip-rule="evenodd" d="M99.5966 109.948C102.094 111.185 103.342 112.422 103.342 114.896C103.342 117.37 103.342 119.844 98.3481 119.844C93.3541 119.844 97.0996 108.711 99.5966 109.948Z" stroke="#002A70" stroke-linecap="round" stroke-linejoin="round"/>
<path d="M109.891 104.904L106.9 107.127C105.794 107.949 105.542 109.509 106.345 110.623L109.692 115.265C110.491 116.375 112.246 117.117 113.621 116.923L117.398 116.388C118.768 116.194 120.995 116.037 122.382 116.037H126.122" stroke="#002A70" stroke-linecap="round" stroke-linejoin="round"/>
<path fill-rule="evenodd" clip-rule="evenodd" d="M78.3026 88.1773C76.9814 88.5343 76.1875 89.9218 76.52 91.2396L76.5493 91.3556C76.886 92.6899 78.2642 93.7715 79.6533 93.7715H84.6499L86.6324 95.7356C87.6061 96.7003 89.5215 97.4824 90.8694 97.4824H100.904C102.27 97.4824 104.455 97.8382 105.751 98.2664L115.986 101.646C117.297 102.079 119.14 103.203 120.134 104.189L121.579 105.62C122.559 106.591 124.384 106.97 125.678 106.457L127.272 105.825C128.555 105.317 130.489 105.568 131.599 106.392L132.588 107.127C133.694 107.949 135.384 107.828 136.353 106.868L136.573 106.651C137.546 105.686 139.195 104.195 140.265 103.311L143.898 100.312C144.963 99.4324 144.701 98.5334 143.353 98.3108L133.319 96.6539C131.952 96.4283 129.726 96.1223 128.351 95.9709L122.102 95.283C120.725 95.1314 118.545 95.3596 117.257 95.7848L115.863 96.2454L105.785 93.2501C104.455 92.8549 104.168 91.7518 105.139 90.7895L104.113 91.8057C105.086 90.8419 104.81 89.736 103.48 89.3306L94.4259 86.5706C91.7849 85.7655 87.4981 85.6927 84.8406 86.4107L78.3026 88.1773Z" stroke="#002A70" stroke-linecap="round" stroke-linejoin="round"/>
<path fill-rule="evenodd" clip-rule="evenodd" d="M101.859 78.921C100.615 79.4858 100.552 80.5679 101.699 81.3253L101.261 81.036C102.416 81.799 103.707 83.471 104.136 84.7466L103.817 83.7994C104.25 85.0857 105.697 86.3926 107.019 86.7113L148.377 96.6782C149.713 97.0001 151.911 97.1137 153.282 96.9325L167.036 95.1156C168.41 94.9342 170.533 94.3369 171.783 93.7795L192.233 84.6621C193.481 84.1056 193.988 82.6533 193.376 81.4411L193.113 80.9201C192.496 79.6977 193.033 78.2501 194.27 77.7054L198.662 75.7713C201.186 74.6599 205.438 74.071 208.164 74.4569L209.491 74.6447C210.861 74.8386 212.982 74.4956 214.188 73.8981L234.726 63.724C235.95 63.1177 236.665 61.5282 236.333 60.2104L236.303 60.0944C235.967 58.7601 236.731 57.2382 237.99 56.7035L242.137 54.9426C243.405 54.4041 245.54 54.1047 246.902 54.2734L251.952 54.8988C253.316 55.0677 255.441 54.7262 256.696 54.1371L275.868 45.1394C277.125 44.5499 277.349 43.285 276.38 42.3252L276.16 42.1079C275.187 41.1432 275.392 39.8686 276.614 39.263L282.169 36.5114C283.393 35.9049 285.492 35.5504 286.854 35.719L291.905 36.3445C293.268 36.5133 295.383 36.15 296.589 35.5525L317.128 25.3784C318.351 24.7722 318.388 23.7457 317.185 23.072L292.786 9.40892C291.594 8.7414 289.507 8.31133 288.141 8.44663L255.659 11.6648C254.286 11.8008 252.154 12.3363 250.855 12.878L231.769 20.8399C230.489 21.3739 229.728 22.9049 230.061 24.2227L230.09 24.3387C230.427 25.6729 229.669 27.1631 228.375 27.6758L226.782 28.3073C225.498 28.8161 223.35 29.2285 221.937 29.2285H216.99C215.598 29.2285 213.441 29.6649 212.188 30.197L190.531 39.3926C189.272 39.9275 188.605 41.4146 189.034 42.6902L188.715 41.7429C189.148 43.0292 188.462 44.5122 187.203 45.047L183.056 46.8078C181.788 47.3463 179.654 47.7828 178.265 47.7828H175.763C174.385 47.7828 172.247 48.179 170.943 48.6844L146.879 58.0138C145.594 58.5118 144.83 60.0135 145.163 61.3314L145.192 61.4473C145.529 62.7816 144.765 64.3035 143.505 64.8382L139.358 66.5991C138.09 67.1376 135.957 67.3916 134.609 67.1691L132.024 66.7422C130.669 66.5185 128.574 66.7899 127.319 67.3598L101.859 78.921Z" stroke="#002A70" stroke-linecap="round" stroke-linejoin="round"/>
<path d="M144.578 62.8477V81.38C144.578 85.4911 141.626 87.1987 138.042 85.226L137.718 85.0478C135.301 83.7174 131.603 81.2607 129.424 79.5335L129.04 79.2295C127.968 78.3799 126.075 78.1087 124.787 78.6342L105.875 86.3498" stroke="#002A70" stroke-linecap="round" stroke-linejoin="round"/>
<path d="M188.276 43.0565V60.373C188.276 64.4724 185.323 66.1706 181.739 64.1978L181.416 64.0197C178.998 62.6893 175.3 60.2325 173.121 58.5053L172.737 58.2014C171.666 57.3517 169.787 57.1132 168.537 57.6705L145.826 67.7956" stroke="#002A70" stroke-linecap="round" stroke-linejoin="round"/>
<path d="M230.725 25.7391V43.0557C230.725 47.155 227.773 48.8533 224.188 46.8805L223.865 46.7024C221.448 45.372 217.749 42.9152 215.57 41.188L215.187 40.884C214.115 40.0344 212.236 39.8459 211.03 40.4434L188.276 51.7152" stroke="#002A70" stroke-linecap="round" stroke-linejoin="round"/>
<path d="M230.725 32.486L250.886 23.5335C252.174 23.008 254.067 23.2792 255.139 24.1288L255.522 24.4328C257.702 26.16 261.337 28.7125 263.676 30.1611L264.96 30.9562C267.407 32.4714 269.428 33.723 269.428 33.723C269.428 33.723 274.423 37.4339 284.411 36.1969" stroke="#002A70" stroke-linecap="round" stroke-linejoin="round"/>
<path d="M145.826 67.7955L159.372 86.8075C160.165 87.9211 161.832 88.3465 163.08 87.7648L179.762 79.9871C181.016 79.4023 181.389 78.0246 180.597 76.9119L167.051 57.8999" stroke="#002A70" stroke-linecap="round" stroke-linejoin="round"/>
<path d="M188.276 50.4782L200.539 67.0468C201.351 68.1435 203.027 68.5282 204.223 67.9357L219.771 60.2337C220.994 59.6279 221.323 58.2419 220.516 57.1512L208.252 40.5825" stroke="#002A70" stroke-linecap="round" stroke-linejoin="round"/>
<path d="M230.725 31.9238L243.04 49.6716C243.824 50.8002 245.465 51.2496 246.717 50.6707L260.927 44.1009C262.175 43.524 262.56 42.1546 261.768 41.0129L249.452 23.2651" stroke="#002A70" stroke-linecap="round" stroke-linejoin="round"/>
<path d="M125.851 77.6913L135.839 92.5347" stroke="#002A70" stroke-linecap="round" stroke-linejoin="round"/>
<path d="M339.345 15.8434L148.323 106.141L224.482 212.519" stroke="#002A70" stroke-linecap="round" stroke-linejoin="round"/>
<path d="M335.599 20.7914L359.321 54.1892" stroke="#002A70" stroke-linecap="round" stroke-linejoin="round"/>
<path d="M388.036 90.0608L406.764 113.563" stroke="#002A70" stroke-linecap="round" stroke-linejoin="round"/>
<path fill-rule="evenodd" clip-rule="evenodd" d="M174.745 104.772C174.745 103.406 175.755 101.798 176.961 101.2L197.5 91.0261C198.723 90.4199 200.41 90.7884 201.268 91.8514L203.157 94.1902C204.014 95.2522 205.685 95.5333 206.858 94.8361L208.804 93.6794C209.99 92.9741 210.54 91.381 210.022 90.0993L209.385 88.5205C208.871 87.2486 209.464 85.7363 210.719 85.1375L239.9 71.2172C241.151 70.6207 242.955 70.9204 243.937 71.8929L246.635 74.5661C247.614 75.5358 249.3 75.6585 250.41 74.8339L251.399 74.099C252.505 73.2772 252.989 71.5897 252.471 70.308L251.834 68.7292C251.32 67.4573 251.911 65.9274 253.135 65.321L281.134 51.4511C282.366 50.8407 284.06 51.2058 284.918 52.2688L286.807 54.6076C287.664 55.6697 289.252 55.8672 290.362 55.0426L291.351 54.3077C292.457 53.4859 292.941 51.7985 292.424 50.5168L291.786 48.938C291.273 47.6661 291.866 46.1848 293.116 45.6274L313.566 36.51C314.815 35.9535 316.842 36.0055 318.056 36.607L316.094 35.6348C317.325 36.2448 319.411 36.5239 320.791 36.2505L322.099 35.9913C323.461 35.7213 325.268 36.3724 326.113 37.4181L334.869 48.2623C337.453 51.4625 336.638 55.7043 333.059 57.7303L332.969 57.7815C331.776 58.4569 329.906 58.3659 328.781 57.5701L324.096 54.2542C322.976 53.462 321.058 53.3204 319.835 53.9265L319.309 54.187C318.075 54.7982 317.342 56.3527 317.679 57.6891L318.967 62.7938C319.301 64.1168 318.562 65.6897 317.324 66.3028L294.353 77.6823C293.111 78.2973 291.218 78.1372 290.108 77.3117L284.114 72.8581C283.011 72.0385 281.141 71.9539 279.968 72.6511L278.023 73.8079C276.836 74.5132 276.275 76.1439 276.743 77.3801L278.751 82.6854C279.231 83.953 278.598 85.4648 277.366 86.0483L253.157 97.5194C251.913 98.1091 249.985 97.9797 248.843 97.2258L241.729 92.5266C240.59 91.7748 238.692 91.7452 237.519 92.4424L235.573 93.5991C234.387 94.3044 233.826 95.9352 234.294 97.1713L236.302 102.477C236.782 103.744 236.182 105.283 234.965 105.912L210.661 118.475C209.442 119.105 207.535 119.008 206.394 118.254L199.279 113.555C198.141 112.803 196.243 112.773 195.07 113.471L193.124 114.627C191.938 115.333 191.243 116.963 191.58 118.3L192.868 123.405C193.202 124.728 192.504 126.348 191.313 127.023L191.222 127.074C187.639 129.103 182.59 128.169 179.957 125.002L170.42 113.528C168.671 111.425 169.106 108.497 171.394 106.985L174.745 104.772Z" stroke="#002A70" stroke-linecap="round" stroke-linejoin="round"/>
<path d="M320.617 52.9521L308.132 64.0847" stroke="#002A70" stroke-linecap="round" stroke-linejoin="round"/>
<path d="M279.416 72.7434L268.18 82.639" stroke="#002A70" stroke-linecap="round" stroke-linejoin="round"/>
<path d="M235.719 92.5347L225.731 103.667" stroke="#002A70" stroke-linecap="round" stroke-linejoin="round"/>
<path d="M193.27 114.8L183.282 124.695" stroke="#002A70" stroke-linecap="round" stroke-linejoin="round"/>
<path d="M206.178 92.5347L205.914 93.8463C205.37 96.5377 206.263 100.48 207.941 102.697L216.166 113.563" stroke="#002A70" stroke-linecap="round" stroke-linejoin="round"/>
<path d="M250.701 75.2173V77.6912C250.701 79.0575 251.356 81.0579 252.175 82.1728L260.689 93.7716" stroke="#002A70" stroke-linecap="round" stroke-linejoin="round"/>
<path d="M290.653 55.426V56.6824C290.653 58.038 291.308 60.0297 292.127 61.1446L300.641 72.7434" stroke="#002A70" stroke-linecap="round" stroke-linejoin="round"/>
<path d="M213.385 107.378C213.385 107.378 212.136 99.9564 217.13 99.9564C222.124 99.9564 225.87 103.667 225.87 108.615" stroke="#002A70" stroke-linecap="round" stroke-linejoin="round"/>
<path d="M255.834 87.5869C255.834 87.5869 254.585 80.1652 259.579 80.1652C264.573 80.1652 268.319 83.876 268.319 88.8238" stroke="#002A70" stroke-linecap="round" stroke-linejoin="round"/>
<path d="M298.23 68.1489C298.23 68.1489 297.457 62.8477 300.548 62.8477C303.639 62.8477 306.884 66.7352 306.884 70.2694" stroke="#002A70" stroke-linecap="round" stroke-linejoin="round"/>
<path d="M248.892 185.444C258.928 177.101 257.003 158.459 244.593 143.806C232.183 129.152 213.987 124.037 203.951 132.381C193.915 140.724 195.839 159.366 208.249 174.019C220.66 188.672 238.856 193.787 248.892 185.444Z" stroke="#002A70" stroke-linecap="round" stroke-linejoin="round"/>
<path d="M291.276 162.963C300.784 155.058 298.791 137.196 286.824 123.067C274.857 108.937 257.448 103.89 247.94 111.794C238.432 119.698 240.426 137.561 252.393 151.69C264.36 165.82 281.769 170.867 291.276 162.963Z" stroke="#002A70" stroke-linecap="round" stroke-linejoin="round"/>
<path d="M331.164 142.955C340.144 135.49 338.081 118.408 326.558 104.802C315.034 91.1953 298.413 86.2167 289.433 93.6818C280.453 101.147 282.516 118.229 294.04 131.835C305.563 145.442 322.185 150.42 331.164 142.955Z" stroke="#002A70" stroke-linecap="round" stroke-linejoin="round"/>
<path d="M370.16 119.895C378.611 112.869 376.121 96.143 364.597 82.5366C353.073 68.9302 336.88 63.5956 328.429 70.6216C319.977 77.6475 322.468 94.3733 333.992 107.98C345.516 121.586 361.709 126.921 370.16 119.895Z" stroke="#002A70" stroke-linecap="round" stroke-linejoin="round"/>
<path fill-rule="evenodd" clip-rule="evenodd" d="M213.001 182.618C211.757 182.053 211.414 182.474 212.247 183.574L216.742 189.512C217.569 190.605 219.345 191.491 220.734 191.491H223.237C224.614 191.491 226.706 192.071 227.879 192.768L229.825 193.925C231.012 194.63 233.116 195.202 234.454 195.202H238.232C239.602 195.202 239.716 194.749 238.461 194.179L213.001 182.618Z" stroke="#002A70" stroke-linecap="round" stroke-linejoin="round"/>
<path fill-rule="evenodd" clip-rule="evenodd" d="M260.58 184.63C259.261 185.004 258.323 184.205 258.483 182.853L260.398 166.731C260.558 165.376 261.77 164.616 263.05 165.017L282.049 170.961C283.353 171.369 283.435 172.28 282.262 172.977L280.316 174.134C279.13 174.839 277.249 174.804 276.081 174.032L272.764 171.841C271.611 171.08 269.561 170.463 268.174 170.463H266.938C265.555 170.463 264.08 171.516 263.651 172.792L263.97 171.845C263.537 173.131 263.63 175.201 264.17 176.449L265.947 180.557C266.491 181.814 265.86 183.136 264.543 183.508L260.58 184.63Z" stroke="#002A70" stroke-linecap="round" stroke-linejoin="round"/>
<path fill-rule="evenodd" clip-rule="evenodd" d="M303.029 164.839C301.71 165.212 300.772 164.414 300.932 163.062L302.847 146.94C303.008 145.585 304.219 144.825 305.499 145.226L324.498 151.17C325.803 151.578 325.884 152.488 324.711 153.186L322.766 154.342C321.579 155.048 319.699 155.013 318.531 154.241L315.213 152.05C314.06 151.289 312.01 150.672 310.623 150.672H309.387C308.004 150.672 306.529 151.725 306.1 153.001L306.419 152.053C305.986 153.34 306.079 155.41 306.619 156.657L308.397 160.766C308.94 162.023 308.309 163.344 306.993 163.717L303.029 164.839Z" stroke="#002A70" stroke-linecap="round" stroke-linejoin="round"/>
<path fill-rule="evenodd" clip-rule="evenodd" d="M342.981 142.574C341.662 142.947 340.724 142.149 340.885 140.796L342.799 124.675C342.96 123.32 344.171 122.56 345.452 122.96L364.451 128.905C365.755 129.313 365.836 130.223 364.664 130.92L362.718 132.077C361.531 132.782 359.651 132.747 358.483 131.976L355.165 129.785C354.013 129.023 351.962 128.406 350.575 128.406H349.339C347.956 128.406 346.481 129.46 346.052 130.735L346.371 129.788C345.938 131.074 346.032 133.144 346.571 134.392L348.349 138.501C348.892 139.757 348.261 141.079 346.945 141.452L342.981 142.574Z" stroke="#002A70" stroke-linecap="round" stroke-linejoin="round"/>
<path fill-rule="evenodd" clip-rule="evenodd" d="M177.039 137.065L183.282 130.88L170.797 119.748L165.802 122.221L177.039 137.065Z" stroke="#002A70" stroke-linecap="round" stroke-linejoin="round"/>
<path fill-rule="evenodd" clip-rule="evenodd" d="M188.408 137.39C187.971 136.091 188.653 134.598 189.913 134.063L194.06 132.302C195.328 131.764 196.262 132.443 196.15 133.778L195.314 143.72C195.2 145.073 195.21 147.284 195.334 148.635L196.13 157.313C196.255 158.674 195.955 158.718 195.487 157.482L193.479 152.177C193 150.909 192.251 148.814 191.819 147.53L188.408 137.39Z" stroke="#002A70" stroke-linecap="round" stroke-linejoin="round"/>
<path fill-rule="evenodd" clip-rule="evenodd" d="M217.891 122.181C216.705 122.887 216.789 123.847 218.073 124.324L233.388 130.014C234.675 130.493 236.664 130.256 237.811 129.499L237.372 129.788C238.528 129.025 239.539 127.301 239.63 125.943L240.547 112.316C240.639 110.955 239.737 110.432 238.564 111.129L236.619 112.286C235.432 112.991 234.737 114.622 235.075 115.958L236.363 121.063C236.697 122.386 236.022 124.083 234.875 124.84L235.314 124.551C234.158 125.314 232.18 125.588 230.852 125.15L228.101 124.241C226.792 123.809 224.936 122.672 223.968 121.712L223.748 121.494C222.775 120.53 221.01 120.328 219.837 121.025L217.891 122.181Z" stroke="#002A70" stroke-linecap="round" stroke-linejoin="round"/>
<path fill-rule="evenodd" clip-rule="evenodd" d="M260.348 100.81C259.157 101.504 259.263 102.457 260.542 102.923L273.82 107.759C275.118 108.232 277.092 108.019 278.248 107.27L277.464 107.777C278.611 107.035 279.619 105.307 279.712 103.946L280.494 92.5473C280.589 91.1741 279.686 90.6312 278.509 91.3174L277.203 92.0786C276.012 92.7726 275.322 94.4058 275.661 95.7211L276.68 99.6807C277.019 100.998 276.373 102.663 275.217 103.412L276 102.904C274.853 103.647 272.87 103.908 271.565 103.486L269.539 102.83C268.237 102.408 266.399 101.307 265.397 100.334L265.594 100.525C264.609 99.5682 262.832 99.3627 261.654 100.049L260.348 100.81Z" stroke="#002A70" stroke-linecap="round" stroke-linejoin="round"/>
<path fill-rule="evenodd" clip-rule="evenodd" d="M300.3 81.0185C299.109 81.7125 299.215 82.6651 300.494 83.1312L313.772 87.9676C315.07 88.4404 317.044 88.2272 318.2 87.4785L317.416 87.986C318.563 87.2431 319.571 85.5155 319.664 84.1543L320.447 72.7558C320.541 71.3826 319.639 70.8397 318.461 71.5259L317.155 72.2871C315.964 72.9811 315.274 74.6143 315.613 75.9296L316.632 79.8892C316.971 81.2069 316.325 82.8716 315.169 83.6202L315.953 83.1128C314.805 83.8557 312.822 84.1169 311.517 83.6945L309.491 83.0386C308.189 82.6169 306.351 81.5157 305.349 80.5421L305.547 80.7338C304.561 79.7767 302.784 79.5711 301.606 80.2574L300.3 81.0185Z" stroke="#002A70" stroke-linecap="round" stroke-linejoin="round"/>
<path fill-rule="evenodd" clip-rule="evenodd" d="M340.263 61.5664C339.066 60.9078 339.107 59.8732 340.33 59.2672L340.856 59.0067C342.09 58.3955 343.993 58.5385 345.117 59.3344L349.803 62.6503C350.922 63.4425 352.917 63.8693 354.297 63.5959L355.605 63.3367C356.968 63.0667 358.879 63.6468 359.841 64.6L366.812 71.5065L366.678 71.7712C366.063 72.9913 364.548 73.5161 363.307 72.9484L351.59 67.5906C350.343 67.0207 348.375 66.0313 347.166 65.3662L340.263 61.5664Z" stroke="#002A70" stroke-linecap="round" stroke-linejoin="round"/>
<path fill-rule="evenodd" clip-rule="evenodd" d="M378.062 98.2474C377.924 96.8874 378.876 95.4338 380.164 95.0086L381.558 94.548L387.801 104.444V106.918L385.041 108.285C383.807 108.896 383.113 110.453 383.489 111.757L384.622 115.684C384.999 116.991 384.674 118.987 383.909 120.123L382.807 121.761L380.31 120.524L378.062 98.2474Z" stroke="#002A70" stroke-linecap="round" stroke-linejoin="round"/>
<path d="M88.3953 270.656V276.841L92.1408 278.078L95.8863 276.841V273.13" stroke="#002A70" stroke-linecap="round" stroke-linejoin="round"/>
<path d="M98.3833 273.13V276.841C98.3833 276.841 99.6318 280.552 105.874 278.078V275.604" stroke="#002A70" stroke-linecap="round" stroke-linejoin="round"/>
<path d="M145.826 287.974V291.684C145.826 291.684 150.82 295.395 154.566 290.447" stroke="#002A70" stroke-linecap="round" stroke-linejoin="round"/>
<path d="M155.815 290.447V294.152C155.815 295.522 156.957 296.632 158.296 296.632H161.448C163.164 296.632 164.554 295.228 164.554 293.527V291.684" stroke="#002A70" stroke-linecap="round" stroke-linejoin="round"/>
<path d="M90.8923 278.078V285.5H94.6378V278.078" stroke="#002A70" stroke-linecap="round" stroke-linejoin="round"/>
<path d="M158.312 297.869V306.528H162.057V297.869" stroke="#002A70" stroke-linecap="round" stroke-linejoin="round"/>
</g>
</svg>
