<svg width="40" height="40" viewBox="0 0 40 40" fill="none" xmlns="http://www.w3.org/2000/svg">
<path d="M38.3483 5H1.65106C1.0878 5 0.626953 5.46085 0.626953 6.02411C0.626953 6.58737 1.0878 7.04822 1.65106 7.04822H3.86143V34.1544C3.86143 34.5299 4.06625 34.8798 4.39909 35.059C4.73192 35.2382 5.13303 35.2211 5.4488 35.0078L9.89514 32.0464L14.3586 35.0163C14.6999 35.2467 15.1522 35.2467 15.4936 35.0163L19.9399 32.0549L24.4034 35.0249C24.7447 35.2553 25.197 35.2553 25.5384 35.0249L29.9848 32.0635L34.4482 35.0334C34.6188 35.1443 34.8151 35.2041 35.0114 35.2041C35.1736 35.2041 35.3443 35.1614 35.4979 35.0846C35.8307 34.9054 36.0355 34.5555 36.0355 34.18L36.0185 7.07382H38.3483C38.9116 7.07382 39.3724 6.61297 39.3724 6.04971C39.3724 5.48645 38.9116 5 38.3483 5ZM33.9958 32.2427L30.5565 29.9555C30.2152 29.7251 29.7629 29.7251 29.4215 29.9555L24.9751 32.9254L20.5117 29.9555C20.1704 29.7251 19.7181 29.7251 19.3767 29.9555L14.9303 32.9169L10.4669 29.9555C10.1256 29.7251 9.67325 29.7251 9.33188 29.9555L5.90965 32.2342V7.03968H33.9873L33.9958 32.2427Z" fill="#002A70"/>
<path d="M10.6218 21.3517H21.3493C21.9126 21.3517 22.3734 20.8908 22.3734 20.3276C22.3734 19.7643 21.9126 19.3035 21.3493 19.3035H10.6218C10.0585 19.3035 9.59766 19.7643 9.59766 20.3276C9.59766 20.8908 10.05 21.3517 10.6218 21.3517Z" fill="#002A70"/>
<path d="M10.6218 24.9104H18.661C19.2243 24.9104 19.6851 24.4496 19.6851 23.8863C19.6851 23.323 19.2243 22.8622 18.661 22.8622H10.6218C10.0585 22.8622 9.59766 23.323 9.59766 23.8863C9.59766 24.4496 10.05 24.9104 10.6218 24.9104Z" fill="#002A70"/>
<path d="M26.7077 21.3517H29.3875C29.9507 21.3517 30.4116 20.8908 30.4116 20.3276C30.4116 19.7643 29.9507 19.3035 29.3875 19.3035H26.7077C26.1444 19.3035 25.6836 19.7643 25.6836 20.3276C25.6836 20.8908 26.1359 21.3517 26.7077 21.3517Z" fill="#002A70"/>
<path d="M26.7077 24.9104H29.3875C29.9507 24.9104 30.4116 24.4496 30.4116 23.8863C30.4116 23.323 29.9507 22.8622 29.3875 22.8622H26.7077C26.1444 22.8622 25.6836 23.323 25.6836 23.8863C25.6836 24.4496 26.1359 24.9104 26.7077 24.9104Z" fill="#002A70"/>
<path d="M10.6218 13.1332H21.3493C21.9126 13.1332 22.3734 12.6723 22.3734 12.1091C22.3734 11.5458 21.9126 11.085 21.3493 11.085H10.6218C10.0585 11.085 9.59766 11.5458 9.59766 12.1091C9.59766 12.6723 10.05 13.1332 10.6218 13.1332Z" fill="#002A70"/>
<path d="M10.6218 16.6833H18.661C19.2243 16.6833 19.6851 16.2225 19.6851 15.6592C19.6851 15.096 19.2243 14.6351 18.661 14.6351H10.6218C10.0585 14.6351 9.59766 15.096 9.59766 15.6592C9.59766 16.2225 10.05 16.6833 10.6218 16.6833Z" fill="#002A70"/>
<path d="M26.7077 13.1332H29.3875C29.9507 13.1332 30.4116 12.6723 30.4116 12.1091C30.4116 11.5458 29.9507 11.085 29.3875 11.085H26.7077C26.1444 11.085 25.6836 11.5458 25.6836 12.1091C25.6836 12.6723 26.1359 13.1332 26.7077 13.1332Z" fill="#002A70"/>
<path d="M26.7077 16.6833H29.3875C29.9507 16.6833 30.4116 16.2225 30.4116 15.6592C30.4116 15.096 29.9507 14.6351 29.3875 14.6351H26.7077C26.1444 14.6351 25.6836 15.096 25.6836 15.6592C25.6836 16.2225 26.1359 16.6833 26.7077 16.6833Z" fill="#002A70"/>
</svg>
