<svg width="26" height="26" viewBox="0 0 26 26" fill="none" xmlns="http://www.w3.org/2000/svg">
<path d="M10.3848 23.3393V25.9726L9.74802 25.4583C9.64963 25.3787 7.30873 23.4782 4.93491 20.7529C1.66031 16.9933 0 13.6185 0 10.7226V10.4355C0 4.70937 4.65858 0.0507812 10.3848 0.0507812C16.1109 0.0507812 20.7695 4.70937 20.7695 10.4355V10.7226C20.7695 10.9658 20.7566 11.2127 20.7332 11.4627L18.7024 9.60995C18.2864 5.38718 14.7151 2.07707 10.3848 2.07707C5.77597 2.07707 2.02629 5.82675 2.02629 10.4355V10.7226C2.02629 15.6162 8.3315 21.5404 10.3848 23.3393ZM16.6156 21.8839H19.6549V18.8446H16.6156V21.8839ZM10.3848 6.12965C12.759 6.12965 14.6907 8.06133 14.6907 10.4355C14.6907 12.8098 12.759 14.7414 10.3848 14.7414C8.01054 14.7414 6.07887 12.8098 6.07887 10.4355C6.07887 8.06133 8.01054 6.12965 10.3848 6.12965ZM10.3848 8.15594C9.12773 8.15594 8.10516 9.17851 8.10516 10.4355C8.10516 11.6924 9.12773 12.7151 10.3848 12.7151C11.6416 12.7151 12.6644 11.6924 12.6644 10.4355C12.6644 9.17851 11.6416 8.15594 10.3848 8.15594ZM24.6345 20.5071L24.0648 19.9874V23.2404C24.0648 24.7551 22.8323 25.9873 21.3176 25.9873H14.9023C13.3876 25.9873 12.1552 24.7551 12.1552 23.2404V19.9874L11.5855 20.5071L10.2199 19.0102L18.1099 11.8122L26 19.0102L24.6345 20.5071ZM22.0385 18.1388L18.1099 14.555L14.1815 18.1388V23.2402C14.1815 23.6377 14.5048 23.961 14.9023 23.961H21.3176C21.7151 23.961 22.0385 23.6377 22.0385 23.2402V18.1388Z" fill="#002A70"/>
</svg>
