<svg width="40" height="40" viewBox="0 0 40 40" fill="none" xmlns="http://www.w3.org/2000/svg">
<g clip-path="url(#clip0)">
<path d="M38.2399 14.0834C37.1597 12.9132 35.6212 12.2667 33.9109 12.2667H29.7947V10.0408C29.7947 9.50074 29.3528 9.05884 28.8127 9.05884H9.20552C8.66542 9.05884 8.22352 9.50074 8.22352 10.0408V13.4615H4.40192C3.86182 13.4615 3.41992 13.9034 3.41992 14.4435C3.41992 14.9836 3.86182 15.4254 4.40192 15.4254H9.18097C9.18915 15.4254 9.19734 15.4254 9.20552 15.4254C9.20552 15.4254 9.20552 15.4254 9.2137 15.4254C9.7538 15.4254 10.1957 14.9836 10.1957 14.4435V11.0228H27.8389V13.2487V26.4156H18.5918C18.5509 26.4156 18.5099 26.4156 18.469 26.4238C17.978 25.2127 16.7914 24.3534 15.4085 24.3534C14.0173 24.3534 12.8307 25.2209 12.3479 26.4402C12.2743 26.4238 12.2088 26.4156 12.1351 26.4156H10.1957V22.9868C10.1957 22.4467 9.7538 22.0048 9.2137 22.0048C9.19734 22.0048 9.18097 22.0048 9.1646 22.0048C9.14824 22.0048 9.14005 22.0048 9.12369 22.0048H4.40192C3.86182 22.0048 3.41992 22.4467 3.41992 22.9868C3.41992 23.5269 3.86182 23.9688 4.40192 23.9688H8.22352V27.3894C8.22352 27.9295 8.66542 28.3714 9.20552 28.3714H12.127C12.1515 28.3714 12.1679 28.3714 12.1924 28.3714C12.5198 29.8444 13.8373 30.941 15.4085 30.941C16.9797 30.941 18.289 29.8444 18.6245 28.3714H28.8209H30.3921C30.7276 29.8363 32.0369 30.941 33.6081 30.941C35.1793 30.941 36.4887 29.8444 36.8242 28.3714H39.0173C39.5574 28.3714 39.9993 27.9295 39.9993 27.3894V19.2307C39.9993 17.1112 39.3856 15.3273 38.2399 14.0834ZM15.4085 28.9852C14.672 28.9852 14.0746 28.3878 14.0746 27.6513C14.0746 26.9148 14.672 26.3174 15.4085 26.3174C16.145 26.3174 16.7423 26.9148 16.7423 27.6513C16.7423 28.3878 16.145 28.9852 15.4085 28.9852ZM33.6081 28.9852C32.8716 28.9852 32.2743 28.3878 32.2743 27.6513C32.2743 26.9148 32.8716 26.3174 33.6081 26.3174C34.3446 26.3174 34.942 26.9148 34.942 27.6513C34.9338 28.3878 34.3365 28.9852 33.6081 28.9852ZM38.0353 26.4156H36.6605C36.1695 25.2127 34.9829 24.3534 33.6081 24.3534C32.2333 24.3534 31.0468 25.2045 30.5558 26.4156H29.8029V14.2307H33.9191C36.4968 14.2307 38.0353 16.1047 38.0353 19.2389V26.4156Z" fill="#002A70"/>
<path d="M16.8658 20.5564C16.4812 20.941 16.4812 21.5629 16.8658 21.9476C17.054 22.1358 17.3077 22.234 17.5614 22.234C17.8151 22.234 18.0606 22.1358 18.257 21.9476L20.7856 19.4189L20.7938 19.4107C20.8101 19.3862 20.8347 19.3698 20.8511 19.3453C20.8592 19.3289 20.8674 19.3207 20.8756 19.3043C20.8838 19.288 20.892 19.2798 20.9083 19.2634C20.9165 19.2471 20.9247 19.2307 20.9329 19.2143C20.9411 19.198 20.9493 19.1898 20.9574 19.1734C20.9656 19.157 20.9738 19.1407 20.982 19.1243C20.9902 19.1079 20.9984 19.0998 20.9984 19.0834C21.0065 19.067 21.0065 19.0507 21.0147 19.0343C21.0229 19.0179 21.0229 19.0016 21.0311 18.9934C21.0393 18.977 21.0393 18.9606 21.0393 18.9443C21.0393 18.9279 21.0475 18.9115 21.0475 18.8952C21.0475 18.8788 21.0556 18.8624 21.0556 18.8379C21.0556 18.8215 21.0638 18.8133 21.0638 18.797C21.072 18.7315 21.072 18.666 21.0638 18.6006C21.0638 18.5842 21.0638 18.576 21.0556 18.5597C21.0556 18.5433 21.0475 18.5269 21.0475 18.5024C21.0475 18.486 21.0393 18.4696 21.0393 18.4533C21.0393 18.4369 21.0311 18.4205 21.0311 18.4042C21.0229 18.3878 21.0229 18.3714 21.0147 18.3633C21.0065 18.3469 21.0065 18.3305 20.9984 18.3142C20.9902 18.2978 20.982 18.2896 20.982 18.2733C20.9738 18.2569 20.9656 18.2405 20.9574 18.2242C20.9493 18.2078 20.9411 18.1996 20.9329 18.1832C20.9247 18.1669 20.9165 18.1505 20.9083 18.1341C20.9002 18.1178 20.892 18.1096 20.8756 18.0932C20.8674 18.0769 20.8592 18.0687 20.8511 18.0523C20.8347 18.0278 20.8101 18.0114 20.7938 17.9868L20.7856 17.9787L18.3797 15.5728C17.9951 15.1881 17.3732 15.1881 16.9885 15.5728C16.6039 15.9574 16.6039 16.5793 16.9885 16.9639L17.7169 17.6922H0.981997C0.441899 17.6922 0 18.1341 0 18.6742C0 19.2143 0.441899 19.6562 0.981997 19.6562H17.7087L16.8658 20.5564Z" fill="#002A70"/>
</g>
<defs>
<clipPath id="clip0">
<rect width="40" height="40" fill="white"/>
</clipPath>
</defs>
</svg>
