<svg width="28" height="28" viewBox="0 0 28 28" fill="none" xmlns="http://www.w3.org/2000/svg">
<path d="M10.0096 22.2308C6.8704 20.7085 4.84202 17.472 4.84202 13.9855C4.84202 10.9022 6.37953 8.04455 8.95483 6.34135C9.27978 6.12644 9.36897 5.68879 9.15406 5.36384C8.93915 5.03889 8.50158 4.9497 8.17655 5.16461C8.03116 5.26085 7.88867 5.36008 7.74901 5.46252L6.35578 4.29337C5.55117 3.61832 4.34723 3.72358 3.6721 4.52819L2.87885 5.47372C2.55249 5.86255 2.39722 6.35632 2.44158 6.86412C2.48602 7.372 2.72468 7.83137 3.11351 8.15749L4.50916 9.32867C4.17402 10.0119 3.91248 10.7325 3.73111 11.478H1.90486C0.854539 11.478 0 12.3325 0 13.3829V14.6173C0 15.6676 0.854539 16.5221 1.90486 16.5221H3.73848C3.92055 17.2609 4.18225 17.9781 4.52013 18.6622L3.11374 19.8425C2.72476 20.1688 2.4861 20.6281 2.44166 21.136C2.3973 21.6438 2.55257 22.1376 2.87877 22.5262L3.67217 23.472C4.04846 23.9203 4.58886 24.1514 5.13295 24.1514C5.56512 24.1514 5.99972 24.0055 6.35594 23.7067L7.7675 22.5222C8.27718 22.8946 8.82127 23.2223 9.39405 23.5001C9.74463 23.6699 10.1665 23.5237 10.3365 23.1732C10.5065 22.8227 10.3601 22.4007 10.0096 22.2308ZM1.90486 15.1114C1.63243 15.1114 1.41078 14.8898 1.41078 14.6174V13.3829C1.41078 13.1105 1.63243 12.8888 1.90486 12.8888H3.48775C3.45029 13.2508 3.43124 13.6167 3.43124 13.9855C3.43124 14.3633 3.45123 14.739 3.49081 15.1114H1.90486ZM4.02024 7.0766C3.92016 6.99266 3.85863 6.87353 3.84703 6.74123C3.83551 6.60885 3.8754 6.48078 3.95958 6.38054L4.75291 5.43493C4.85049 5.31862 4.99062 5.25866 5.1317 5.25866C5.24386 5.25866 5.35656 5.29651 5.44897 5.37403L6.65401 6.38532C6.11611 6.90449 5.6384 7.47562 5.22607 8.08852L4.02024 7.0766ZM5.44913 22.6259C5.24025 22.8011 4.92784 22.7738 4.75283 22.5653L3.9595 21.6194C3.87548 21.5193 3.83551 21.3912 3.84711 21.2588C3.85871 21.1265 3.92024 21.0074 4.02048 20.9232L5.24002 19.8998C5.65808 20.5181 6.13798 21.0877 6.67086 21.6008L5.44913 22.6259ZM26.0951 11.478H24.2703C24.0893 10.7312 23.8281 10.0101 23.4931 9.32687L24.8865 8.15757C25.691 7.48251 25.7964 6.27857 25.1213 5.4738L24.3279 4.52819C23.6528 3.72358 22.4488 3.61824 21.6442 4.29337L20.2511 5.46244C20.067 5.32755 19.8775 5.19784 19.6834 5.07377C19.3551 4.86403 18.9189 4.96012 18.7092 5.28844C18.4994 5.61676 18.5955 6.05293 18.9238 6.26266C21.575 7.95646 23.1578 10.8435 23.1578 13.9855C23.1578 17.5428 21.0709 20.8071 17.8411 22.3015C17.4875 22.4651 17.3335 22.8844 17.4971 23.2379C17.6607 23.5915 18.08 23.7456 18.4334 23.5819C19.0735 23.2857 19.6747 22.9293 20.2315 22.5213L21.6441 23.7067C21.9893 23.9964 22.4172 24.1512 22.8643 24.1512C22.9208 24.1512 22.9776 24.1487 23.0345 24.1438C23.5423 24.0993 24.0017 23.8608 24.3279 23.4719L25.1213 22.5264C25.7964 21.7217 25.6912 20.5179 24.8865 19.8426L23.4739 18.6572C23.8092 17.9787 24.0728 17.2633 24.2572 16.5222H26.0951C27.1454 16.5222 27.9999 15.6677 27.9999 14.6174V13.3829C28 12.3325 27.1455 11.478 26.0951 11.478ZM23.9798 20.9232C24.1885 21.0984 24.2158 21.4107 24.0407 21.6195L23.2472 22.5651C23.1632 22.6651 23.0441 22.7267 22.9117 22.7382C22.779 22.7496 22.6513 22.7099 22.5511 22.6258L21.3265 21.5982C21.862 21.0808 22.3405 20.5094 22.7549 19.8952L23.9798 20.9232ZM22.7762 8.08687C22.3639 7.47444 21.8855 6.90339 21.347 6.38454L22.5511 5.37419C22.7598 5.19909 23.0721 5.22637 23.2472 5.43501L24.0406 6.38054C24.2157 6.58933 24.1885 6.90174 23.9798 7.07692L22.7762 8.08687ZM26.5892 14.6173C26.5892 14.8897 26.3676 15.1114 26.0951 15.1114H24.5079C24.5481 14.7399 24.5685 14.364 24.5685 13.9854C24.5685 13.6165 24.5496 13.2505 24.5124 12.8888H26.0951C26.3675 12.8888 26.5891 13.1104 26.5891 13.3829V14.6173H26.5892ZM18.7487 13.9854C18.7487 12.3322 17.9092 10.8233 16.5029 9.94918C16.172 9.74352 16.0706 9.30861 16.2762 8.9777C16.4819 8.64695 16.9168 8.5453 17.2477 8.75104C19.071 9.88436 20.1595 11.8411 20.1595 13.9854C20.1595 15.4434 19.6407 16.8577 18.6988 17.968C18.5593 18.1324 18.3606 18.217 18.1606 18.217C17.9993 18.217 17.8372 18.162 17.7046 18.0495C17.4075 17.7976 17.3711 17.3524 17.623 17.0553C18.3489 16.1996 18.7487 15.1095 18.7487 13.9854ZM10.4564 17.1466C10.7159 17.4372 10.6906 17.8831 10.4 18.1426C10.2655 18.2626 10.0976 18.3217 9.93046 18.3217C9.73648 18.3217 9.54336 18.2422 9.404 18.0861C8.39592 16.9568 7.84071 15.5005 7.84071 13.9855C7.84071 11.7056 9.09128 9.62211 11.1044 8.54804C11.4481 8.36472 11.8754 8.49459 12.0588 8.83835C12.2422 9.18203 12.1122 9.60934 11.7685 9.79274C10.216 10.621 9.25156 12.2276 9.25156 13.9855C9.25148 15.1535 9.67942 16.2762 10.4564 17.1466ZM14.6936 16.2575C14.7014 16.2154 14.7055 16.172 14.7055 16.1275V7.39128L17.2648 5.91365C17.4831 5.78762 17.6175 5.55476 17.6175 5.30278V1.94012C17.6175 1.68814 17.4831 1.4552 17.2648 1.32925L15.8089 0.488666C15.4715 0.2939 15.04 0.409427 14.8453 0.746838C14.6505 1.08425 14.7661 1.51563 15.1035 1.7104L16.2067 2.34736V4.89546L14.0001 6.16947L11.7933 4.89554V2.34744L12.8967 1.71048C13.2341 1.51571 13.3497 1.08433 13.1549 0.746916C12.9602 0.409506 12.5287 0.2939 12.1914 0.488666L10.7352 1.32925C10.5169 1.4552 10.3825 1.68814 10.3825 1.94012V5.30278C10.3825 5.55476 10.5169 5.7877 10.7352 5.91365L13.2947 7.39128V16.1275C13.2947 16.172 13.2988 16.2154 13.3066 16.2575C12.3521 16.5538 11.6569 17.4451 11.6569 18.4957V25.9729C11.6569 26.8734 12.3894 27.606 13.2898 27.606H14.7099C15.6105 27.606 16.3431 26.8734 16.3431 25.9729V18.4957C16.3431 17.4451 15.648 16.5538 14.6936 16.2575ZM14.9324 25.9729C14.9324 26.0934 14.8306 26.1952 14.71 26.1952H13.2898C13.1694 26.1952 13.0678 26.0934 13.0678 25.9729V18.4957C13.0678 17.9817 13.486 17.5636 14.0002 17.5636C14.5143 17.5636 14.9325 17.9817 14.9325 18.4957V25.9729H14.9324Z" fill="#ECBB0D"/>
</svg>
