<svg width="20" height="20" viewBox="0 0 20 20" fill="none" xmlns="http://www.w3.org/2000/svg">
<path d="M19.7551 18.5796L16.2284 15.0528C15.5011 14.3256 15.4699 13.1741 15.938 12.2583C16.5251 11.1096 16.8571 9.80774 16.8571 8.42857C16.8571 3.77551 13.0816 0 8.42857 0C3.77143 0 0 3.77551 0 8.42857C0 13.0816 3.77143 16.8571 8.42857 16.8571C9.80753 16.8571 11.1073 16.5271 12.2547 15.9413C13.1704 15.4739 14.3215 15.5047 15.0488 16.2313L18.5755 19.7551C18.902 20.0816 19.4286 20.0816 19.7551 19.7551C20.0816 19.4327 20.0816 18.902 19.7551 18.5796ZM8.42857 15.1796C4.70204 15.1796 1.67347 12.151 1.67347 8.42857C1.67347 4.70612 4.70204 1.67347 8.42857 1.67347C12.151 1.67347 15.1837 4.70612 15.1837 8.42857C15.1837 12.151 12.151 15.1796 8.42857 15.1796Z" fill="#002A70"/>
</svg>
