<svg width="28" height="29" viewBox="0 0 28 29" fill="none" xmlns="http://www.w3.org/2000/svg">
<path fill-rule="evenodd" clip-rule="evenodd" d="M14 0C6.26801 0 0 6.49187 0 14.5C0 22.5081 6.26801 29 14 29C21.732 29 28 22.5081 28 14.5C28 6.49187 21.732 0 14 0ZM15.1399 19.0773C15.0019 19.228 14.7324 19.2585 14.7324 19.2585H13.8398C13.8398 19.2585 11.8707 19.3788 10.136 17.5432C8.2443 15.5405 6.5739 11.5671 6.5739 11.5671C6.5739 11.5671 6.47749 11.3065 6.58193 11.181C6.69952 11.0391 7.02017 11.0302 7.02017 11.0302L9.15364 11.0161C9.15364 11.0161 9.35449 11.0495 9.49838 11.1572C9.61743 11.2463 9.6839 11.4119 9.6839 11.4119C9.6839 11.4119 10.0286 12.2985 10.4851 13.1005C11.3769 14.6665 11.7918 15.0088 12.0942 14.841C12.5353 14.5967 12.4031 12.6275 12.4031 12.6275C12.4031 12.6275 12.4112 11.9131 12.1811 11.5946C12.0029 11.3481 11.6669 11.276 11.5186 11.256C11.3981 11.2396 11.5953 10.956 11.851 10.829C12.2352 10.6382 12.913 10.627 13.7142 10.6352C14.3387 10.6419 14.5183 10.6812 14.7623 10.7414C15.3285 10.8803 15.3108 11.3254 15.2727 12.2862C15.2612 12.5735 15.248 12.9069 15.248 13.2921C15.248 13.3786 15.2455 13.4709 15.243 13.5658C15.2297 14.058 15.2146 14.6216 15.5336 14.8314C15.6972 14.9383 16.0967 14.847 17.0966 13.1213C17.5706 12.303 17.9256 11.3414 17.9256 11.3414C17.9256 11.3414 18.0038 11.1698 18.1243 11.0963C18.2477 11.0213 18.4142 11.0443 18.4142 11.0443L20.6595 11.0302C20.6595 11.0302 21.3343 10.9478 21.4432 11.2582C21.5578 11.5827 21.1912 12.3416 20.2738 13.5846C19.402 14.7663 18.9786 15.1999 19.0192 15.5845C19.0488 15.8643 19.324 16.1181 19.8509 16.615C20.9537 17.6558 21.2492 18.2035 21.3202 18.335C21.3261 18.346 21.3305 18.354 21.3336 18.3592C21.8281 19.1931 20.7851 19.2585 20.7851 19.2585L18.7904 19.2867C18.7904 19.2867 18.3624 19.3728 17.7985 18.9793C17.5032 18.7733 17.2145 18.4369 16.9396 18.1164C16.5198 17.6271 16.1319 17.175 15.8009 17.2818C15.2451 17.4615 15.2619 18.6785 15.2619 18.6785C15.2619 18.6785 15.2663 18.9392 15.1399 19.0773Z" fill="#525252"/>
</svg>
