<svg width="29" height="29" viewBox="0 0 29 29" fill="none" xmlns="http://www.w3.org/2000/svg">
<path fill-rule="evenodd" clip-rule="evenodd" d="M14.5 0C6.49187 0 0 6.49187 0 14.5C0 22.5081 6.49187 29 14.5 29C22.5081 29 29 22.5081 29 14.5C29 6.49187 22.5081 0 14.5 0ZM20.5425 9.51524C21.208 9.69786 21.7321 10.2359 21.91 10.9193C22.2332 12.1577 22.2332 14.7417 22.2332 14.7417C22.2332 14.7417 22.2332 17.3256 21.91 18.5641C21.7321 19.2475 21.208 19.7855 20.5425 19.9683C19.3365 20.3001 14.4999 20.3001 14.4999 20.3001C14.4999 20.3001 9.66339 20.3001 8.45727 19.9683C7.79177 19.7855 7.26766 19.2475 7.0898 18.5641C6.76667 17.3256 6.76667 14.7417 6.76667 14.7417C6.76667 14.7417 6.76667 12.1577 7.0898 10.9193C7.26766 10.2359 7.79177 9.69786 8.45727 9.51524C9.66339 9.18335 14.4999 9.18335 14.4999 9.18335C14.4999 9.18335 19.3365 9.18335 20.5425 9.51524Z" fill="#525252"/>
<path d="M13.0498 17.4V12.5667L16.9165 14.9834L13.0498 17.4Z" fill="#525252"/>
</svg>
